SourceSansPro_0.ufo
<glyph name="exclam" format="1">
  <advance width="248"/>
  <unicode hex="0021"/>
  <outline>
    <contour>
      <point x="112" y="172" type="line"/>
      <point x="136" y="172" type="line"/>
      <point x="140" y="608" type="line"/>
      <point x="140" y="670" type="line"/>
      <point x="108" y="670" type="line"/>
      <point x="108" y="608" type="line"/>
    </contour>
    <contour>
      <point x="124" y="-12" type="curve" smooth="yes"/>
      <point x="142" y="-12"/>
      <point x="160" y="2"/>
      <point x="160" y="26" type="curve" smooth="yes"/>
      <point x="160" y="52"/>
      <point x="142" y="66"/>
      <point x="124" y="66" type="curve" smooth="yes"/>
      <point x="106" y="66"/>
      <point x="88" y="52"/>
      <point x="88" y="26" type="curve" smooth="yes"/>
      <point x="88" y="2"/>
      <point x="106" y="-12"/>
    </contour>
  </outline>
</glyph>
<glyph name="numbersign" format="1">
  <advance width="472"/>
  <unicode hex="0023"/>
  <outline>
    <contour>
      <point x="94" y="0" type="line"/>
      <point x="122" y="0" type="line"/>
      <point x="148" y="218" type="line"/>
      <point x="304" y="218" type="line"/>
      <point x="278" y="0" type="line"/>
      <point x="306" y="0" type="line"/>
      <point x="332" y="218" type="line"/>
      <point x="422" y="218" type="line"/>
      <point x="422" y="246" type="line"/>
      <point x="336" y="246" type="line"/>
      <point x="358" y="424" type="line"/>
      <point x="442" y="424" type="line"/>
      <point x="442" y="452" type="line"/>
      <point x="360" y="452" type="line"/>
      <point x="386" y="650" type="line"/>
      <point x="358" y="650" type="line"/>
      <point x="332" y="452" type="line"/>
      <point x="176" y="452" type="line"/>
      <point x="202" y="650" type="line"/>
      <point x="174" y="650" type="line"/>
      <point x="148" y="452" type="line"/>
      <point x="56" y="452" type="line"/>
      <point x="56" y="424" type="line"/>
      <point x="146" y="424" type="line"/>
      <point x="124" y="246" type="line"/>
      <point x="36" y="246" type="line"/>
      <point x="36" y="218" type="line"/>
      <point x="120" y="218" type="line"/>
    </contour>
    <contour>
      <point x="152" y="246" type="line"/>
      <point x="174" y="424" type="line"/>
      <point x="330" y="424" type="line"/>
      <point x="308" y="246" type="line"/>
    </contour>
  </outline>
</glyph>
<glyph name="asterisk" format="1">
  <advance width="386"/>
  <unicode hex="002A"/>
  <outline>
    <contour>
      <point x="130" y="478" type="line"/>
      <point x="194" y="560" type="line"/>
      <point x="256" y="478" type="line"/>
      <point x="278" y="494" type="line"/>
      <point x="224" y="580" type="line"/>
      <point x="312" y="614" type="line"/>
      <point x="304" y="638" type="line"/>
      <point x="212" y="614" type="line"/>
      <point x="206" y="712" type="line"/>
      <point x="180" y="712" type="line"/>
      <point x="174" y="612" type="line"/>
      <point x="82" y="638" type="line"/>
      <point x="74" y="614" type="line"/>
      <point x="162" y="580" type="line"/>
      <point x="108" y="494" type="line"/>
    </contour>
  </outline>
</glyph>
<glyph name="hyphen" format="1">
  <advance width="294"/>
  <unicode hex="002D"/>
  <outline>
    <contour>
      <point x="40" y="234" type="line"/>
      <point x="256" y="234" type="line"/>
      <point x="256" y="264" type="line"/>
      <point x="40" y="264" type="line"/>
    </contour>
  </outline>
</glyph>
<glyph name="zero" format="1">
  <advance width="472"/>
  <unicode hex="0030"/>
  <outline>
    <contour>
      <point x="236" y="-12" type="curve" smooth="yes"/>
      <point x="356" y="-12"/>
      <point x="422" y="110"/>
      <point x="422" y="322" type="curve" smooth="yes"/>
      <point x="422" y="534"/>
      <point x="356" y="652"/>
      <point x="236" y="652" type="curve" smooth="yes"/>
      <point x="116" y="652"/>
      <point x="50" y="534"/>
      <point x="50" y="322" type="curve" smooth="yes"/>
      <point x="50" y="110"/>
      <point x="116" y="-12"/>
    </contour>
    <contour>
      <point x="236" y="16" type="curve" smooth="yes"/>
      <point x="142" y="16"/>
      <point x="82" y="124"/>
      <point x="82" y="322" type="curve" smooth="yes"/>
      <point x="82" y="520"/>
      <point x="142" y="624"/>
      <point x="236" y="624" type="curve" smooth="yes"/>
      <point x="330" y="624"/>
      <point x="390" y="520"/>
      <point x="390" y="322" type="curve" smooth="yes"/>
      <point x="390" y="124"/>
      <point x="330" y="16"/>
    </contour>
  </outline>
</glyph>
<glyph name="four" format="1">
  <advance width="472"/>
  <unicode hex="0034"/>
  <outline>
    <contour>
      <point x="312" y="0" type="line"/>
      <point x="342" y="0" type="line"/>
      <point x="342" y="640" type="line"/>
      <point x="322" y="640" type="line"/>
      <point x="16" y="212" type="line"/>
      <point x="16" y="196" type="line"/>
      <point x="440" y="196" type="line"/>
      <point x="440" y="224" type="line"/>
      <point x="58" y="224" type="line"/>
      <point x="260" y="506" type="line"/>
      <point x="278" y="534"/>
      <point x="296" y="556"/>
      <point x="312" y="582" type="curve"/>
      <point x="316" y="582" type="line"/>
      <point x="314" y="554"/>
      <point x="312" y="504"/>
      <point x="312" y="476" type="curve" smooth="yes"/>
    </contour>
  </outline>
</glyph>
<glyph name="five" format="1">
  <advance width="472"/>
  <unicode hex="0035"/>
  <outline>
    <contour>
      <point x="224" y="-12" type="curve" smooth="yes"/>
      <point x="324" y="-12"/>
      <point x="424" y="64"/>
      <point x="424" y="200" type="curve" smooth="yes"/>
      <point x="424" y="340"/>
      <point x="338" y="402"/>
      <point x="230" y="402" type="curve" smooth="yes"/>
      <point x="180" y="402"/>
      <point x="144" y="387"/>
      <point x="110" y="366" type="curve"/>
      <point x="132" y="612" type="line"/>
      <point x="390" y="612" type="line"/>
      <point x="390" y="640" type="line"/>
      <point x="104" y="640" type="line"/>
      <point x="80" y="344" type="line"/>
      <point x="106" y="328" type="line"/>
      <point x="144" y="354"/>
      <point x="178" y="372"/>
      <point x="228" y="372" type="curve" smooth="yes"/>
      <point x="328" y="372"/>
      <point x="392" y="306"/>
      <point x="392" y="198" type="curve" smooth="yes"/>
      <point x="392" y="90"/>
      <point x="314" y="16"/>
      <point x="226" y="16" type="curve" smooth="yes"/>
      <point x="134" y="16"/>
      <point x="84" y="56"/>
      <point x="46" y="96" type="curve"/>
      <point x="26" y="74" type="line"/>
      <point x="66" y="34"/>
      <point x="122" y="-12"/>
    </contour>
  </outline>
</glyph>
<glyph name="nine" format="1">
  <advance width="472"/>
  <unicode hex="0039"/>
  <outline>
    <contour>
      <point x="186" y="-12" type="curve" smooth="yes"/>
      <point x="308" y="-12"/>
      <point x="418" y="80"/>
      <point x="418" y="352" type="curve" smooth="yes"/>
      <point x="418" y="542"/>
      <point x="342" y="652"/>
      <point x="214" y="652" type="curve" smooth="yes"/>
      <point x="122" y="652"/>
      <point x="44" y="568"/>
      <point x="44" y="454" type="curve" smooth="yes"/>
      <point x="44" y="326"/>
      <point x="108" y="256"/>
      <point x="220" y="256" type="curve" smooth="yes"/>
      <point x="284" y="256"/>
      <point x="344" y="294"/>
      <point x="390" y="352" type="curve"/>
      <point x="390" y="392" type="line"/>
      <point x="334" y="314"/>
      <point x="270" y="284"/>
      <point x="222" y="284" type="curve" smooth="yes"/>
      <point x="118" y="284"/>
      <point x="76" y="358"/>
      <point x="76" y="454" type="curve" smooth="yes"/>
      <point x="76" y="548"/>
      <point x="134" y="624"/>
      <point x="212" y="624" type="curve" smooth="yes"/>
      <point x="334" y="624"/>
      <point x="386" y="508"/>
      <point x="386" y="352" type="curve" smooth="yes"/>
      <point x="386" y="102"/>
      <point x="294" y="16"/>
      <point x="188" y="16" type="curve" smooth="yes"/>
      <point x="146" y="16"/>
      <point x="107" y="34"/>
      <point x="78" y="70" type="curve"/>
      <point x="58" y="48" type="line"/>
      <point x="89" y="12"/>
      <point x="130" y="-12"/>
    </contour>
  </outline>
</glyph>
<glyph name="I" format="1">
  <advance width="232"/>
  <unicode hex="0049"/>
  <outline>
    <contour>
      <point x="116" y="682" type="move" name="aboveUC"/>
    </contour>
    <contour>
      <point x="116" y="-22" type="move" name="belowLC"/>
    </contour>
    <contour>
      <point x="90" y="0" type="move" name="ogonekUC"/>
    </contour>
    <contour>
      <point x="100" y="0" type="line"/>
      <point x="132" y="0" type="line"/>
      <point x="132" y="660" type="line"/>
      <point x="100" y="660" type="line"/>
    </contour>
  </outline>
</glyph>
<glyph name="J" format="1">
  <advance width="456"/>
  <unicode hex="004A"/>
  <outline>
    <contour>
      <point x="200" y="-12" type="curve" smooth="yes"/>
      <point x="316" y="-12"/>
      <point x="358" y="70"/>
      <point x="358" y="174" type="curve" smooth="yes"/>
      <point x="358" y="660" type="line"/>
      <point x="326" y="660" type="line"/>
      <point x="326" y="178" type="line" smooth="yes"/>
      <point x="326" y="68"/>
      <point x="286" y="18"/>
      <point x="202" y="18" type="curve" smooth="yes"/>
      <point x="144" y="18"/>
      <point x="104" y="40"/>
      <point x="70" y="98" type="curve"/>
      <point x="44" y="82" type="line"/>
      <point x="76" y="22"/>
      <point x="130" y="-12"/>
    </contour>
    <contour>
      <point x="338" y="682" type="move" name="aboveUC"/>
    </contour>
    <contour>
      <point x="240" y="-22" type="move" name="belowLC"/>
    </contour>
  </outline>
</glyph>
<glyph name="S" format="1">
  <advance width="516"/>
  <unicode hex="0053"/>
  <outline>
    <contour>
      <point x="268" y="-12" type="curve" smooth="yes"/>
      <point x="392" y="-12"/>
      <point x="474" y="62"/>
      <point x="474" y="162" type="curve" smooth="yes"/>
      <point x="474" y="264"/>
      <point x="407" y="303"/>
      <point x="334" y="336" type="curve" smooth="yes"/>
      <point x="232" y="382" type="line" smooth="yes"/>
      <point x="185" y="403"/>
      <point x="116" y="434"/>
      <point x="116" y="516" type="curve" smooth="yes"/>
      <point x="116" y="592"/>
      <point x="178" y="642"/>
      <point x="270" y="642" type="curve" smooth="yes"/>
      <point x="338" y="642"/>
      <point x="392" y="614"/>
      <point x="430" y="572" type="curve"/>
      <point x="450" y="594" type="line"/>
      <point x="412" y="635"/>
      <point x="350" y="672"/>
      <point x="270" y="672" type="curve" smooth="yes"/>
      <point x="164" y="672"/>
      <point x="84" y="608"/>
      <point x="84" y="514" type="curve" smooth="yes"/>
      <point x="84" y="416"/>
      <point x="162" y="377"/>
      <point x="218" y="352" type="curve" smooth="yes"/>
      <point x="320" y="306" type="line" smooth="yes"/>
      <point x="386" y="276"/>
      <point x="442" y="248"/>
      <point x="442" y="160" type="curve" smooth="yes"/>
      <point x="442" y="76"/>
      <point x="374" y="18"/>
      <point x="268" y="18" type="curve" smooth="yes"/>
      <point x="188" y="18"/>
      <point x="118" y="54"/>
      <point x="70" y="110" type="curve"/>
      <point x="48" y="88" type="line"/>
      <point x="98" y="30"/>
      <point x="170" y="-12"/>
    </contour>
    <contour>
      <point x="268" y="682" type="move" name="aboveUC"/>
    </contour>
    <contour>
      <point x="268" y="-22" type="move" name="belowLC"/>
    </contour>
    <contour>
      <point x="268" y="0" type="move" name="baseLC"/>
    </contour>
  </outline>
</glyph>
<glyph name="U" format="1">
  <advance width="630"/>
  <unicode hex="0055"/>
  <outline>
    <contour>
      <point x="314" y="-12" type="curve" smooth="yes"/>
      <point x="420" y="-12"/>
      <point x="532" y="42"/>
      <point x="532" y="246" type="curve" smooth="yes"/>
      <point x="532" y="660" type="line"/>
      <point x="502" y="660" type="line"/>
      <point x="502" y="254" type="line" smooth="yes"/>
      <point x="502" y="72"/>
      <point x="412" y="18"/>
      <point x="314" y="18" type="curve" smooth="yes"/>
      <point x="218" y="18"/>
      <point x="130" y="72"/>
      <point x="130" y="254" type="curve" smooth="yes"/>
      <point x="130" y="660" type="line"/>
      <point x="98" y="660" type="line"/>
      <point x="98" y="246" type="line" smooth="yes"/>
      <point x="98" y="42"/>
      <point x="208" y="-12"/>
    </contour>
    <contour>
      <point x="314" y="682" type="move" name="aboveUC"/>
    </contour>
    <contour>
      <point x="314" y="-22" type="move" name="belowLC"/>
    </contour>
    <contour>
      <point x="314" y="0" type="move" name="ogonekUC"/>
    </contour>
    <contour>
      <point x="510" y="670" type="move" name="hornLC"/>
    </contour>
  </outline>
</glyph>
<glyph name="asciicircum" format="1">
  <advance width="472"/>
  <unicode hex="005E"/>
  <outline>
    <contour>
      <point x="68" y="292" type="line"/>
      <point x="100" y="292" type="line"/>
      <point x="182" y="506" type="line"/>
      <point x="234" y="638" type="line"/>
      <point x="238" y="638" type="line"/>
      <point x="290" y="506" type="line"/>
      <point x="372" y="292" type="line"/>
      <point x="404" y="292" type="line"/>
      <point x="254" y="670" type="line"/>
      <point x="218" y="670" type="line"/>
    </contour>
  </outline>
</glyph>
<glyph name="underscore" format="1">
  <advance width="500"/>
  <unicode hex="005F"/>
  <outline>
    <contour>
      <point x="12" y="-114" type="line"/>
      <point x="488" y="-114" type="line"/>
      <point x="488" y="-82" type="line"/>
      <point x="12" y="-82" type="line"/>
    </contour>
  </outline>
</glyph>
<glyph name="b" format="1">
  <advance width="538"/>
  <unicode hex="0062"/>
  <outline>
    <contour>
      <point x="274" y="-12" type="curve" smooth="yes"/>
      <point x="388" y="-12"/>
      <point x="486" y="84"/>
      <point x="486" y="246" type="curve" smooth="yes"/>
      <point x="486" y="394"/>
      <point x="424" y="490"/>
      <point x="294" y="490" type="curve" smooth="yes"/>
      <point x="234" y="490"/>
      <point x="174" y="454"/>
      <point x="124" y="412" type="curve"/>
      <point x="126" y="508" type="line"/>
      <point x="126" y="722" type="line"/>
      <point x="96" y="722" type="line"/>
      <point x="96" y="0" type="line"/>
      <point x="122" y="0" type="line"/>
      <point x="126" y="48" type="line"/>
      <point x="128" y="48" type="line"/>
      <point x="174" y="12"/>
      <point x="228" y="-12"/>
    </contour>
    <contour>
      <point x="276" y="16" type="curve" smooth="yes"/>
      <point x="238" y="16"/>
      <point x="182" y="34"/>
      <point x="126" y="82" type="curve"/>
      <point x="126" y="378" type="line"/>
      <point x="186" y="432"/>
      <point x="242" y="462"/>
      <point x="292" y="462" type="curve" smooth="yes"/>
      <point x="410" y="462"/>
      <point x="454" y="368"/>
      <point x="454" y="246" type="curve" smooth="yes"/>
      <point x="454" y="112"/>
      <point x="380" y="16"/>
    </contour>
    <contour>
      <point x="114" y="730" type="move" name="aboveLC"/>
    </contour>
    <contour>
      <point x="276" y="-22" type="move" name="belowLC"/>
    </contour>
  </outline>
</glyph>
<glyph name="c" format="1">
  <advance width="446"/>
  <unicode hex="0063"/>
  <outline>
    <contour>
      <point x="268" y="-12" type="curve" smooth="yes"/>
      <point x="330" y="-12"/>
      <point x="380" y="16"/>
      <point x="420" y="52" type="curve"/>
      <point x="402" y="74" type="line"/>
      <point x="368" y="42"/>
      <point x="322" y="16"/>
      <point x="268" y="16" type="curve" smooth="yes"/>
      <point x="158" y="16"/>
      <point x="86" y="106"/>
      <point x="86" y="238" type="curve" smooth="yes"/>
      <point x="86" y="370"/>
      <point x="166" y="462"/>
      <point x="268" y="462" type="curve" smooth="yes"/>
      <point x="318" y="462"/>
      <point x="356" y="438"/>
      <point x="388" y="408" type="curve"/>
      <point x="408" y="430" type="line"/>
      <point x="376" y="460"/>
      <point x="334" y="490"/>
      <point x="268" y="490" type="curve" smooth="yes"/>
      <point x="154" y="490"/>
      <point x="54" y="398"/>
      <point x="54" y="238" type="curve" smooth="yes"/>
      <point x="54" y="80"/>
      <point x="146" y="-12"/>
    </contour>
    <contour>
      <point x="268" y="502" type="move" name="aboveLC"/>
    </contour>
    <contour>
      <point x="266" y="-22" type="move" name="belowLC"/>
    </contour>
    <contour>
      <point x="266" y="0" type="move" name="baseLC"/>
    </contour>
  </outline>
</glyph>
<glyph name="e" format="1">
  <advance width="478"/>
  <unicode hex="0065"/>
  <outline>
    <contour>
      <point x="272" y="-12" type="curve" smooth="yes"/>
      <point x="344" y="-12"/>
      <point x="384" y="12"/>
      <point x="420" y="34" type="curve"/>
      <point x="406" y="60" type="line"/>
      <point x="370" y="34"/>
      <point x="328" y="16"/>
      <point x="274" y="16" type="curve" smooth="yes"/>
      <point x="160" y="16"/>
      <point x="86" y="110"/>
      <point x="86" y="238" type="curve"/>
      <point x="438" y="238" type="line"/>
      <point x="440" y="250"/>
      <point x="440" y="260"/>
      <point x="440" y="270" type="curve" smooth="yes"/>
      <point x="440" y="412"/>
      <point x="370" y="490"/>
      <point x="260" y="490" type="curve" smooth="yes"/>
      <point x="154" y="490"/>
      <point x="54" y="394"/>
      <point x="54" y="238" type="curve" smooth="yes"/>
      <point x="54" y="82"/>
      <point x="152" y="-12"/>
    </contour>
    <contour>
      <point x="86" y="266" type="line"/>
      <point x="96" y="388"/>
      <point x="174" y="462"/>
      <point x="260" y="462" type="curve" smooth="yes"/>
      <point x="350" y="462"/>
      <point x="410" y="398"/>
      <point x="410" y="266" type="curve"/>
    </contour>
    <contour>
      <point x="260" y="502" type="move" name="aboveLC"/>
    </contour>
    <contour>
      <point x="256" y="-22" type="move" name="belowLC"/>
    </contour>
    <contour>
      <point x="382" y="0" type="move" name="ogonekLC"/>
    </contour>
  </outline>
</glyph>
<glyph name="i" format="1">
  <advance width="222"/>
  <unicode hex="0069"/>
  <outline>
    <contour>
      <point x="96" y="0" type="line"/>
      <point x="126" y="0" type="line"/>
      <point x="126" y="478" type="line"/>
      <point x="96" y="478" type="line"/>
    </contour>
    <contour>
      <point x="112" y="600" type="curve" smooth="yes"/>
      <point x="130" y="600"/>
      <point x="146" y="614"/>
      <point x="146" y="634" type="curve" smooth="yes"/>
      <point x="146" y="656"/>
      <point x="130" y="668"/>
      <point x="112" y="668" type="curve" smooth="yes"/>
      <point x="94" y="668"/>
      <point x="78" y="656"/>
      <point x="78" y="634" type="curve" smooth="yes"/>
      <point x="78" y="614"/>
      <point x="94" y="600"/>
    </contour>
    <contour>
      <point x="110" y="672" type="move" name="aboveLC"/>
    </contour>
    <contour>
      <point x="110" y="-22" type="move" name="belowLC"/>
    </contour>
    <contour>
      <point x="130" y="0" type="move" name="ogonekLC"/>
    </contour>
  </outline>
</glyph>
<glyph name="j" format="1">
  <advance width="222"/>
  <unicode hex="006A"/>
  <outline>
    <contour>
      <point x="28" y="-234" type="curve" smooth="yes"/>
      <point x="94" y="-234"/>
      <point x="126" y="-194"/>
      <point x="126" y="-102" type="curve" smooth="yes"/>
      <point x="126" y="478" type="line"/>
      <point x="96" y="478" type="line"/>
      <point x="96" y="-98" type="line" smooth="yes"/>
      <point x="96" y="-160"/>
      <point x="86" y="-206"/>
      <point x="30" y="-206" type="curve" smooth="yes"/>
      <point x="10" y="-206"/>
      <point x="-10" y="-200"/>
      <point x="-22" y="-196" type="curve"/>
      <point x="-30" y="-222" type="line"/>
      <point x="-16" y="-228"/>
      <point x="8" y="-234"/>
    </contour>
    <contour>
      <point x="112" y="600" type="curve" smooth="yes"/>
      <point x="130" y="600"/>
      <point x="146" y="614"/>
      <point x="146" y="634" type="curve" smooth="yes"/>
      <point x="146" y="656"/>
      <point x="130" y="668"/>
      <point x="112" y="668" type="curve" smooth="yes"/>
      <point x="94" y="668"/>
      <point x="78" y="656"/>
      <point x="78" y="634" type="curve" smooth="yes"/>
      <point x="78" y="614"/>
      <point x="94" y="600"/>
    </contour>
    <contour>
      <point x="112" y="672" type="move" name="aboveLC"/>
    </contour>
    <contour>
      <point x="44" y="-228" type="move" name="belowLC"/>
    </contour>
  </outline>
</glyph>
<glyph name="o" format="1">
  <advance width="532"/>
  <unicode hex="006F"/>
  <outline>
    <contour>
      <point x="266" y="-12" type="curve" smooth="yes"/>
      <point x="380" y="-12"/>
      <point x="478" y="80"/>
      <point x="478" y="238" type="curve" smooth="yes"/>
      <point x="478" y="398"/>
      <point x="380" y="490"/>
      <point x="266" y="490" type="curve" smooth="yes"/>
      <point x="152" y="490"/>
      <point x="54" y="398"/>
      <point x="54" y="238" type="curve" smooth="yes"/>
      <point x="54" y="80"/>
      <point x="152" y="-12"/>
    </contour>
    <contour>
      <point x="266" y="16" type="curve" smooth="yes"/>
      <point x="164" y="16"/>
      <point x="86" y="106"/>
      <point x="86" y="238" type="curve" smooth="yes"/>
      <point x="86" y="370"/>
      <point x="164" y="462"/>
      <point x="266" y="462" type="curve" smooth="yes"/>
      <point x="368" y="462"/>
      <point x="446" y="370"/>
      <point x="446" y="238" type="curve" smooth="yes"/>
      <point x="446" y="106"/>
      <point x="368" y="16"/>
    </contour>
    <contour>
      <point x="266" y="502" type="move" name="aboveLC"/>
    </contour>
    <contour>
      <point x="266" y="-22" type="move" name="belowLC"/>
    </contour>
    <contour>
      <point x="358" y="478" type="move" name="hornLC"/>
    </contour>
    <contour>
      <point x="312" y="0" type="move" name="ogonekLC"/>
    </contour>
  </outline>
</glyph>
<glyph name="q" format="1">
  <advance width="540"/>
  <unicode hex="0071"/>
  <outline>
    <contour>
      <point x="414" y="-222" type="line"/>
      <point x="444" y="-222" type="line"/>
      <point x="444" y="478" type="line"/>
      <point x="418" y="478" type="line"/>
      <point x="414" y="434" type="line"/>
      <point x="412" y="434" type="line"/>
      <point x="366" y="468"/>
      <point x="326" y="490"/>
      <point x="268" y="490" type="curve" smooth="yes"/>
      <point x="152" y="490"/>
      <point x="54" y="392"/>
      <point x="54" y="238" type="curve" smooth="yes"/>
      <point x="54" y="76"/>
      <point x="132" y="-12"/>
      <point x="252" y="-12" type="curve" smooth="yes"/>
      <point x="318" y="-12"/>
      <point x="372" y="24"/>
      <point x="416" y="66" type="curve"/>
      <point x="414" y="-32" type="line"/>
    </contour>
    <contour>
      <point x="254" y="16" type="curve" smooth="yes"/>
      <point x="146" y="16"/>
      <point x="86" y="106"/>
      <point x="86" y="238" type="curve" smooth="yes"/>
      <point x="86" y="362"/>
      <point x="164" y="462"/>
      <point x="266" y="462" type="curve" smooth="yes"/>
      <point x="316" y="462"/>
      <point x="360" y="444"/>
      <point x="414" y="396" type="curve"/>
      <point x="414" y="100" type="line"/>
      <point x="360" y="46"/>
      <point x="310" y="16"/>
    </contour>
    <contour>
      <point x="266" y="502" type="move" name="aboveLC"/>
    </contour>
    <contour>
      <point x="422" y="-218" type="move" name="belowLC"/>
    </contour>
  </outline>
</glyph>
<glyph name="s" format="1">
  <advance width="400"/>
  <unicode hex="0073"/>
  <outline>
    <contour>
      <point x="208" y="-12" type="curve" smooth="yes"/>
      <point x="308" y="-12"/>
      <point x="364" y="50"/>
      <point x="364" y="120" type="curve" smooth="yes"/>
      <point x="364" y="214"/>
      <point x="280" y="237"/>
      <point x="204" y="266" type="curve" smooth="yes"/>
      <point x="146" y="288"/>
      <point x="88" y="310"/>
      <point x="88" y="368" type="curve" smooth="yes"/>
      <point x="88" y="415"/>
      <point x="124" y="462"/>
      <point x="204" y="462" type="curve" smooth="yes"/>
      <point x="254" y="462"/>
      <point x="288" y="442"/>
      <point x="320" y="418" type="curve"/>
      <point x="338" y="442" type="line"/>
      <point x="304" y="470"/>
      <point x="254" y="490"/>
      <point x="206" y="490" type="curve" smooth="yes"/>
      <point x="108" y="490"/>
      <point x="56" y="432"/>
      <point x="56" y="366" type="curve" smooth="yes"/>
      <point x="56" y="284"/>
      <point x="138" y="256"/>
      <point x="212" y="230" type="curve" smooth="yes"/>
      <point x="268" y="210"/>
      <point x="332" y="182"/>
      <point x="332" y="118" type="curve" smooth="yes"/>
      <point x="332" y="64"/>
      <point x="290" y="16"/>
      <point x="210" y="16" type="curve" smooth="yes"/>
      <point x="138" y="16"/>
      <point x="94" y="44"/>
      <point x="54" y="78" type="curve"/>
      <point x="34" y="54" type="line"/>
      <point x="76" y="18"/>
      <point x="136" y="-12"/>
    </contour>
    <contour>
      <point x="206" y="502" type="move" name="aboveLC"/>
    </contour>
    <contour>
      <point x="216" y="-22" type="move" name="belowLC"/>
    </contour>
    <contour>
      <point x="216" y="0" type="move" name="baseLC"/>
    </contour>
  </outline>
</glyph>
<glyph name="u" format="1">
  <advance width="524"/>
  <unicode hex="0075"/>
  <outline>
    <contour>
      <point x="232" y="-12" type="curve" smooth="yes"/>
      <point x="298" y="-12"/>
      <point x="348" y="26"/>
      <point x="396" y="82" type="curve"/>
      <point x="398" y="82" type="line"/>
      <point x="402" y="0" type="line"/>
      <point x="428" y="0" type="line"/>
      <point x="428" y="478" type="line"/>
      <point x="398" y="478" type="line"/>
      <point x="398" y="120" type="line"/>
      <point x="338" y="48"/>
      <point x="294" y="16"/>
      <point x="234" y="16" type="curve" smooth="yes"/>
      <point x="152" y="16"/>
      <point x="118" y="68"/>
      <point x="118" y="174" type="curve" smooth="yes"/>
      <point x="118" y="478" type="line"/>
      <point x="88" y="478" type="line"/>
      <point x="88" y="170" type="line" smooth="yes"/>
      <point x="88" y="46"/>
      <point x="134" y="-12"/>
    </contour>
    <contour>
      <point x="262" y="502" type="move" name="aboveLC"/>
    </contour>
    <contour>
      <point x="280" y="-22" type="move" name="belowLC"/>
    </contour>
    <contour>
      <point x="396" y="488" type="move" name="hornLC"/>
    </contour>
    <contour>
      <point x="406" y="0" type="move" name="ogonekLC"/>
    </contour>
  </outline>
</glyph>
<glyph name="braceleft" format="1">
  <advance width="270"/>
  <unicode hex="007B"/>
  <outline>
    <contour>
      <point x="222" y="-152" type="curve" smooth="yes"/>
      <point x="252" y="-152" type="line"/>
      <point x="252" y="-130" type="line"/>
      <point x="220" y="-130" type="line" smooth="yes"/>
      <point x="156" y="-130"/>
      <point x="140" y="-94"/>
      <point x="140" y="-22" type="curve" smooth="yes"/>
      <point x="140" y="44"/>
      <point x="146" y="100"/>
      <point x="146" y="174" type="curve" smooth="yes"/>
      <point x="146" y="228"/>
      <point x="136" y="264"/>
      <point x="98" y="276" type="curve"/>
      <point x="98" y="280" type="line"/>
      <point x="136" y="292"/>
      <point x="146" y="326"/>
      <point x="146" y="382" type="curve" smooth="yes"/>
      <point x="146" y="456"/>
      <point x="140" y="512"/>
      <point x="140" y="578" type="curve" smooth="yes"/>
      <point x="140" y="650"/>
      <point x="156" y="686"/>
      <point x="220" y="686" type="curve" smooth="yes"/>
      <point x="252" y="686" type="line"/>
      <point x="252" y="708" type="line"/>
      <point x="222" y="708" type="line" smooth="yes"/>
      <point x="150" y="708"/>
      <point x="114" y="682"/>
      <point x="114" y="582" type="curve" smooth="yes"/>
      <point x="114" y="508"/>
      <point x="122" y="442"/>
      <point x="122" y="370" type="curve" smooth="yes"/>
      <point x="122" y="330"/>
      <point x="106" y="290"/>
      <point x="36" y="290" type="curve"/>
      <point x="36" y="266" type="line"/>
      <point x="106" y="266"/>
      <point x="122" y="226"/>
      <point x="122" y="184" type="curve" smooth="yes"/>
      <point x="122" y="114"/>
      <point x="114" y="48"/>
      <point x="114" y="-26" type="curve" smooth="yes"/>
      <point x="114" y="-126"/>
      <point x="150" y="-152"/>
    </contour>
  </outline>
</glyph>
<glyph name="bar" format="1">
  <advance width="220"/>
  <unicode hex="007C"/>
  <outline>
    <contour>
      <point x="96" y="-250" type="line"/>
      <point x="124" y="-250" type="line"/>
      <point x="124" y="750" type="line"/>
      <point x="96" y="750" type="line"/>
    </contour>
  </outline>
</glyph>
<glyph name="sterling" format="1">
  <advance width="472"/>
  <unicode hex="00A3"/>
  <outline>
    <contour>
      <point x="58" y="0" type="line"/>
      <point x="418" y="0" type="line"/>
      <point x="418" y="28" type="line"/>
      <point x="118" y="28" type="line"/>
      <point x="118" y="32" type="line"/>
      <point x="166" y="78"/>
      <point x="194" y="130"/>
      <point x="194" y="218" type="curve" smooth="yes"/>
      <point x="194" y="324"/>
      <point x="144" y="398"/>
      <point x="144" y="488" type="curve" smooth="yes"/>
      <point x="144" y="562"/>
      <point x="188" y="624"/>
      <point x="274" y="624" type="curve" smooth="yes"/>
      <point x="330" y="624"/>
      <point x="366" y="596"/>
      <point x="394" y="562" type="curve"/>
      <point x="416" y="582" type="line"/>
      <point x="388" y="618"/>
      <point x="344" y="652"/>
      <point x="276" y="652" type="curve" smooth="yes"/>
      <point x="174" y="652"/>
      <point x="112" y="588"/>
      <point x="112" y="486" type="curve" smooth="yes"/>
      <point x="112" y="394"/>
      <point x="164" y="312"/>
      <point x="164" y="218" type="curve" smooth="yes"/>
      <point x="164" y="140"/>
      <point x="134" y="62"/>
      <point x="58" y="18" type="curve"/>
    </contour>
    <contour>
      <point x="54" y="296" type="line"/>
      <point x="346" y="296" type="line"/>
      <point x="346" y="324" type="line"/>
      <point x="120" y="324" type="line"/>
      <point x="54" y="322" type="line"/>
    </contour>
  </outline>
</glyph>
<glyph name="section" format="1">
  <advance width="472"/>
  <unicode hex="00A7"/>
  <outline>
    <contour>
      <point x="308" y="144" type="line"/>
      <point x="370" y="174"/>
      <point x="420" y="205"/>
      <point x="420" y="284" type="curve" smooth="yes"/>
      <point x="420" y="470"/>
      <point x="138" y="431"/>
      <point x="138" y="570" type="curve" smooth="yes"/>
      <point x="138" y="610"/>
      <point x="166" y="652"/>
      <point x="238" y="652" type="curve" smooth="yes"/>
      <point x="290" y="652"/>
      <point x="322" y="632"/>
      <point x="354" y="606" type="curve"/>
      <point x="372" y="628" type="line"/>
      <point x="336" y="658"/>
      <point x="290" y="680"/>
      <point x="238" y="680" type="curve" smooth="yes"/>
      <point x="148" y="680"/>
      <point x="108" y="620"/>
      <point x="108" y="568" type="curve" smooth="yes"/>
      <point x="108" y="406"/>
      <point x="390" y="444"/>
      <point x="390" y="282" type="curve" smooth="yes"/>
      <point x="390" y="219"/>
      <point x="354" y="196"/>
      <point x="294" y="170" type="curve"/>
    </contour>
    <contour>
      <point x="232" y="-48" type="curve" smooth="yes"/>
      <point x="302" y="-48"/>
      <point x="368" y="2"/>
      <point x="368" y="72" type="curve" smooth="yes"/>
      <point x="368" y="240"/>
      <point x="82" y="200"/>
      <point x="82" y="358" type="curve" smooth="yes"/>
      <point x="82" y="414"/>
      <point x="118" y="442"/>
      <point x="168" y="470" type="curve"/>
      <point x="156" y="494" type="line"/>
      <point x="100" y="466"/>
      <point x="52" y="428"/>
      <point x="52" y="356" type="curve" smooth="yes"/>
      <point x="52" y="174"/>
      <point x="338" y="214"/>
      <point x="338" y="70" type="curve" smooth="yes"/>
      <point x="338" y="22"/>
      <point x="296" y="-20"/>
      <point x="232" y="-20" type="curve" smooth="yes"/>
      <point x="168" y="-20"/>
      <point x="132" y="2"/>
      <point x="98" y="34" type="curve"/>
      <point x="76" y="12" type="line"/>
      <point x="114" y="-22"/>
      <point x="164" y="-48"/>
    </contour>
  </outline>
</glyph>
<glyph name="copyright" format="1">
  <advance width="740"/>
  <unicode hex="00A9"/>
  <outline>
    <contour>
      <point x="370" y="-12" type="curve" smooth="yes"/>
      <point x="542" y="-12"/>
      <point x="688" y="120"/>
      <point x="688" y="322" type="curve" smooth="yes"/>
      <point x="688" y="522"/>
      <point x="542" y="652"/>
      <point x="370" y="652" type="curve" smooth="yes"/>
      <point x="198" y="652"/>
      <point x="52" y="522"/>
      <point x="52" y="322" type="curve" smooth="yes"/>
      <point x="52" y="120"/>
      <point x="198" y="-12"/>
    </contour>
    <contour>
      <point x="370" y="14" type="curve" smooth="yes"/>
      <point x="216" y="14"/>
      <point x="82" y="138"/>
      <point x="82" y="322" type="curve" smooth="yes"/>
      <point x="82" y="504"/>
      <point x="216" y="626"/>
      <point x="370" y="626" type="curve" smooth="yes"/>
      <point x="524" y="626"/>
      <point x="658" y="504"/>
      <point x="658" y="322" type="curve" smooth="yes"/>
      <point x="658" y="138"/>
      <point x="524" y="14"/>
    </contour>
    <contour>
      <point x="374" y="124" type="curve" smooth="yes"/>
      <point x="440" y="124"/>
      <point x="476" y="151"/>
      <point x="512" y="184" type="curve"/>
      <point x="496" y="206" type="line"/>
      <point x="464" y="177"/>
      <point x="426" y="154"/>
      <point x="376" y="154" type="curve" smooth="yes"/>
      <point x="292" y="154"/>
      <point x="236" y="218"/>
      <point x="236" y="322" type="curve" smooth="yes"/>
      <point x="236" y="416"/>
      <point x="296" y="478"/>
      <point x="378" y="478" type="curve" smooth="yes"/>
      <point x="420" y="478"/>
      <point x="448" y="462"/>
      <point x="480" y="432" type="curve"/>
      <point x="498" y="454" type="line"/>
      <point x="466" y="486"/>
      <point x="432" y="508"/>
      <point x="380" y="508" type="curve" smooth="yes"/>
      <point x="286" y="508"/>
      <point x="202" y="438"/>
      <point x="202" y="322" type="curve" smooth="yes"/>
      <point x="202" y="196"/>
      <point x="282" y="124"/>
    </contour>
  </outline>
</glyph>
<glyph name="logicalnot" format="1">
  <advance width="472"/>
  <unicode hex="00AC"/>
  <outline>
    <contour>
      <point x="406" y="112" type="line"/>
      <point x="438" y="112" type="line"/>
      <point x="438" y="344" type="line"/>
      <point x="34" y="344" type="line"/>
      <point x="34" y="316" type="line"/>
      <point x="406" y="316" type="line"/>
    </contour>
  </outline>
</glyph>
<glyph name="questiondown" format="1">
  <advance width="394"/>
  <unicode hex="00BF"/>
  <outline>
    <contour>
      <point x="202" y="-204" type="curve" smooth="yes"/>
      <point x="270" y="-204"/>
      <point x="320" y="-170"/>
      <point x="358" y="-128" type="curve"/>
      <point x="338" y="-110" type="line"/>
      <point x="304" y="-152"/>
      <point x="254" y="-176"/>
      <point x="204" y="-176" type="curve" smooth="yes"/>
      <point x="120" y="-176"/>
      <point x="84" y="-116"/>
      <point x="84" y="-52" type="curve" smooth="yes"/>
      <point x="84" y="78"/>
      <point x="252" y="136"/>
      <point x="230" y="306" type="curve"/>
      <point x="202" y="306" type="line"/>
      <point x="222" y="149"/>
      <point x="52" y="84"/>
      <point x="52" y="-54" type="curve" smooth="yes"/>
      <point x="52" y="-136"/>
      <point x="106" y="-204"/>
    </contour>
    <contour>
      <point x="212" y="412" type="curve" smooth="yes"/>
      <point x="230" y="412"/>
      <point x="248" y="426"/>
      <point x="248" y="452" type="curve" smooth="yes"/>
      <point x="248" y="476"/>
      <point x="230" y="490"/>
      <point x="212" y="490" type="curve" smooth="yes"/>
      <point x="194" y="490"/>
      <point x="176" y="476"/>
      <point x="176" y="452" type="curve" smooth="yes"/>
      <point x="176" y="426"/>
      <point x="194" y="412"/>
    </contour>
  </outline>
</glyph>
<glyph name="multiply" format="1">
  <advance width="472"/>
  <unicode hex="00D7"/>
  <outline>
    <contour>
      <point x="72" y="138" type="line"/>
      <point x="236" y="310" type="line"/>
      <point x="400" y="138" type="line"/>
      <point x="420" y="160" type="line"/>
      <point x="256" y="330" type="line"/>
      <point x="420" y="500" type="line"/>
      <point x="400" y="522" type="line"/>
      <point x="236" y="350" type="line"/>
      <point x="72" y="522" type="line"/>
      <point x="52" y="500" type="line"/>
      <point x="216" y="330" type="line"/>
      <point x="52" y="160" type="line"/>
    </contour>
  </outline>
</glyph>
<glyph name="germandbls" format="1">
  <advance width="530"/>
  <unicode hex="00DF"/>
  <outline>
    <contour>
      <point x="360" y="-12" type="curve" smooth="yes"/>
      <point x="440" y="-12"/>
      <point x="500" y="46"/>
      <point x="500" y="124" type="curve" smooth="yes"/>
      <point x="500" y="294"/>
      <point x="286" y="256"/>
      <point x="286" y="378" type="curve" smooth="yes"/>
      <point x="286" y="462"/>
      <point x="388" y="498"/>
      <point x="388" y="602" type="curve" smooth="yes"/>
      <point x="388" y="676"/>
      <point x="338" y="732"/>
      <point x="258" y="732" type="curve" smooth="yes"/>
      <point x="162" y="732"/>
      <point x="96" y="660"/>
      <point x="96" y="538" type="curve" smooth="yes"/>
      <point x="96" y="0" type="line"/>
      <point x="126" y="0" type="line"/>
      <point x="126" y="524" type="line" smooth="yes"/>
      <point x="126" y="648"/>
      <point x="178" y="704"/>
      <point x="256" y="704" type="curve" smooth="yes"/>
      <point x="322" y="704"/>
      <point x="356" y="660"/>
      <point x="356" y="600" type="curve" smooth="yes"/>
      <point x="356" y="508"/>
      <point x="254" y="476"/>
      <point x="254" y="376" type="curve" smooth="yes"/>
      <point x="254" y="230"/>
      <point x="468" y="270"/>
      <point x="468" y="122" type="curve" smooth="yes"/>
      <point x="468" y="68"/>
      <point x="432" y="16"/>
      <point x="360" y="16" type="curve" smooth="yes"/>
      <point x="316" y="16"/>
      <point x="282" y="32"/>
      <point x="244" y="64" type="curve"/>
      <point x="226" y="40" type="line"/>
      <point x="262" y="8"/>
      <point x="308" y="-12"/>
    </contour>
  </outline>
</glyph>
<glyph name="ae" format="1">
  <advance width="784"/>
  <unicode hex="00E6"/>
  <outline>
    <contour>
      <point x="206" y="-12" type="curve" smooth="yes"/>
      <point x="266" y="-12"/>
      <point x="348" y="28"/>
      <point x="410" y="90" type="curve"/>
      <point x="444" y="40"/>
      <point x="494" y="-12"/>
      <point x="582" y="-12" type="curve"/>
      <point x="654" y="-12"/>
      <point x="690" y="12"/>
      <point x="726" y="34" type="curve"/>
      <point x="712" y="60" type="line"/>
      <point x="676" y="34"/>
      <point x="638" y="16"/>
      <point x="584" y="16" type="curve" smooth="yes"/>
      <point x="482" y="16"/>
      <point x="404" y="110"/>
      <point x="406" y="238" type="curve"/>
      <point x="744" y="238" type="line"/>
      <point x="746" y="250"/>
      <point x="746" y="260"/>
      <point x="746" y="270" type="curve" smooth="yes"/>
      <point x="746" y="412"/>
      <point x="680" y="490"/>
      <point x="570" y="490" type="curve"/>
      <point x="498" y="490"/>
      <point x="434" y="440"/>
      <point x="400" y="364" type="curve"/>
      <point x="386" y="440"/>
      <point x="340" y="490"/>
      <point x="260" y="490" type="curve" smooth="yes"/>
      <point x="188" y="490"/>
      <point x="122" y="450"/>
      <point x="92" y="428" type="curve"/>
      <point x="108" y="404" type="line"/>
      <point x="138" y="428"/>
      <point x="196" y="462"/>
      <point x="258" y="462" type="curve" smooth="yes"/>
      <point x="358" y="462"/>
      <point x="378" y="376"/>
      <point x="376" y="298" type="curve"/>
      <point x="168" y="274"/>
      <point x="68" y="224"/>
      <point x="68" y="116" type="curve" smooth="yes"/>
      <point x="68" y="26"/>
      <point x="132" y="-12"/>
    </contour>
    <contour>
      <point x="208" y="16" type="curve" smooth="yes"/>
      <point x="150" y="16"/>
      <point x="100" y="44"/>
      <point x="100" y="118" type="curve" smooth="yes"/>
      <point x="100" y="200"/>
      <point x="176" y="248"/>
      <point x="376" y="272" type="curve"/>
      <point x="376" y="244" type="line" smooth="yes"/>
      <point x="376" y="196"/>
      <point x="384" y="146"/>
      <point x="398" y="116" type="curve"/>
      <point x="340" y="52"/>
      <point x="262" y="16"/>
    </contour>
    <contour>
      <point x="406" y="264" type="line"/>
      <point x="416" y="380"/>
      <point x="486" y="462"/>
      <point x="570" y="462" type="curve" smooth="yes"/>
      <point x="660" y="462"/>
      <point x="716" y="396"/>
      <point x="716" y="264" type="curve"/>
    </contour>
    <contour>
      <point x="414" y="502" type="move" name="aboveLC"/>
    </contour>
    <contour>
      <point x="428" y="-22" type="move" name="belowLC"/>
    </contour>
  </outline>
</glyph>
<glyph name="oslash" format="1">
  <advance width="532"/>
  <unicode hex="00F8"/>
  <outline>
    <contour>
      <point x="266" y="-12" type="curve" smooth="yes"/>
      <point x="380" y="-12"/>
      <point x="478" y="80"/>
      <point x="478" y="238" type="curve" smooth="yes"/>
      <point x="478" y="398"/>
      <point x="380" y="490"/>
      <point x="266" y="490" type="curve" smooth="yes"/>
      <point x="152" y="490"/>
      <point x="54" y="398"/>
      <point x="54" y="238" type="curve" smooth="yes"/>
      <point x="54" y="80"/>
      <point x="152" y="-12"/>
    </contour>
    <contour>
      <point x="266" y="16" type="curve" smooth="yes"/>
      <point x="164" y="16"/>
      <point x="86" y="106"/>
      <point x="86" y="238" type="curve" smooth="yes"/>
      <point x="86" y="370"/>
      <point x="164" y="462"/>
      <point x="266" y="462" type="curve" smooth="yes"/>
      <point x="368" y="462"/>
      <point x="446" y="370"/>
      <point x="446" y="238" type="curve" smooth="yes"/>
      <point x="446" y="106"/>
      <point x="368" y="16"/>
    </contour>
    <contour>
      <point x="68" y="-22" type="line"/>
      <point x="486" y="480" type="line"/>
      <point x="464" y="498" type="line"/>
      <point x="46" y="-4" type="line"/>
    </contour>
    <contour>
      <point x="266" y="502" type="move" name="aboveLC"/>
    </contour>
  </outline>
</glyph>
<glyph name="Tbar" format="1">
  <advance width="520"/>
  <unicode hex="0166"/>
  <outline>
    <contour>
      <point x="244" y="0" type="line"/>
      <point x="276" y="0" type="line"/>
      <point x="276" y="632" type="line"/>
      <point x="490" y="632" type="line"/>
      <point x="490" y="660" type="line"/>
      <point x="30" y="660" type="line"/>
      <point x="30" y="632" type="line"/>
      <point x="244" y="632" type="line"/>
    </contour>
    <contour>
      <point x="116" y="336" type="line"/>
      <point x="404" y="336" type="line"/>
      <point x="404" y="364" type="line"/>
      <point x="200" y="364" type="line"/>
      <point x="116" y="362" type="line"/>
    </contour>
  </outline>
</glyph>
<glyph name="Uogonek" format="1">
  <advance width="630"/>
  <unicode hex="0172"/>
  <outline>
    <contour>
      <point x="344" y="-202" type="curve" smooth="yes"/>
      <point x="364" y="-202"/>
      <point x="390" y="-192"/>
      <point x="404" y="-180" type="curve"/>
      <point x="390" y="-160" type="line"/>
      <point x="376" y="-170"/>
      <point x="364" y="-174"/>
      <point x="346" y="-174" type="curve" smooth="yes"/>
      <point x="320" y="-174"/>
      <point x="294" y="-156"/>
      <point x="294" y="-120" type="curve" smooth="yes"/>
      <point x="294" y="-84"/>
      <point x="326" y="-36"/>
      <point x="380" y="-8" type="curve" smooth="yes"/>
      <point x="456" y="30"/>
      <point x="532" y="76"/>
      <point x="532" y="246" type="curve" smooth="yes"/>
      <point x="532" y="660" type="line"/>
      <point x="502" y="660" type="line"/>
      <point x="502" y="254" type="line" smooth="yes"/>
      <point x="502" y="72"/>
      <point x="412" y="18"/>
      <point x="314" y="18" type="curve" smooth="yes"/>
      <point x="218" y="18"/>
      <point x="130" y="72"/>
      <point x="130" y="254" type="curve" smooth="yes"/>
      <point x="130" y="660" type="line"/>
      <point x="98" y="660" type="line"/>
      <point x="98" y="246" type="line" smooth="yes"/>
      <point x="98" y="46"/>
      <point x="202" y="-14"/>
      <point x="328" y="-12" type="curve"/>
      <point x="296" y="-44"/>
      <point x="264" y="-72"/>
      <point x="264" y="-122" type="curve" smooth="yes"/>
      <point x="264" y="-176"/>
      <point x="300" y="-202"/>
    </contour>
    <contour>
      <point x="314" y="682" type="move" name="aboveUC"/>
    </contour>
  </outline>
</glyph>
<glyph name="Ghook" format="1">
  <advance width="600"/>
  <unicode hex="0193"/>
  <outline>
    <contour>
      <point x="334" y="-12" type="curve" smooth="yes"/>
      <point x="420" y="-12"/>
      <point x="486" y="18"/>
      <point x="526" y="62" type="curve"/>
      <point x="526" y="318" type="line"/>
      <point x="330" y="318" type="line"/>
      <point x="330" y="290" type="line"/>
      <point x="494" y="290" type="line"/>
      <point x="494" y="72" type="line"/>
      <point x="460" y="38"/>
      <point x="400" y="18"/>
      <point x="336" y="18" type="curve" smooth="yes"/>
      <point x="182" y="18"/>
      <point x="90" y="142"/>
      <point x="90" y="332" type="curve" smooth="yes"/>
      <point x="90" y="522"/>
      <point x="186" y="642"/>
      <point x="344" y="642" type="curve" smooth="yes"/>
      <point x="418" y="642"/>
      <point x="466" y="619"/>
      <point x="500" y="592" type="curve"/>
      <point x="520" y="614" type="line"/>
      <point x="486" y="640"/>
      <point x="432" y="672"/>
      <point x="344" y="672" type="curve" smooth="yes"/>
      <point x="170" y="672"/>
      <point x="56" y="540"/>
      <point x="56" y="332" type="curve" smooth="yes"/>
      <point x="56" y="124"/>
      <point x="166" y="-12"/>
    </contour>
    <contour>
      <point x="490" y="618" type="curve"/>
      <point x="520" y="614" type="line"/>
      <point x="494" y="654"/>
      <point x="486" y="673"/>
      <point x="486" y="706" type="curve" smooth="yes"/>
      <point x="486" y="735"/>
      <point x="504" y="764"/>
      <point x="542" y="764" type="curve" smooth="yes"/>
      <point x="558" y="764"/>
      <point x="569" y="758"/>
      <point x="580" y="754" type="curve"/>
      <point x="588" y="780" type="line"/>
      <point x="575" y="786"/>
      <point x="560" y="792"/>
      <point x="544" y="792" type="curve" smooth="yes"/>
      <point x="496" y="792"/>
      <point x="456" y="763"/>
      <point x="456" y="710" type="curve" smooth="yes"/>
      <point x="456" y="677"/>
      <point x="464" y="658"/>
    </contour>
  </outline>
</glyph>
<glyph name="Gsmall" format="1">
  <advance width="482"/>
  <unicode hex="0262"/>
  <outline>
    <contour>
      <point x="274" y="-12" type="curve" smooth="yes"/>
      <point x="342" y="-12"/>
      <point x="394" y="15"/>
      <point x="426" y="46" type="curve"/>
      <point x="426" y="234" type="line"/>
      <point x="268" y="234" type="line"/>
      <point x="268" y="206" type="line"/>
      <point x="396" y="206" type="line"/>
      <point x="396" y="59" type="line"/>
      <point x="370" y="35"/>
      <point x="326" y="16"/>
      <point x="277" y="16" type="curve" smooth="yes"/>
      <point x="160" y="16"/>
      <point x="84" y="102"/>
      <point x="84" y="242" type="curve" smooth="yes"/>
      <point x="84" y="376"/>
      <point x="166" y="462"/>
      <point x="280" y="462" type="curve" smooth="yes"/>
      <point x="337" y="462"/>
      <point x="376" y="436"/>
      <point x="402" y="408" type="curve"/>
      <point x="422" y="430" type="line"/>
      <point x="394" y="458"/>
      <point x="349" y="490"/>
      <point x="280" y="490" type="curve" smooth="yes"/>
      <point x="145" y="490"/>
      <point x="54" y="393"/>
      <point x="54" y="242" type="curve" smooth="yes"/>
      <point x="54" y="84"/>
      <point x="143" y="-12"/>
    </contour>
    <contour>
      <point x="298" y="502" type="move" name="aboveUC"/>
    </contour>
    <contour>
      <point x="290" y="-22" type="move" name="belowLC"/>
    </contour>
  </outline>
</glyph>
<glyph name="istroke" format="1">
  <advance width="230"/>
  <unicode hex="0268"/>
  <outline>
    <contour>
      <point x="4" y="238" type="line"/>
      <point x="222" y="238" type="line"/>
      <point x="222" y="266" type="line"/>
      <point x="100" y="266" type="line"/>
      <point x="4" y="262" type="line"/>
    </contour>
    <component base="i" xOffset="4"/>
  </outline>
</glyph>
<glyph name="dotlessjstrokehook" format="1">
  <advance width="230"/>
  <unicode hex="0284"/>
  <outline>
    <contour>
      <point x="4" y="238" type="line"/>
      <point x="222" y="238" type="line"/>
      <point x="222" y="266" type="line"/>
      <point x="100" y="266" type="line"/>
      <point x="4" y="262" type="line"/>
    </contour>
    <component base="esh" xOffset="4"/>
  </outline>
</glyph>
<glyph name="zcurl" format="1">
  <advance width="406"/>
  <unicode hex="0291"/>
  <outline>
    <contour>
      <point x="198" y="-80" type="line"/>
      <point x="228" y="78"/>
      <point x="286" y="150"/>
      <point x="338" y="150" type="curve" smooth="yes"/>
      <point x="375" y="150"/>
      <point x="388" y="128"/>
      <point x="388" y="100" type="curve" smooth="yes"/>
      <point x="388" y="64"/>
      <point x="352" y="28"/>
      <point x="288" y="28" type="curve" smooth="yes"/>
      <point x="214" y="28"/>
      <point x="140" y="28"/>
      <point x="66" y="28" type="curve"/>
      <point x="360" y="462" type="line"/>
      <point x="360" y="478" type="line"/>
      <point x="58" y="478" type="line"/>
      <point x="58" y="450" type="line"/>
      <point x="320" y="450" type="line"/>
      <point x="26" y="16" type="line"/>
      <point x="26" y="0" type="line"/>
      <point x="282" y="0" type="line" smooth="yes"/>
      <point x="374" y="0"/>
      <point x="420" y="45"/>
      <point x="420" y="100" type="curve" smooth="yes"/>
      <point x="420" y="148"/>
      <point x="390" y="178"/>
      <point x="340" y="178" type="curve" smooth="yes"/>
      <point x="266" y="178"/>
      <point x="206" y="96"/>
      <point x="168" y="-74" type="curve"/>
    </contour>
    <contour>
      <point x="216" y="502" type="move" name="aboveLC"/>
    </contour>
  </outline>
</glyph>
<glyph name="Bsmall" format="1">
  <advance width="492"/>
  <unicode hex="0299"/>
  <outline>
    <component base="ve"/>
    <contour>
      <point x="242" y="502" type="move" name="aboveLC"/>
    </contour>
    <contour>
      <point x="264" y="-22" type="move" name="belowLC"/>
    </contour>
  </outline>
</glyph>
<glyph name="r.sups" format="1">
  <advance width="214"/>
  <unicode hex="02B3"/>
  <outline>
    <contour>
      <point x="60" y="270" type="line"/>
      <point x="90" y="270" type="line"/>
      <point x="90" y="486" type="line"/>
      <point x="116" y="544"/>
      <point x="149" y="564"/>
      <point x="180" y="564" type="curve" smooth="yes"/>
      <point x="190" y="564"/>
      <point x="202" y="562"/>
      <point x="208" y="560" type="curve"/>
      <point x="216" y="588" type="line"/>
      <point x="208" y="592"/>
      <point x="194" y="594"/>
      <point x="182" y="594" type="curve" smooth="yes"/>
      <point x="144" y="594"/>
      <point x="116" y="570"/>
      <point x="92" y="530" type="curve"/>
      <point x="88" y="530" type="line"/>
      <point x="82" y="586" type="line"/>
      <point x="60" y="586" type="line"/>
    </contour>
  </outline>
</glyph>
<glyph name="w.sups" format="1">
  <advance width="458"/>
  <unicode hex="02B7"/>
  <outline>
    <contour>
      <point x="110" y="270" type="line"/>
      <point x="148" y="270" type="line"/>
      <point x="204" y="464" type="line"/>
      <point x="228" y="556" type="line"/>
      <point x="230" y="556" type="line"/>
      <point x="256" y="464" type="line"/>
      <point x="310" y="270" type="line"/>
      <point x="348" y="270" type="line"/>
      <point x="442" y="586" type="line"/>
      <point x="412" y="586" type="line"/>
      <point x="358" y="382" type="line"/>
      <point x="332" y="296" type="line"/>
      <point x="328" y="296" type="line"/>
      <point x="304" y="382" type="line"/>
      <point x="246" y="586" type="line"/>
      <point x="212" y="586" type="line"/>
      <point x="156" y="382" type="line"/>
      <point x="132" y="296" type="line"/>
      <point x="128" y="296" type="line"/>
      <point x="104" y="382" type="line"/>
      <point x="48" y="586" type="line"/>
      <point x="16" y="586" type="line"/>
    </contour>
  </outline>
</glyph>
<glyph name="ringhalfleftmod" format="1">
  <advance width="158"/>
  <unicode hex="02BF"/>
  <outline>
    <contour>
      <point x="122" y="538" type="curve"/>
      <point x="122" y="558" type="line"/>
      <point x="74" y="558"/>
      <point x="52" y="584"/>
      <point x="52" y="622" type="curve" smooth="yes"/>
      <point x="52" y="660"/>
      <point x="74" y="686"/>
      <point x="122" y="686" type="curve"/>
      <point x="122" y="706" type="line"/>
      <point x="64" y="708"/>
      <point x="26" y="676"/>
      <point x="26" y="622" type="curve" smooth="yes"/>
      <point x="26" y="568"/>
      <point x="64" y="536"/>
    </contour>
  </outline>
</glyph>
<glyph name="glottalstopreversedmod" format="1">
  <advance width="270"/>
  <unicode hex="02C1"/>
  <outline>
    <contour>
      <point x="163" y="477" type="line"/>
      <point x="84" y="519"/>
      <point x="45" y="558"/>
      <point x="45" y="622" type="curve" smooth="yes"/>
      <point x="45" y="679"/>
      <point x="83" y="718"/>
      <point x="150" y="718" type="curve" smooth="yes"/>
      <point x="199" y="718"/>
      <point x="229" y="693"/>
      <point x="250" y="667" type="curve"/>
      <point x="267" y="686" type="line"/>
      <point x="244" y="713"/>
      <point x="208" y="743"/>
      <point x="150" y="743" type="curve" smooth="yes"/>
      <point x="74" y="743"/>
      <point x="16" y="700"/>
      <point x="16" y="621" type="curve" smooth="yes"/>
      <point x="16" y="544"/>
      <point x="66" y="502"/>
      <point x="135" y="460" type="curve"/>
      <point x="135" y="260" type="line"/>
      <point x="163" y="260" type="line"/>
    </contour>
  </outline>
</glyph>
<glyph name="colontriangularhalfmod" format="1">
  <advance width="208"/>
  <unicode hex="02D1"/>
  <outline>
    <contour>
      <point x="100" y="256" type="line"/>
      <point x="108" y="256" type="line"/>
      <point x="152" y="350" type="line"/>
      <point x="56" y="350" type="line"/>
    </contour>
  </outline>
</glyph>
<glyph name="acutecmb" format="1">
  <advance width="0"/>
  <unicode hex="0301"/>
  <outline>
    <contour>
      <point x="-52" y="572" type="line"/>
      <point x="-24" y="572" type="line"/>
      <point x="90" y="726" type="line"/>
      <point x="50" y="726" type="line"/>
    </contour>
    <contour>
      <point x="0" y="502" type="move" name="_aboveLC"/>
    </contour>
  </outline>
</glyph>
<glyph name="dblgravecmb" format="1">
  <advance width="0"/>
  <unicode hex="030F"/>
  <outline>
    <contour>
      <point x="0" y="502" type="move" name="_aboveLC"/>
    </contour>
    <contour>
      <point x="50" y="570" type="line"/>
      <point x="76" y="570" type="line"/>
      <point x="-6" y="726" type="line"/>
      <point x="-42" y="726" type="line"/>
    </contour>
    <contour>
      <point x="-52" y="570" type="line"/>
      <point x="-134" y="726" type="line"/>
      <point x="-170" y="726" type="line"/>
      <point x="-78" y="570" type="line"/>
    </contour>
  </outline>
</glyph>
<glyph name="dieresisbelowcmb" format="1">
  <advance width="0"/>
  <unicode hex="0324"/>
  <outline>
    <contour>
      <point x="-76" y="-188" type="curve" smooth="yes"/>
      <point x="-58" y="-188"/>
      <point x="-44" y="-174"/>
      <point x="-44" y="-156" type="curve" smooth="yes"/>
      <point x="-44" y="-138"/>
      <point x="-58" y="-124"/>
      <point x="-76" y="-124" type="curve" smooth="yes"/>
      <point x="-94" y="-124"/>
      <point x="-108" y="-138"/>
      <point x="-108" y="-156" type="curve" smooth="yes"/>
      <point x="-108" y="-174"/>
      <point x="-94" y="-188"/>
    </contour>
    <contour>
      <point x="76" y="-188" type="curve" smooth="yes"/>
      <point x="94" y="-188"/>
      <point x="108" y="-174"/>
      <point x="108" y="-156" type="curve" smooth="yes"/>
      <point x="108" y="-138"/>
      <point x="94" y="-124"/>
      <point x="76" y="-124" type="curve" smooth="yes"/>
      <point x="58" y="-124"/>
      <point x="44" y="-138"/>
      <point x="44" y="-156" type="curve" smooth="yes"/>
      <point x="44" y="-174"/>
      <point x="58" y="-188"/>
    </contour>
    <contour>
      <point x="0" y="-22" type="move" name="_belowLC"/>
    </contour>
  </outline>
</glyph>
<glyph name="commabelowcmb" format="1">
  <advance width="0"/>
  <unicode hex="0326"/>
  <outline>
    <contour>
      <point x="0" y="-22" type="move" name="_belowLC"/>
    </contour>
    <contour>
      <point x="-34" y="-52" type="curve"/>
      <point x="-44" y="-78" type="line"/>
      <point x="4" y="-82"/>
      <point x="34" y="-94"/>
      <point x="34" y="-126" type="curve" smooth="yes"/>
      <point x="34" y="-156"/>
      <point x="8" y="-174"/>
      <point x="-80" y="-180" type="curve"/>
      <point x="-74" y="-206" type="line"/>
      <point x="16" y="-200"/>
      <point x="64" y="-174"/>
      <point x="64" y="-124" type="curve" smooth="yes"/>
      <point x="64" y="-82"/>
      <point x="38" y="-64"/>
    </contour>
  </outline>
</glyph>
<glyph name="caronbelowcmb" format="1">
  <advance width="0"/>
  <unicode hex="032C"/>
  <outline>
    <contour>
      <point x="-14" y="-192" type="line"/>
      <point x="14" y="-192" type="line"/>
      <point x="108" y="-58" type="line"/>
      <point x="80" y="-58" type="line"/>
      <point x="2" y="-160" type="line"/>
      <point x="-2" y="-160" type="line"/>
      <point x="-80" y="-58" type="line"/>
      <point x="-108" y="-58" type="line"/>
    </contour>
    <contour>
      <point x="0" y="-22" type="move" name="_belowLC"/>
    </contour>
  </outline>
</glyph>
<glyph name="tildeoverlaycmb" format="1">
  <advance width="0"/>
  <unicode hex="0334"/>
  <outline>
    <component base="tildecmb" yOffset="-384"/>
    <contour>
      <point x="0" y="240" type="move" name="_center"/>
    </contour>
  </outline>
</glyph>
<glyph name="iotasubscript" format="1">
  <advance width="532"/>
  <unicode hex="037A"/>
  <outline>
    <component base="iotasubscriptcmb" xOffset="276"/>
    <contour>
      <point x="276" y="-22" type="move" name="_belowLC"/>
    </contour>
  </outline>
</glyph>
<glyph name="omega" format="1">
  <advance width="652"/>
  <unicode hex="03C9"/>
  <outline>
    <contour>
      <point x="326" y="502" type="move" name="aboveLC"/>
    </contour>
    <contour>
      <point x="326" y="-22" type="move" name="belowLC"/>
    </contour>
    <contour>
      <point x="202" y="-12" type="curve" smooth="yes"/>
      <point x="254" y="-12"/>
      <point x="302" y="16"/>
      <point x="324" y="72" type="curve"/>
      <point x="328" y="72" type="line"/>
      <point x="350" y="16"/>
      <point x="398" y="-12"/>
      <point x="450" y="-12" type="curve" smooth="yes"/>
      <point x="534" y="-12"/>
      <point x="598" y="55"/>
      <point x="598" y="212" type="curve" smooth="yes"/>
      <point x="598" y="334"/>
      <point x="560" y="408"/>
      <point x="502" y="490" type="curve"/>
      <point x="476" y="474" type="line"/>
      <point x="536" y="389"/>
      <point x="566" y="326"/>
      <point x="566" y="212" type="curve" smooth="yes"/>
      <point x="566" y="75"/>
      <point x="516" y="16"/>
      <point x="448" y="16" type="curve" smooth="yes"/>
      <point x="397" y="16"/>
      <point x="340" y="48"/>
      <point x="340" y="160" type="curve" smooth="yes"/>
      <point x="340" y="196"/>
      <point x="340" y="242"/>
      <point x="344" y="290" type="curve"/>
      <point x="306" y="290" type="line"/>
      <point x="310" y="242"/>
      <point x="310" y="196"/>
      <point x="310" y="160" type="curve" smooth="yes"/>
      <point x="310" y="48"/>
      <point x="255" y="16"/>
      <point x="204" y="16" type="curve" smooth="yes"/>
      <point x="140" y="16"/>
      <point x="84" y="80"/>
      <point x="84" y="206" type="curve" smooth="yes"/>
      <point x="84" y="324"/>
      <point x="118" y="393"/>
      <point x="178" y="472" type="curve"/>
      <point x="154" y="490" type="line"/>
      <point x="98" y="411"/>
      <point x="54" y="330"/>
      <point x="54" y="210" type="curve" smooth="yes"/>
      <point x="54" y="58"/>
      <point x="124" y="-12"/>
    </contour>
  </outline>
</glyph>
<glyph name="kai" format="1">
  <advance width="452"/>
  <unicode hex="03D7"/>
  <outline>
    <contour>
      <point x="314" y="-186" type="line"/>
      <point x="360" y="-134"/>
      <point x="410" y="-70"/>
      <point x="454" y="0" type="curve"/>
      <point x="424" y="0" type="line"/>
      <point x="384" y="-60"/>
      <point x="336" y="-124"/>
      <point x="280" y="-180" type="curve"/>
    </contour>
    <component base="kappa"/>
  </outline>
</glyph>
<glyph name="zhe" format="1">
  <advance width="616"/>
  <unicode hex="0436"/>
  <outline>
    <contour>
      <point x="18" y="0" type="line"/>
      <point x="52" y="0" type="line"/>
      <point x="188" y="236" type="line"/>
      <point x="294" y="236" type="line"/>
      <point x="294" y="0" type="line"/>
      <point x="322" y="0" type="line"/>
      <point x="322" y="236" type="line"/>
      <point x="428" y="236" type="line"/>
      <point x="564" y="0" type="line"/>
      <point x="598" y="0" type="line"/>
      <point x="444" y="264" type="line"/>
      <point x="322" y="264" type="line"/>
      <point x="322" y="478" type="line"/>
      <point x="294" y="478" type="line"/>
      <point x="294" y="264" type="line"/>
      <point x="172" y="264" type="line"/>
    </contour>
    <contour>
      <point x="174" y="240" type="line"/>
      <point x="202" y="243" type="line"/>
      <point x="146" y="386" type="line" smooth="yes"/>
      <point x="114" y="468"/>
      <point x="80" y="490"/>
      <point x="42" y="490" type="curve" smooth="yes"/>
      <point x="35" y="490"/>
      <point x="26" y="488"/>
      <point x="22" y="486" type="curve"/>
      <point x="30" y="456" type="line"/>
      <point x="36" y="458"/>
      <point x="37" y="458"/>
      <point x="44" y="458" type="curve" smooth="yes"/>
      <point x="70" y="458"/>
      <point x="93" y="446"/>
      <point x="120" y="378" type="curve" smooth="yes"/>
    </contour>
    <contour>
      <point x="442" y="240" type="line"/>
      <point x="496" y="378" type="line" smooth="yes"/>
      <point x="523" y="446"/>
      <point x="546" y="458"/>
      <point x="572" y="458" type="curve" smooth="yes"/>
      <point x="579" y="458"/>
      <point x="580" y="458"/>
      <point x="586" y="456" type="curve"/>
      <point x="594" y="486" type="line"/>
      <point x="590" y="488"/>
      <point x="581" y="490"/>
      <point x="574" y="490" type="curve" smooth="yes"/>
      <point x="536" y="490"/>
      <point x="502" y="468"/>
      <point x="470" y="386" type="curve" smooth="yes"/>
      <point x="414" y="243" type="line"/>
    </contour>
    <contour>
      <point x="309" y="502" type="move" name="aboveLC"/>
    </contour>
  </outline>
</glyph>
<glyph name="dje" format="1">
  <advance width="528"/>
  <unicode hex="0452"/>
  <outline>
    <contour>
      <point x="290" y="-234" type="curve" smooth="yes"/>
      <point x="402" y="-234"/>
      <point x="470" y="-150"/>
      <point x="470" y="164" type="curve" smooth="yes"/>
      <point x="470" y="376"/>
      <point x="406" y="458"/>
      <point x="294" y="458" type="curve" smooth="yes"/>
      <point x="228" y="458"/>
      <point x="176" y="424"/>
      <point x="124" y="372" type="curve"/>
      <point x="126" y="476" type="line"/>
      <point x="126" y="722" type="line"/>
      <point x="96" y="722" type="line"/>
      <point x="96" y="0" type="line"/>
      <point x="126" y="0" type="line"/>
      <point x="126" y="338" type="line"/>
      <point x="188" y="402"/>
      <point x="234" y="430"/>
      <point x="292" y="430" type="curve" smooth="yes"/>
      <point x="390" y="430"/>
      <point x="438" y="354"/>
      <point x="438" y="162" type="curve" smooth="yes"/>
      <point x="438" y="-130"/>
      <point x="376" y="-206"/>
      <point x="292" y="-206" type="curve" smooth="yes"/>
      <point x="276" y="-206"/>
      <point x="260" y="-200"/>
      <point x="250" y="-196" type="curve"/>
      <point x="242" y="-222" type="line"/>
      <point x="253" y="-228"/>
      <point x="274" y="-234"/>
    </contour>
    <contour>
      <point x="18" y="584" type="line"/>
      <point x="318" y="584" type="line"/>
      <point x="318" y="612" type="line"/>
      <point x="96" y="612" type="line"/>
      <point x="18" y="608" type="line"/>
    </contour>
  </outline>
</glyph>
<glyph name="Ghestroke" format="1">
  <advance width="500"/>
  <unicode hex="0492"/>
  <outline>
    <contour>
      <point x="38" y="326" type="line"/>
      <point x="320" y="326" type="line"/>
      <point x="320" y="354" type="line"/>
      <point x="122" y="354" type="line"/>
      <point x="38" y="352" type="line"/>
    </contour>
    <component base="Gamma" xOffset="20"/>
  </outline>
</glyph>
<glyph name="ghestroke" format="1">
  <advance width="398"/>
  <unicode hex="0493"/>
  <outline>
    <contour>
      <point x="34" y="228" type="line"/>
      <point x="274" y="228" type="line"/>
      <point x="274" y="256" type="line"/>
      <point x="100" y="256" type="line"/>
      <point x="34" y="252" type="line"/>
    </contour>
    <component base="ghe" xOffset="4"/>
  </outline>
</glyph>
<glyph name="Zhedescender" format="1">
  <advance width="800"/>
  <unicode hex="0496"/>
  <outline>
    <contour>
      <point x="732" y="-188" type="line"/>
      <point x="758" y="-188" type="line"/>
      <point x="764" y="12" type="line"/>
      <point x="764" y="28" type="line"/>
      <point x="708" y="28" type="line"/>
      <point x="708" y="0" type="line"/>
      <point x="732" y="0" type="line"/>
    </contour>
    <component base="Zhe"/>
  </outline>
</glyph>
<glyph name="kadescender" format="1">
  <advance width="494"/>
  <unicode hex="049B"/>
  <outline>
    <contour>
      <point x="438" y="-172" type="line"/>
      <point x="464" y="-172" type="line"/>
      <point x="468" y="12" type="line"/>
      <point x="468" y="28" type="line"/>
      <point x="414" y="28" type="line"/>
      <point x="414" y="0" type="line"/>
      <point x="438" y="0" type="line"/>
    </contour>
    <component base="ka"/>
  </outline>
</glyph>
<glyph name="Kabashkir" format="1">
  <advance width="690"/>
  <unicode hex="04A0"/>
  <outline>
    <contour>
      <point x="30" y="632" type="line"/>
      <point x="244" y="632" type="line"/>
      <point x="276" y="660" type="line"/>
      <point x="30" y="660" type="line"/>
    </contour>
    <component base="Ka" xOffset="144"/>
  </outline>
</glyph>
<glyph name="m.sups" format="1">
  <advance width="544"/>
  <unicode hex="1D50"/>
  <outline>
    <contour>
      <point x="60" y="270" type="line"/>
      <point x="88" y="270" type="line"/>
      <point x="88" y="508" type="line"/>
      <point x="128" y="550"/>
      <point x="156" y="568"/>
      <point x="186" y="568" type="curve" smooth="yes"/>
      <point x="244" y="568"/>
      <point x="260" y="528"/>
      <point x="260" y="468" type="curve" smooth="yes"/>
      <point x="260" y="270" type="line"/>
      <point x="288" y="270" type="line"/>
      <point x="288" y="508" type="line"/>
      <point x="328" y="550"/>
      <point x="356" y="568"/>
      <point x="386" y="568" type="curve" smooth="yes"/>
      <point x="444" y="568"/>
      <point x="460" y="528"/>
      <point x="460" y="468" type="curve" smooth="yes"/>
      <point x="460" y="270" type="line"/>
      <point x="488" y="270" type="line"/>
      <point x="488" y="474" type="line" smooth="yes"/>
      <point x="488" y="544"/>
      <point x="462" y="594"/>
      <point x="392" y="594" type="curve" smooth="yes"/>
      <point x="350" y="594"/>
      <point x="312" y="564"/>
      <point x="280" y="530" type="curve"/>
      <point x="268" y="574"/>
      <point x="236" y="594"/>
      <point x="192" y="594" type="curve" smooth="yes"/>
      <point x="150" y="594"/>
      <point x="118" y="570"/>
      <point x="90" y="538" type="curve"/>
      <point x="86" y="538" type="line"/>
      <point x="82" y="586" type="line"/>
      <point x="60" y="586" type="line"/>
    </contour>
  </outline>
</glyph>
<glyph name="lenis" format="1">
  <advance width="532"/>
  <unicode hex="1FBD"/>
  <outline>
    <component base="leniscmb" xOffset="266"/>
    <contour>
      <point x="266.0" y="502.0" type="move" name="_aboveLC"/>
    </contour>
  </outline>
</glyph>
<glyph name="iotaadscript" format="1">
  <advance width="230"/>
  <unicode hex="1FBE"/>
  <outline>
    <contour>
      <point x="150" y="-12" type="curve" smooth="yes"/>
      <point x="165" y="-12"/>
      <point x="177" y="-8"/>
      <point x="186" y="-4" type="curve"/>
      <point x="180" y="22" type="line"/>
      <point x="168" y="18"/>
      <point x="161" y="16"/>
      <point x="152" y="16" type="curve" smooth="yes"/>
      <point x="136" y="16"/>
      <point x="124" y="28"/>
      <point x="124" y="52" type="curve" smooth="yes"/>
      <point x="124" y="172"/>
      <point x="124" y="278"/>
      <point x="126" y="398" type="curve"/>
      <point x="96" y="398" type="line"/>
      <point x="96" y="58" type="line" smooth="yes"/>
      <point x="96" y="8"/>
      <point x="116" y="-12"/>
    </contour>
  </outline>
</glyph>
<glyph name="dialytikatilde" format="1">
  <advance width="532"/>
  <unicode hex="1FC1"/>
  <outline>
    <component base="dieresistilde" xOffset="266"/>
    <contour>
      <point x="266" y="502" type="move" name="_aboveLC"/>
    </contour>
  </outline>
</glyph>
<glyph name="lenistilde" format="1">
  <advance width="532"/>
  <unicode hex="1FCF"/>
  <outline>
    <component base="lenistildecmb" xOffset="266"/>
    <contour>
      <point x="266" y="502" type="move" name="_aboveLC"/>
    </contour>
  </outline>
</glyph>
<glyph name="aspergrave" format="1">
  <advance width="532"/>
  <unicode hex="1FDD"/>
  <outline>
    <component base="aspergravecmb" xOffset="266"/>
    <contour>
      <point x="266" y="502" type="move" name="_aboveLC"/>
    </contour>
  </outline>
</glyph>
<glyph name="aspertilde" format="1">
  <advance width="532"/>
  <unicode hex="1FDF"/>
  <outline>
    <component base="aspertildecmb" xOffset="266"/>
    <contour>
      <point x="266" y="502" type="move" name="_aboveLC"/>
    </contour>
  </outline>
</glyph>
<glyph name="dialytikagrave" format="1">
  <advance width="532"/>
  <unicode hex="1FED"/>
  <outline>
    <component base="dialytikagravecmb" xOffset="266"/>
    <contour>
      <point x="266" y="502" type="move" name="_aboveLC"/>
    </contour>
  </outline>
</glyph>
<glyph name="varia" format="1">
  <advance width="532"/>
  <unicode hex="1FEF"/>
  <outline>
    <component base="variacmb" xOffset="266"/>
    <contour>
      <point x="266" y="502" type="move" name="_aboveLC"/>
    </contour>
  </outline>
</glyph>
<glyph name="oxia" format="1">
  <advance width="532"/>
  <unicode hex="1FFD"/>
  <outline>
    <component base="tonoscmb" xOffset="266"/>
    <contour>
      <point x="266" y="502" type="move" name="_aboveLC"/>
    </contour>
  </outline>
</glyph>
<glyph name="guilsinglleft" format="1">
  <advance width="254"/>
  <unicode hex="2039"/>
  <outline>
    <contour>
      <point x="180" y="74" type="line"/>
      <point x="200" y="90" type="line"/>
      <point x="76" y="252" type="line"/>
      <point x="200" y="412" type="line"/>
      <point x="180" y="430" type="line"/>
      <point x="42" y="266" type="line"/>
      <point x="42" y="238" type="line"/>
    </contour>
  </outline>
</glyph>
<glyph name="overscore" format="1">
  <advance width="500"/>
  <unicode hex="203E"/>
  <outline>
    <contour>
      <point x="12" y="570" type="line"/>
      <point x="488" y="570" type="line"/>
      <point x="488" y="602" type="line"/>
      <point x="12" y="602" type="line"/>
    </contour>
  </outline>
</glyph>
<glyph name="schwa.sups" format="1">
  <advance width="328"/>
  <unicode hex="2094"/>
  <outline>
    <contour>
      <point x="156" y="262" type="curve" smooth="yes"/>
      <point x="236" y="262"/>
      <point x="294" y="326"/>
      <point x="294" y="428" type="curve" smooth="yes"/>
      <point x="294" y="536"/>
      <point x="240" y="594"/>
      <point x="152" y="594" type="curve" smooth="yes"/>
      <point x="106" y="594"/>
      <point x="78" y="576"/>
      <point x="52" y="560" type="curve"/>
      <point x="66" y="538" type="line"/>
      <point x="90" y="554"/>
      <point x="116" y="568"/>
      <point x="154" y="568" type="curve" smooth="yes"/>
      <point x="228" y="568"/>
      <point x="266" y="512"/>
      <point x="264" y="438" type="curve"/>
      <point x="30" y="438" type="line"/>
      <point x="28" y="422"/>
      <point x="28" y="418"/>
      <point x="28" y="408" type="curve" smooth="yes"/>
      <point x="28" y="354"/>
      <point x="52" y="262"/>
    </contour>
    <contour>
      <point x="156" y="288" type="curve" smooth="yes"/>
      <point x="84" y="288"/>
      <point x="56" y="344"/>
      <point x="56" y="412" type="curve"/>
      <point x="264" y="412" type="line"/>
      <point x="260" y="330"/>
      <point x="218" y="288"/>
    </contour>
  </outline>
</glyph>
<glyph name="colonmonetary" format="1">
  <advance width="472"/>
  <unicode hex="20A1"/>
  <outline>
    <contour>
      <point x="152" y="-110" type="line"/>
      <point x="180" y="-110" type="line"/>
      <point x="282" y="750" type="line"/>
      <point x="254" y="750" type="line"/>
    </contour>
    <contour>
      <point x="252" y="-110" type="line"/>
      <point x="280" y="-110" type="line"/>
      <point x="382" y="750" type="line"/>
      <point x="354" y="750" type="line"/>
    </contour>
    <contour>
      <point x="284" y="-12" type="curve" smooth="yes"/>
      <point x="358" y="-12"/>
      <point x="407" y="24"/>
      <point x="448" y="82" type="curve"/>
      <point x="426" y="100" type="line"/>
      <point x="385" y="44"/>
      <point x="344" y="16"/>
      <point x="286" y="16" type="curve" smooth="yes"/>
      <point x="168" y="16"/>
      <point x="100" y="138"/>
      <point x="100" y="322" type="curve" smooth="yes"/>
      <point x="100" y="506"/>
      <point x="172" y="624"/>
      <point x="300" y="624" type="curve" smooth="yes"/>
      <point x="348" y="624"/>
      <point x="386" y="596"/>
      <point x="416" y="554" type="curve"/>
      <point x="438" y="574" type="line"/>
      <point x="410" y="614"/>
      <point x="360" y="652"/>
      <point x="300" y="652" type="curve" smooth="yes"/>
      <point x="156" y="652"/>
      <point x="66" y="524"/>
      <point x="66" y="322" type="curve" smooth="yes"/>
      <point x="66" y="120"/>
      <point x="152" y="-12"/>
    </contour>
  </outline>
</glyph>
<glyph name="triangleblackright" format="1">
  <advance width="554"/>
  <unicode hex="25B6"/>
  <outline>
    <contour>
      <point x="60" y="30" type="line"/>
      <point x="62" y="30" type="line"/>
      <point x="532" y="280" type="line"/>
      <point x="532" y="284" type="line"/>
      <point x="62" y="532" type="line"/>
      <point x="60" y="532" type="line"/>
    </contour>
  </outline>
</glyph>
<glyph name="trianglewhiteright" format="1">
  <advance width="554"/>
  <unicode hex="25B7"/>
  <outline>
    <contour>
      <point x="60" y="30" type="line"/>
      <point x="62" y="30" type="line"/>
      <point x="532" y="280" type="line"/>
      <point x="532" y="284" type="line"/>
      <point x="62" y="532" type="line"/>
      <point x="60" y="532" type="line"/>
    </contour>
    <contour>
      <point x="90" y="84" type="line"/>
      <point x="90" y="480" type="line"/>
      <point x="470" y="282" type="line"/>
    </contour>
  </outline>
</glyph>
<glyph name="triangleblackdown" format="1">
  <advance width="554"/>
  <unicode hex="25BC"/>
  <outline>
    <contour>
      <point x="276" y="40" type="line"/>
      <point x="280" y="40" type="line"/>
      <point x="528" y="508" type="line"/>
      <point x="528" y="510" type="line"/>
      <point x="26" y="510" type="line"/>
      <point x="26" y="508" type="line"/>
    </contour>
  </outline>
</glyph>
<glyph name="brackhalfbotleft" format="1">
  <advance width="270"/>
  <unicode hex="2E24"/>
  <outline>
    <contour>
      <point x="100" y="-152" type="line"/>
      <point x="252" y="-152" type="line"/>
      <point x="252" y="-130" type="line"/>
      <point x="124" y="-130" type="line"/>
      <point x="124" y="278" type="line"/>
      <point x="100" y="278" type="line"/>
    </contour>
  </outline>
</glyph>
<glyph name="brackhalfbotright" format="1">
  <advance width="270"/>
  <unicode hex="2E25"/>
  <outline>
    <contour>
      <point x="18" y="-152" type="line"/>
      <point x="170" y="-152" type="line"/>
      <point x="170" y="278" type="line"/>
      <point x="146" y="278" type="line"/>
      <point x="146" y="-130" type="line"/>
      <point x="18" y="-130" type="line"/>
    </contour>
  </outline>
</glyph>
<glyph name="A.sups" format="1">
  <advance width="343"/>
  <outline>
    <contour>
      <point x="3" y="270" type="line"/>
      <point x="32" y="270" type="line"/>
      <point x="122" y="525" type="line" smooth="yes"/>
      <point x="140" y="577"/>
      <point x="155" y="621"/>
      <point x="171" y="674" type="curve"/>
      <point x="173" y="674" type="line"/>
      <point x="189" y="623"/>
      <point x="204" y="578"/>
      <point x="222" y="525" type="curve" smooth="yes"/>
      <point x="310" y="270" type="line"/>
      <point x="341" y="270" type="line"/>
      <point x="187" y="702" type="line"/>
      <point x="158" y="702" type="line"/>
    </contour>
    <contour>
      <point x="74" y="419" type="line"/>
      <point x="269" y="419" type="line"/>
      <point x="269" y="444" type="line"/>
      <point x="74" y="444" type="line"/>
    </contour>
  </outline>
</glyph>
<glyph name="B.sups" format="1">
  <advance width="379"/>
  <outline>
    <contour>
      <point x="63" y="270" type="line"/>
      <point x="189" y="270" type="line" smooth="yes"/>
      <point x="288" y="270"/>
      <point x="352" y="312"/>
      <point x="352" y="396" type="curve" smooth="yes"/>
      <point x="352" y="456"/>
      <point x="312" y="491"/>
      <point x="247" y="501" type="curve"/>
      <point x="247" y="504" type="line"/>
      <point x="298" y="516"/>
      <point x="325" y="552"/>
      <point x="325" y="597" type="curve" smooth="yes"/>
      <point x="325" y="669"/>
      <point x="269" y="702"/>
      <point x="181" y="702" type="curve" smooth="yes"/>
      <point x="63" y="702" type="line"/>
    </contour>
    <contour>
      <point x="92" y="512" type="line"/>
      <point x="92" y="678" type="line"/>
      <point x="173" y="678" type="line" smooth="yes"/>
      <point x="254" y="678"/>
      <point x="296" y="654"/>
      <point x="296" y="598" type="curve" smooth="yes"/>
      <point x="296" y="540"/>
      <point x="260" y="512"/>
      <point x="169" y="512" type="curve" smooth="yes"/>
    </contour>
    <contour>
      <point x="92" y="294" type="line"/>
      <point x="92" y="488" type="line"/>
      <point x="181" y="488" type="line" smooth="yes"/>
      <point x="271" y="488"/>
      <point x="323" y="458"/>
      <point x="323" y="395" type="curve" smooth="yes"/>
      <point x="323" y="322"/>
      <point x="269" y="294"/>
      <point x="181" y="294" type="curve" smooth="yes"/>
    </contour>
  </outline>
</glyph>
<glyph name="Be" format="1">
  <advance width="564"/>
  <outline>
    <contour>
      <point x="100" y="0" type="line"/>
      <point x="290" y="0" type="line" smooth="yes"/>
      <point x="440" y="0"/>
      <point x="518" y="66"/>
      <point x="518" y="192" type="curve" smooth="yes"/>
      <point x="518" y="314"/>
      <point x="428" y="366"/>
      <point x="286" y="366" type="curve" smooth="yes"/>
      <point x="132" y="366" type="line"/>
      <point x="132" y="632" type="line"/>
      <point x="474" y="632" type="line"/>
      <point x="474" y="660" type="line"/>
      <point x="100" y="660" type="line"/>
    </contour>
    <contour>
      <point x="132" y="28" type="line"/>
      <point x="132" y="338" type="line"/>
      <point x="274" y="338" type="line" smooth="yes"/>
      <point x="414" y="338"/>
      <point x="486" y="294"/>
      <point x="486" y="190" type="curve" smooth="yes"/>
      <point x="486" y="78"/>
      <point x="416" y="28"/>
      <point x="278" y="28" type="curve" smooth="yes"/>
    </contour>
  </outline>
</glyph>
<glyph name="Bstroke" format="1">
  <advance width="582"/>
  <outline>
    <contour>
      <point x="112" y="0" type="line"/>
      <point x="296" y="0" type="line" smooth="yes"/>
      <point x="446" y="0"/>
      <point x="540" y="66"/>
      <point x="540" y="192" type="curve" smooth="yes"/>
      <point x="540" y="284"/>
      <point x="478" y="338"/>
      <point x="380" y="352" type="curve"/>
      <point x="380" y="356" type="line"/>
      <point x="458" y="376"/>
      <point x="498" y="430"/>
      <point x="498" y="500" type="curve" smooth="yes"/>
      <point x="498" y="608"/>
      <point x="416" y="660"/>
      <point x="284" y="660" type="curve" smooth="yes"/>
      <point x="112" y="660" type="line"/>
    </contour>
    <contour>
      <point x="144" y="366" type="line"/>
      <point x="144" y="632" type="line"/>
      <point x="270" y="632" type="line" smooth="yes"/>
      <point x="398" y="632"/>
      <point x="466" y="594"/>
      <point x="466" y="504" type="curve" smooth="yes"/>
      <point x="466" y="412"/>
      <point x="408" y="366"/>
      <point x="264" y="366" type="curve" smooth="yes"/>
    </contour>
    <contour>
      <point x="144" y="28" type="line"/>
      <point x="144" y="338" type="line"/>
      <point x="284" y="338" type="line" smooth="yes"/>
      <point x="426" y="338"/>
      <point x="508" y="290"/>
      <point x="508" y="190" type="curve" smooth="yes"/>
      <point x="508" y="78"/>
      <point x="422" y="28"/>
      <point x="284" y="28" type="curve" smooth="yes"/>
    </contour>
    <contour>
      <point x="34" y="178" type="line"/>
      <point x="316" y="178" type="line"/>
      <point x="316" y="206" type="line"/>
      <point x="113" y="206" type="line"/>
      <point x="34" y="204" type="line"/>
    </contour>
  </outline>
</glyph>
<glyph name="Che.sc" format="1">
  <advance width="511"/>
  <outline>
    <contour>
      <point x="261" y="228" type="curve"/>
      <point x="301" y="228"/>
      <point x="349" y="236"/>
      <point x="380" y="245" type="curve"/>
      <point x="380" y="0" type="line"/>
      <point x="411" y="0" type="line"/>
      <point x="411" y="510" type="line"/>
      <point x="380" y="510" type="line"/>
      <point x="380" y="271" type="line"/>
      <point x="350" y="262"/>
      <point x="302" y="256"/>
      <point x="263" y="256" type="curve" smooth="yes"/>
      <point x="167" y="256"/>
      <point x="103" y="290"/>
      <point x="103" y="380" type="curve"/>
      <point x="103" y="510" type="line"/>
      <point x="72" y="510" type="line"/>
      <point x="72" y="380" type="line"/>
      <point x="72" y="273"/>
      <point x="150" y="228"/>
    </contour>
  </outline>
</glyph>
<glyph name="Chedescender" format="1">
  <advance width="576"/>
  <outline>
    <contour>
      <point x="508" y="-188" type="line"/>
      <point x="534" y="-188" type="line"/>
      <point x="540" y="12" type="line"/>
      <point x="540" y="28" type="line"/>
      <point x="462" y="28" type="line"/>
      <point x="462" y="0" type="line"/>
      <point x="508" y="0" type="line"/>
    </contour>
    <component base="Che"/>
  </outline>
</glyph>
<glyph name="Chedescender.sc" format="1">
  <advance width="576"/>
  <outline>
    <contour>
      <point x="508" y="-188" type="line"/>
      <point x="534" y="-188" type="line"/>
      <point x="540" y="12" type="line"/>
      <point x="540" y="28" type="line"/>
      <point x="462" y="28" type="line"/>
      <point x="462" y="0" type="line"/>
      <point x="508" y="0" type="line"/>
    </contour>
    <component base="Che"/>
  </outline>
</glyph>
<glyph name="D.sc" format="1">
  <advance width="534"/>
  <outline>
    <contour>
      <point x="100" y="0" type="line"/>
      <point x="226" y="0" type="line" smooth="yes"/>
      <point x="398" y="0"/>
      <point x="478" y="103"/>
      <point x="478" y="256" type="curve" smooth="yes"/>
      <point x="478" y="409"/>
      <point x="398" y="510"/>
      <point x="226" y="510" type="curve" smooth="yes"/>
      <point x="100" y="510" type="line"/>
    </contour>
    <contour>
      <point x="132" y="26" type="line"/>
      <point x="132" y="483" type="line"/>
      <point x="222" y="483" type="line" smooth="yes"/>
      <point x="378" y="483"/>
      <point x="444" y="389"/>
      <point x="444" y="256" type="curve" smooth="yes"/>
      <point x="444" y="113"/>
      <point x="378" y="26"/>
      <point x="222" y="26" type="curve" smooth="yes"/>
    </contour>
    <contour>
      <point x="273" y="562" type="move" name="aboveUC"/>
    </contour>
    <contour>
      <point x="268" y="-22" type="move" name="belowLC"/>
    </contour>
  </outline>
</glyph>
<glyph name="D.sups" format="1">
  <advance width="398"/>
  <outline>
    <contour>
      <point x="63" y="270" type="line"/>
      <point x="165" y="270" type="line" smooth="yes"/>
      <point x="299" y="270"/>
      <point x="363" y="357"/>
      <point x="363" y="488" type="curve" smooth="yes"/>
      <point x="363" y="617"/>
      <point x="299" y="702"/>
      <point x="165" y="702" type="curve" smooth="yes"/>
      <point x="63" y="702" type="line"/>
    </contour>
    <contour>
      <point x="92" y="295" type="line"/>
      <point x="92" y="677" type="line"/>
      <point x="162" y="677" type="line" smooth="yes"/>
      <point x="280" y="677"/>
      <point x="332" y="601"/>
      <point x="332" y="488" type="curve" smooth="yes"/>
      <point x="332" y="374"/>
      <point x="281" y="295"/>
      <point x="165" y="295" type="curve" smooth="yes"/>
    </contour>
  </outline>
</glyph>
<glyph name="De" format="1">
  <advance width="612"/>
  <outline>
    <contour>
      <point x="476" y="0" type="line"/>
      <point x="508" y="0" type="line"/>
      <point x="508" y="660" type="line"/>
      <point x="220" y="660" type="line"/>
      <point x="196" y="506"/>
      <point x="182" y="415"/>
      <point x="156" y="272" type="curve" smooth="yes"/>
      <point x="122" y="86"/>
      <point x="92" y="40"/>
      <point x="66" y="28" type="curve"/>
      <point x="92" y="14" type="line"/>
      <point x="120" y="30"/>
      <point x="150" y="68"/>
      <point x="186" y="264" type="curve" smooth="yes"/>
      <point x="211" y="399"/>
      <point x="222" y="494"/>
      <point x="246" y="632" type="curve"/>
      <point x="476" y="632" type="line"/>
    </contour>
    <contour>
      <point x="42" y="-188" type="line"/>
      <point x="68" y="-188" type="line"/>
      <point x="68" y="0" type="line"/>
      <point x="566" y="0" type="line"/>
      <point x="566" y="28" type="line"/>
      <point x="36" y="28" type="line"/>
      <point x="36" y="12" type="line"/>
    </contour>
    <contour>
      <point x="544" y="-188" type="line"/>
      <point x="570" y="-188" type="line"/>
      <point x="576" y="12" type="line"/>
      <point x="576" y="28" type="line"/>
      <point x="50" y="28" type="line"/>
      <point x="50" y="0" type="line"/>
      <point x="544" y="0" type="line"/>
    </contour>
  </outline>
</glyph>
<glyph name="Dje.sc" format="1">
  <advance width="592"/>
  <outline>
    <contour>
      <point x="30" y="483" type="line"/>
      <point x="401" y="483" type="line"/>
      <point x="401" y="510" type="line"/>
      <point x="30" y="510" type="line"/>
    </contour>
    <contour>
      <point x="192" y="0" type="line"/>
      <point x="223" y="0" type="line"/>
      <point x="223" y="263" type="line"/>
      <point x="250" y="272"/>
      <point x="295" y="278"/>
      <point x="332" y="278" type="curve" smooth="yes"/>
      <point x="433" y="278"/>
      <point x="502" y="238"/>
      <point x="502" y="109" type="curve" smooth="yes"/>
      <point x="502" y="-43"/>
      <point x="444" y="-89"/>
      <point x="394" y="-89" type="curve" smooth="yes"/>
      <point x="378" y="-89"/>
      <point x="363" y="-86"/>
      <point x="352" y="-83" type="curve"/>
      <point x="345" y="-110" type="line"/>
      <point x="357" y="-114"/>
      <point x="379" y="-118"/>
      <point x="396" y="-118" type="curve" smooth="yes"/>
      <point x="460" y="-118"/>
      <point x="534" y="-66"/>
      <point x="534" y="109" type="curve" smooth="yes"/>
      <point x="534" y="256"/>
      <point x="450" y="306"/>
      <point x="334" y="306" type="curve" smooth="yes"/>
      <point x="297" y="306"/>
      <point x="252" y="298"/>
      <point x="223" y="289" type="curve"/>
      <point x="223" y="510" type="line"/>
      <point x="192" y="510" type="line"/>
    </contour>
  </outline>
</glyph>
<glyph name="E" format="1">
  <advance width="510"/>
  <outline>
    <contour>
      <point x="100" y="0" type="line"/>
      <point x="464" y="0" type="line"/>
      <point x="464" y="28" type="line"/>
      <point x="132" y="28" type="line"/>
      <point x="132" y="338" type="line"/>
      <point x="402" y="338" type="line"/>
      <point x="402" y="366" type="line"/>
      <point x="132" y="366" type="line"/>
      <point x="132" y="632" type="line"/>
      <point x="454" y="632" type="line"/>
      <point x="454" y="660" type="line"/>
      <point x="100" y="660" type="line"/>
    </contour>
    <contour>
      <point x="282" y="682" type="move" name="aboveUC"/>
    </contour>
    <contour>
      <point x="300" y="-22" type="move" name="belowLC"/>
    </contour>
    <contour>
      <point x="384" y="0" type="move" name="ogonekUC"/>
    </contour>
  </outline>
</glyph>
<glyph name="Ecyr.sc" format="1">
  <advance width="489"/>
  <outline>
    <contour>
      <point x="141" y="257" type="line"/>
      <point x="425" y="257" type="line"/>
      <point x="425" y="283" type="line"/>
      <point x="141" y="283" type="line"/>
    </contour>
    <contour>
      <point x="40" y="63" type="line"/>
      <point x="84" y="18"/>
      <point x="136" y="-9"/>
      <point x="212" y="-9" type="curve" smooth="yes"/>
      <point x="341" y="-9"/>
      <point x="433" y="95"/>
      <point x="433" y="255" type="curve" smooth="yes"/>
      <point x="433" y="416"/>
      <point x="345" y="517"/>
      <point x="210" y="517" type="curve" smooth="yes"/>
      <point x="146" y="517"/>
      <point x="87" y="488"/>
      <point x="56" y="457" type="curve"/>
      <point x="75" y="436" type="line"/>
      <point x="107" y="468"/>
      <point x="158" y="489"/>
      <point x="210" y="489" type="curve" smooth="yes"/>
      <point x="329" y="489"/>
      <point x="402" y="396"/>
      <point x="402" y="260" type="curve" smooth="yes"/>
      <point x="402" y="112"/>
      <point x="324" y="19"/>
      <point x="210" y="19" type="curve" smooth="yes"/>
      <point x="149" y="19"/>
      <point x="102" y="40"/>
      <point x="59" y="82" type="curve"/>
    </contour>
  </outline>
</glyph>
<glyph name="El.sc" format="1">
  <advance width="554"/>
  <outline>
    <contour>
      <point x="20" y="-3" type="line"/>
      <point x="38" y="-8"/>
      <point x="41" y="-9"/>
      <point x="61" y="-9" type="curve" smooth="yes"/>
      <point x="117" y="-9"/>
      <point x="166" y="45"/>
      <point x="183" y="154" type="curve" smooth="yes"/>
      <point x="192" y="214"/>
      <point x="201" y="283"/>
      <point x="201" y="371" type="curve" smooth="yes"/>
      <point x="201" y="483" type="line"/>
      <point x="414" y="483" type="line"/>
      <point x="414" y="0" type="line"/>
      <point x="445" y="0" type="line"/>
      <point x="445" y="510" type="line"/>
      <point x="171" y="510" type="line"/>
      <point x="171" y="371" type="line" smooth="yes"/>
      <point x="171" y="285"/>
      <point x="162" y="216"/>
      <point x="152" y="159" type="curve" smooth="yes"/>
      <point x="139" y="78"/>
      <point x="103" y="22"/>
      <point x="56" y="22" type="curve" smooth="yes"/>
      <point x="42" y="22"/>
      <point x="37" y="24"/>
      <point x="29" y="27" type="curve"/>
    </contour>
  </outline>
</glyph>
<glyph name="Endescender.sc" format="1">
  <advance width="638"/>
  <outline>
    <contour>
      <point x="570" y="-188" type="line"/>
      <point x="596" y="-188" type="line"/>
      <point x="602" y="12" type="line"/>
      <point x="602" y="28" type="line"/>
      <point x="524" y="28" type="line"/>
      <point x="524" y="0" type="line"/>
      <point x="570" y="0" type="line"/>
    </contour>
    <component base="H"/>
  </outline>
</glyph>
<glyph name="Esdescender.sc" format="1">
  <advance width="562"/>
  <outline>
    <contour>
      <point x="314" y="-188" type="line"/>
      <point x="340" y="-188" type="line"/>
      <point x="346" y="12" type="line"/>
      <point x="314" y="0" type="line"/>
    </contour>
    <component base="C"/>
  </outline>
</glyph>
<glyph name="F.sc" format="1">
  <advance width="417"/>
  <outline>
    <contour>
      <point x="100" y="0" type="line"/>
      <point x="132" y="0" type="line"/>
      <point x="132" y="248" type="line"/>
      <point x="357" y="248" type="line"/>
      <point x="357" y="275" type="line"/>
      <point x="132" y="275" type="line"/>
      <point x="132" y="483" type="line"/>
      <point x="399" y="483" type="line"/>
      <point x="399" y="510" type="line"/>
      <point x="100" y="510" type="line"/>
    </contour>
    <contour>
      <point x="263" y="562" type="move" name="aboveUC"/>
    </contour>
    <contour>
      <point x="116" y="-22" type="move" name="belowLC"/>
    </contour>
  </outline>
</glyph>
<glyph name="F.sups" format="1">
  <advance width="311"/>
  <outline>
    <contour>
      <point x="63" y="410" type="line"/>
      <point x="92" y="410" type="line"/>
      <point x="92" y="619" type="line"/>
      <point x="269" y="619" type="line"/>
      <point x="269" y="644" type="line"/>
      <point x="92" y="644" type="line"/>
      <point x="92" y="817" type="line"/>
      <point x="301" y="817" type="line"/>
      <point x="301" y="842" type="line"/>
      <point x="63" y="842" type="line"/>
    </contour>
  </outline>
</glyph>
<glyph name="G.sups" format="1">
  <advance width="396"/>
  <outline>
    <contour>
      <point x="34" y="487" type="curve" smooth="yes"/>
      <point x="34" y="349"/>
      <point x="110" y="262"/>
      <point x="222" y="262" type="curve" smooth="yes"/>
      <point x="279" y="262"/>
      <point x="324" y="282"/>
      <point x="350" y="310" type="curve"/>
      <point x="350" y="482" type="line"/>
      <point x="218" y="482" type="line"/>
      <point x="218" y="457" type="line"/>
      <point x="323" y="457" type="line"/>
      <point x="323" y="321" type="line"/>
      <point x="302" y="301"/>
      <point x="264" y="288"/>
      <point x="224" y="288" type="curve" smooth="yes"/>
      <point x="124" y="288"/>
      <point x="65" y="366"/>
      <point x="65" y="488" type="curve" smooth="yes"/>
      <point x="65" y="607"/>
      <point x="127" y="685"/>
      <point x="228" y="685" type="curve" smooth="yes"/>
      <point x="276" y="685"/>
      <point x="307" y="664"/>
      <point x="329" y="640" type="curve"/>
      <point x="346" y="659" type="line"/>
      <point x="323" y="683"/>
      <point x="286" y="710"/>
      <point x="228" y="710" type="curve" smooth="yes"/>
      <point x="112" y="710"/>
      <point x="34" y="623"/>
    </contour>
  </outline>
</glyph>
<glyph name="Gamma" format="1">
  <advance width="470"/>
  <outline>
    <contour>
      <point x="100" y="0" type="line"/>
      <point x="132" y="0" type="line"/>
      <point x="132" y="632" type="line"/>
      <point x="452" y="632" type="line"/>
      <point x="452" y="660" type="line"/>
      <point x="100" y="660" type="line"/>
    </contour>
  </outline>
</glyph>
<glyph name="Ghestroke.sc" format="1">
  <advance width="500"/>
  <outline>
    <contour>
      <point x="38" y="326" type="line"/>
      <point x="320" y="326" type="line"/>
      <point x="320" y="354" type="line"/>
      <point x="122" y="354" type="line"/>
      <point x="38" y="352" type="line"/>
    </contour>
    <component base="Gamma" xOffset="20"/>
  </outline>
</glyph>
<glyph name="Gheup.sc" format="1">
  <advance width="424"/>
  <outline>
    <contour>
      <point x="345" y="483" type="line"/>
      <point x="398" y="483" type="line"/>
      <point x="405" y="642" type="line"/>
      <point x="379" y="642" type="line"/>
      <point x="369" y="510" type="line"/>
      <point x="345" y="510" type="line"/>
    </contour>
    <contour>
      <point x="100" y="0" type="line"/>
      <point x="131" y="0" type="line"/>
      <point x="131" y="483" type="line"/>
      <point x="398" y="483" type="line"/>
      <point x="389" y="510" type="line"/>
      <point x="100" y="510" type="line"/>
    </contour>
  </outline>
</glyph>
<glyph name="H" format="1">
  <advance width="634"/>
  <outline>
    <contour>
      <point x="100" y="0" type="line"/>
      <point x="132" y="0" type="line"/>
      <point x="132" y="338" type="line"/>
      <point x="502" y="338" type="line"/>
      <point x="502" y="0" type="line"/>
      <point x="534" y="0" type="line"/>
      <point x="534" y="660" type="line"/>
      <point x="502" y="660" type="line"/>
      <point x="502" y="366" type="line"/>
      <point x="132" y="366" type="line"/>
      <point x="132" y="660" type="line"/>
      <point x="100" y="660" type="line"/>
    </contour>
    <contour>
      <point x="316" y="682" type="move" name="aboveUC"/>
    </contour>
    <contour>
      <point x="316" y="-22" type="move" name="belowLC"/>
    </contour>
  </outline>
</glyph>
<glyph name="H.sups" format="1">
  <advance width="420"/>
  <outline>
    <contour>
      <point x="63" y="410" type="line"/>
      <point x="92" y="410" type="line"/>
      <point x="92" y="628" type="line"/>
      <point x="328" y="628" type="line"/>
      <point x="328" y="410" type="line"/>
      <point x="357" y="410" type="line"/>
      <point x="357" y="842" type="line"/>
      <point x="328" y="842" type="line"/>
      <point x="328" y="653" type="line"/>
      <point x="92" y="653" type="line"/>
      <point x="92" y="842" type="line"/>
      <point x="63" y="842" type="line"/>
    </contour>
  </outline>
</glyph>
<glyph name="Hadescender.sc" format="1">
  <advance width="446"/>
  <outline>
    <contour>
      <point x="380" y="-172" type="line"/>
      <point x="406" y="-172" type="line"/>
      <point x="410" y="12" type="line"/>
      <point x="410" y="28" type="line"/>
      <point x="364" y="28" type="line"/>
      <point x="364" y="0" type="line"/>
      <point x="380" y="0" type="line"/>
    </contour>
    <component base="Ha.sc"/>
  </outline>
</glyph>
<glyph name="Hard" format="1">
  <advance width="712"/>
  <outline>
    <contour>
      <point x="256" y="0" type="line"/>
      <point x="434" y="0" type="line" smooth="yes"/>
      <point x="582" y="0"/>
      <point x="662" y="66"/>
      <point x="662" y="192" type="curve" smooth="yes"/>
      <point x="662" y="312"/>
      <point x="568" y="366"/>
      <point x="426" y="366" type="curve" smooth="yes"/>
      <point x="288" y="366" type="line"/>
      <point x="288" y="660" type="line"/>
      <point x="30" y="660" type="line"/>
      <point x="30" y="632" type="line"/>
      <point x="256" y="632" type="line"/>
    </contour>
    <contour>
      <point x="288" y="28" type="line"/>
      <point x="288" y="338" type="line"/>
      <point x="414" y="338" type="line" smooth="yes"/>
      <point x="554" y="338"/>
      <point x="630" y="291"/>
      <point x="630" y="190" type="curve" smooth="yes"/>
      <point x="630" y="78"/>
      <point x="560" y="28"/>
      <point x="422" y="28" type="curve" smooth="yes"/>
    </contour>
  </outline>
</glyph>
<glyph name="Hbar.sc" format="1">
  <advance width="606"/>
  <outline>
    <contour>
      <point x="38" y="382" type="line"/>
      <point x="568" y="382" type="line"/>
      <point x="568" y="408" type="line"/>
      <point x="121" y="408" type="line"/>
      <point x="38" y="404" type="line"/>
    </contour>
    <contour>
      <point x="120" y="0" type="line"/>
      <point x="152" y="0" type="line"/>
      <point x="152" y="258" type="line"/>
      <point x="460" y="258" type="line"/>
      <point x="460" y="0" type="line"/>
      <point x="492" y="0" type="line"/>
      <point x="492" y="510" type="line"/>
      <point x="460" y="510" type="line"/>
      <point x="460" y="286" type="line"/>
      <point x="152" y="286" type="line"/>
      <point x="152" y="510" type="line"/>
      <point x="120" y="510" type="line"/>
    </contour>
  </outline>
</glyph>
<glyph name="I.alt" format="1">
  <advance width="300"/>
  <outline>
    <contour>
      <point x="42" y="0" type="line"/>
      <point x="258" y="0" type="line"/>
      <point x="258" y="28" type="line"/>
      <point x="166" y="28" type="line"/>
      <point x="166" y="632" type="line"/>
      <point x="258" y="632" type="line"/>
      <point x="258" y="660" type="line"/>
      <point x="42" y="660" type="line"/>
      <point x="42" y="632" type="line"/>
      <point x="134" y="632" type="line"/>
      <point x="134" y="28" type="line"/>
      <point x="42" y="28" type="line"/>
    </contour>
    <contour>
      <point x="150" y="682" type="move" name="aboveUC"/>
    </contour>
    <contour>
      <point x="152" y="-22" type="move" name="belowLC"/>
    </contour>
    <contour>
      <point x="124" y="0" type="move" name="ogonekUC"/>
    </contour>
  </outline>
</glyph>
<glyph name="I.sc" format="1">
  <advance width="232"/>
  <outline>
    <contour>
      <point x="100" y="0" type="line"/>
      <point x="132" y="0" type="line"/>
      <point x="132" y="510" type="line"/>
      <point x="100" y="510" type="line"/>
    </contour>
    <contour>
      <point x="116" y="562" type="move" name="aboveUC"/>
    </contour>
    <contour>
      <point x="116" y="-22" type="move" name="belowLC"/>
    </contour>
    <contour>
      <point x="90" y="0" type="move" name="ogonekUC"/>
    </contour>
  </outline>
</glyph>
<glyph name="Icyr.sc" format="1">
  <advance width="568"/>
  <outline>
    <contour>
      <point x="288" y="532" type="move" name="aboveUC"/>
    </contour>
    <contour>
      <point x="468" y="510" type="line"/>
      <point x="434" y="510" type="line"/>
      <point x="192" y="142" type="line"/>
      <point x="130" y="43" type="line"/>
      <point x="126" y="43" type="line"/>
      <point x="128" y="92"/>
      <point x="130" y="140"/>
      <point x="130" y="189" type="curve" smooth="yes"/>
      <point x="130" y="510" type="line"/>
      <point x="100" y="510" type="line"/>
      <point x="100" y="0" type="line"/>
      <point x="134" y="0" type="line"/>
      <point x="376" y="366" type="line"/>
      <point x="438" y="467" type="line"/>
      <point x="442" y="467" type="line"/>
      <point x="440" y="418"/>
      <point x="438" y="373"/>
      <point x="438" y="325" type="curve" smooth="yes"/>
      <point x="438" y="0" type="line"/>
      <point x="468" y="0" type="line"/>
    </contour>
  </outline>
</glyph>
<glyph name="Ieukran.sc" format="1">
  <advance width="489"/>
  <outline>
    <contour>
      <point x="64" y="257" type="line"/>
      <point x="349" y="257" type="line"/>
      <point x="349" y="283" type="line"/>
      <point x="64" y="283" type="line"/>
    </contour>
    <contour>
      <point x="56" y="255" type="curve" smooth="yes"/>
      <point x="56" y="94"/>
      <point x="149" y="-9"/>
      <point x="286" y="-9" type="curve" smooth="yes"/>
      <point x="358" y="-9"/>
      <point x="407" y="18"/>
      <point x="449" y="63" type="curve"/>
      <point x="430" y="82" type="line"/>
      <point x="389" y="40"/>
      <point x="346" y="19"/>
      <point x="287" y="19" type="curve" smooth="yes"/>
      <point x="165" y="19"/>
      <point x="87" y="111"/>
      <point x="87" y="260" type="curve" smooth="yes"/>
      <point x="87" y="396"/>
      <point x="165" y="489"/>
      <point x="291" y="489" type="curve" smooth="yes"/>
      <point x="342" y="489"/>
      <point x="384" y="468"/>
      <point x="414" y="436" type="curve"/>
      <point x="433" y="457" type="line"/>
      <point x="404" y="488"/>
      <point x="355" y="517"/>
      <point x="291" y="517" type="curve" smooth="yes"/>
      <point x="150" y="517"/>
      <point x="56" y="416"/>
    </contour>
  </outline>
</glyph>
<glyph name="Ismall" format="1">
  <advance width="298"/>
  <outline>
    <contour>
      <point x="42" y="0" type="line"/>
      <point x="256" y="0" type="line"/>
      <point x="256" y="28" type="line"/>
      <point x="164" y="28" type="line"/>
      <point x="164" y="450" type="line"/>
      <point x="256" y="450" type="line"/>
      <point x="256" y="478" type="line"/>
      <point x="42" y="478" type="line"/>
      <point x="42" y="450" type="line"/>
      <point x="134" y="450" type="line"/>
      <point x="134" y="28" type="line"/>
      <point x="42" y="28" type="line"/>
    </contour>
    <contour>
      <point x="150" y="502" type="move" name="aboveLC"/>
    </contour>
    <contour>
      <point x="150" y="-22" type="move" name="belowLC"/>
    </contour>
    <contour>
      <point x="124" y="0" type="move" name="ogonekUC"/>
    </contour>
  </outline>
</glyph>
<glyph name="K.sups" format="1">
  <advance width="365"/>
  <outline>
    <contour>
      <point x="63" y="410" type="line"/>
      <point x="92" y="410" type="line"/>
      <point x="92" y="560" type="line"/>
      <point x="182" y="661" type="line"/>
      <point x="328" y="410" type="line"/>
      <point x="361" y="410" type="line"/>
      <point x="202" y="683" type="line"/>
      <point x="342" y="842" type="line"/>
      <point x="307" y="842" type="line"/>
      <point x="94" y="601" type="line"/>
      <point x="92" y="601" type="line"/>
      <point x="92" y="842" type="line"/>
      <point x="63" y="842" type="line"/>
    </contour>
  </outline>
</glyph>
<glyph name="Ka.b" format="1">
  <advance width="546"/>
  <outline>
    <contour>
      <point x="100" y="0" type="line"/>
      <point x="132" y="0" type="line"/>
      <point x="132" y="338" type="line"/>
      <point x="260" y="338" type="line"/>
      <point x="494" y="0" type="line"/>
      <point x="532" y="0" type="line"/>
      <point x="284" y="356" type="line"/>
      <point x="528" y="660" type="line"/>
      <point x="488" y="660" type="line"/>
      <point x="254" y="366" type="line"/>
      <point x="132" y="366" type="line"/>
      <point x="132" y="660" type="line"/>
      <point x="100" y="660" type="line"/>
    </contour>
    <contour>
      <point x="308" y="682" type="move" name="aboveUC"/>
    </contour>
  </outline>
</glyph>
<glyph name="Ka.sc" format="1">
  <advance width="480"/>
  <outline>
    <contour>
      <point x="274" y="532" type="move" name="aboveUC"/>
    </contour>
    <contour>
      <point x="100" y="0" type="line"/>
      <point x="131" y="0" type="line"/>
      <point x="131" y="259" type="line"/>
      <point x="236" y="259" type="line"/>
      <point x="430" y="0" type="line"/>
      <point x="467" y="0" type="line"/>
      <point x="259" y="276" type="line"/>
      <point x="463" y="510" type="line"/>
      <point x="425" y="510" type="line"/>
      <point x="231" y="286" type="line"/>
      <point x="131" y="286" type="line"/>
      <point x="131" y="510" type="line"/>
      <point x="100" y="510" type="line"/>
    </contour>
  </outline>
</glyph>
<glyph name="Kabashkir.sc" format="1">
  <advance width="608"/>
  <outline>
    <contour>
      <point x="250" y="510" type="curve"/>
      <point x="30" y="510" type="line"/>
      <point x="30" y="482" type="line"/>
      <point x="218" y="482" type="line"/>
      <point x="218" y="482"/>
      <point x="250" y="510"/>
    </contour>
    <component base="Ka.sc" xOffset="118"/>
  </outline>
</glyph>
<glyph name="Kadescender" format="1">
  <advance width="596"/>
  <outline>
    <contour>
      <point x="528" y="-188" type="line"/>
      <point x="554" y="-188" type="line"/>
      <point x="560" y="12" type="line"/>
      <point x="560" y="28" type="line"/>
      <point x="504" y="28" type="line"/>
      <point x="504" y="0" type="line"/>
      <point x="528" y="0" type="line"/>
    </contour>
    <component base="Ka"/>
  </outline>
</glyph>
<glyph name="Kadescender.sc" format="1">
  <advance width="596"/>
  <outline>
    <contour>
      <point x="528" y="-188" type="line"/>
      <point x="554" y="-188" type="line"/>
      <point x="560" y="12" type="line"/>
      <point x="560" y="28" type="line"/>
      <point x="504" y="28" type="line"/>
      <point x="504" y="0" type="line"/>
      <point x="528" y="0" type="line"/>
    </contour>
    <component base="Ka"/>
  </outline>
</glyph>
<glyph name="L.sups" format="1">
  <advance width="305"/>
  <outline>
    <contour>
      <point x="63" y="270" type="line"/>
      <point x="294" y="270" type="line"/>
      <point x="294" y="295" type="line"/>
      <point x="92" y="295" type="line"/>
      <point x="92" y="702" type="line"/>
      <point x="63" y="702" type="line"/>
    </contour>
  </outline>
</glyph>
<glyph name="Lslash" format="1">
  <advance width="460"/>
  <outline>
    <contour>
      <point x="14" y="216" type="line"/>
      <point x="110" y="267" type="line"/>
      <point x="122" y="271" type="line"/>
      <point x="332" y="380" type="line"/>
      <point x="332" y="410" type="line"/>
      <point x="122" y="301" type="line"/>
      <point x="110" y="297" type="line"/>
      <point x="14" y="246" type="line"/>
    </contour>
    <component base="L" xOffset="4"/>
  </outline>
</glyph>
<glyph name="Lsmall" format="1">
  <advance width="394"/>
  <outline>
    <contour>
      <point x="96" y="0" type="line"/>
      <point x="368" y="0" type="line"/>
      <point x="368" y="28" type="line"/>
      <point x="126" y="28" type="line"/>
      <point x="126" y="478" type="line"/>
      <point x="96" y="478" type="line"/>
    </contour>
    <contour>
      <point x="118" y="562" type="move" name="aboveUC"/>
    </contour>
    <contour>
      <point x="252" y="-22" type="move" name="belowLC"/>
    </contour>
  </outline>
</glyph>
<glyph name="M.sups" format="1">
  <advance width="463"/>
  <outline>
    <contour>
      <point x="63" y="410" type="line"/>
      <point x="90" y="410" type="line"/>
      <point x="90" y="695" type="line" smooth="yes"/>
      <point x="90" y="729"/>
      <point x="88" y="774"/>
      <point x="86" y="810" type="curve"/>
      <point x="89" y="810" type="line"/>
      <point x="124" y="716" type="line"/>
      <point x="219" y="455" type="line"/>
      <point x="246" y="455" type="line"/>
      <point x="340" y="716" type="line"/>
      <point x="374" y="810" type="line"/>
      <point x="376" y="810" type="line"/>
      <point x="375" y="774"/>
      <point x="373" y="729"/>
      <point x="373" y="695" type="curve" smooth="yes"/>
      <point x="373" y="410" type="line"/>
      <point x="401" y="410" type="line"/>
      <point x="401" y="842" type="line"/>
      <point x="359" y="842" type="line"/>
      <point x="269" y="589" type="line"/>
      <point x="235" y="493" type="line"/>
      <point x="232" y="493" type="line"/>
      <point x="197" y="589" type="line"/>
      <point x="106" y="842" type="line"/>
      <point x="63" y="842" type="line"/>
    </contour>
  </outline>
</glyph>
<glyph name="Nje.sc" format="1">
  <advance width="829"/>
  <outline>
    <contour>
      <point x="440" y="0" type="line"/>
      <point x="579" y="0" type="line" smooth="yes"/>
      <point x="708" y="0"/>
      <point x="785" y="37"/>
      <point x="785" y="140" type="curve" smooth="yes"/>
      <point x="785" y="238"/>
      <point x="708" y="284"/>
      <point x="579" y="284" type="curve" smooth="yes"/>
      <point x="471" y="284" type="line"/>
      <point x="471" y="510" type="line"/>
      <point x="440" y="510" type="line"/>
    </contour>
    <contour>
      <point x="471" y="26" type="line"/>
      <point x="471" y="258" type="line"/>
      <point x="569" y="258" type="line" smooth="yes"/>
      <point x="691" y="258"/>
      <point x="752" y="225"/>
      <point x="752" y="140" type="curve" smooth="yes"/>
      <point x="752" y="53"/>
      <point x="691" y="26"/>
      <point x="569" y="26" type="curve" smooth="yes"/>
    </contour>
    <component base="H.sc"/>
  </outline>
</glyph>
<glyph name="Nu.sc" format="1">
  <advance width="568"/>
  <outline>
    <component base="N.sc"/>
    <contour>
      <point x="292" y="562" type="move" name="aboveLC"/>
    </contour>
    <contour>
      <point x="292" y="-22" type="move" name="belowLC"/>
    </contour>
  </outline>
</glyph>
<glyph name="Obarcyr" format="1">
  <advance width="648"/>
  <outline>
    <component base="Fita"/>
    <contour>
      <point x="324" y="682" type="move" name="aboveUC"/>
    </contour>
  </outline>
</glyph>
<glyph name="Obarcyr.sc" format="1">
  <advance width="648"/>
  <outline>
    <component base="Fita"/>
    <contour>
      <point x="324.0" y="682.0" type="move" name="aboveUC"/>
    </contour>
  </outline>
</glyph>
<glyph name="Ohorn" format="1">
  <advance width="648"/>
  <outline>
    <contour>
      <point x="479" y="617" type="line"/>
      <point x="541" y="631"/>
      <point x="580" y="660"/>
      <point x="580" y="712" type="curve" smooth="yes"/>
      <point x="580" y="730"/>
      <point x="574" y="746"/>
      <point x="562" y="764" type="curve"/>
      <point x="536" y="748" type="line"/>
      <point x="546" y="734"/>
      <point x="550" y="722"/>
      <point x="550" y="710" type="curve" smooth="yes"/>
      <point x="550" y="672"/>
      <point x="518" y="648"/>
      <point x="448" y="640" type="curve"/>
    </contour>
    <component base="O" xOffset="4"/>
    <contour>
      <point x="328" y="682" type="move" name="aboveUC"/>
    </contour>
    <contour>
      <point x="322" y="-22" type="move" name="belowLC"/>
    </contour>
  </outline>
</glyph>
<glyph name="Ohorn.sc" format="1">
  <advance width="568"/>
  <outline>
    <component base="O.sc"/>
    <component base="horncmb" xOffset="390" yOffset="32"/>
    <contour>
      <point x="284" y="562" type="move" name="aboveUC"/>
    </contour>
    <contour>
      <point x="284" y="-22" type="move" name="belowLC"/>
    </contour>
    <contour>
      <point x="284" y="0" type="move" name="ogonekUC"/>
    </contour>
  </outline>
</glyph>
<glyph name="Omega.math" format="1">
  <advance width="652"/>
  <outline>
    <contour>
      <point x="44" y="0" type="line"/>
      <point x="250" y="0" type="line"/>
      <point x="250" y="24" type="line"/>
      <point x="168" y="80"/>
      <point x="90" y="182"/>
      <point x="90" y="348" type="curve" smooth="yes"/>
      <point x="90" y="524"/>
      <point x="178" y="642"/>
      <point x="326" y="642" type="curve" smooth="yes"/>
      <point x="474" y="642"/>
      <point x="562" y="524"/>
      <point x="562" y="348" type="curve" smooth="yes"/>
      <point x="562" y="182"/>
      <point x="484" y="80"/>
      <point x="402" y="24" type="curve"/>
      <point x="402" y="0" type="line"/>
      <point x="608" y="0" type="line"/>
      <point x="608" y="28" type="line"/>
      <point x="460" y="28" type="line"/>
      <point x="460" y="32" type="line"/>
      <point x="528" y="96"/>
      <point x="596" y="194"/>
      <point x="596" y="346" type="curve" smooth="yes"/>
      <point x="596" y="542"/>
      <point x="490" y="672"/>
      <point x="326" y="672" type="curve" smooth="yes"/>
      <point x="162" y="672"/>
      <point x="56" y="542"/>
      <point x="56" y="346" type="curve" smooth="yes"/>
      <point x="56" y="194"/>
      <point x="124" y="96"/>
      <point x="192" y="32" type="curve"/>
      <point x="192" y="28" type="line"/>
      <point x="44" y="28" type="line"/>
    </contour>
  </outline>
</glyph>
<glyph name="Oogonek" format="1">
  <advance width="648"/>
  <outline>
    <contour>
      <point x="276" y="-122" type="curve" smooth="yes"/>
      <point x="276" y="-176"/>
      <point x="312" y="-202"/>
      <point x="356" y="-202" type="curve" smooth="yes"/>
      <point x="376" y="-202"/>
      <point x="402" y="-192"/>
      <point x="416" y="-180" type="curve"/>
      <point x="402" y="-160" type="line"/>
      <point x="388" y="-170"/>
      <point x="376" y="-174"/>
      <point x="358" y="-174" type="curve" smooth="yes"/>
      <point x="332" y="-174"/>
      <point x="306" y="-156"/>
      <point x="306" y="-120" type="curve" smooth="yes"/>
      <point x="306" y="-82"/>
      <point x="332" y="-34"/>
      <point x="390" y="-8" type="curve" smooth="yes"/>
      <point x="522" y="52"/>
      <point x="592" y="158"/>
      <point x="592" y="332" type="curve" smooth="yes"/>
      <point x="592" y="540"/>
      <point x="480" y="672"/>
      <point x="324" y="672" type="curve" smooth="yes"/>
      <point x="168" y="672"/>
      <point x="56" y="540"/>
      <point x="56" y="332" type="curve" smooth="yes"/>
      <point x="56" y="124"/>
      <point x="164" y="-14"/>
      <point x="336" y="-12" type="curve"/>
      <point x="296" y="-44"/>
      <point x="276" y="-84"/>
    </contour>
    <contour>
      <point x="324" y="18" type="curve" smooth="yes"/>
      <point x="184" y="18"/>
      <point x="90" y="142"/>
      <point x="90" y="332" type="curve" smooth="yes"/>
      <point x="90" y="522"/>
      <point x="184" y="642"/>
      <point x="324" y="642" type="curve" smooth="yes"/>
      <point x="464" y="642"/>
      <point x="558" y="522"/>
      <point x="558" y="332" type="curve" smooth="yes"/>
      <point x="558" y="142"/>
      <point x="464" y="18"/>
    </contour>
    <contour>
      <point x="322" y="682" type="move" name="aboveUC"/>
    </contour>
  </outline>
</glyph>
<glyph name="Oslash" format="1">
  <advance width="648"/>
  <outline>
    <contour>
      <point x="58.0" y="-4.0" type="line"/>
      <point x="80.0" y="-20.0" type="line"/>
      <point x="586.0" y="664.0" type="line"/>
      <point x="564.0" y="680.0" type="line"/>
    </contour>
    <component base="O" xOffset="4"/>
    <contour>
      <point x="322.0" y="682.0" type="move" name="aboveUC"/>
    </contour>
  </outline>
</glyph>
<glyph name="P" format="1">
  <advance width="552"/>
  <outline>
    <contour>
      <point x="100" y="0" type="line"/>
      <point x="132" y="0" type="line"/>
      <point x="132" y="292" type="line"/>
      <point x="272" y="292" type="line" smooth="yes"/>
      <point x="420" y="292"/>
      <point x="504" y="354"/>
      <point x="504" y="480" type="curve" smooth="yes"/>
      <point x="504" y="612"/>
      <point x="420" y="660"/>
      <point x="272" y="660" type="curve" smooth="yes"/>
      <point x="100" y="660" type="line"/>
    </contour>
    <contour>
      <point x="132" y="320" type="line"/>
      <point x="132" y="632" type="line"/>
      <point x="260" y="632" type="line" smooth="yes"/>
      <point x="402" y="632"/>
      <point x="470" y="596"/>
      <point x="470" y="480" type="curve" smooth="yes"/>
      <point x="470" y="366"/>
      <point x="402" y="320"/>
      <point x="260" y="320" type="curve" smooth="yes"/>
    </contour>
    <contour>
      <point x="292" y="682" type="move" name="aboveUC"/>
    </contour>
    <contour>
      <point x="118" y="-22" type="move" name="belowLC"/>
    </contour>
  </outline>
</glyph>
<glyph name="P.sups" format="1">
  <advance width="366"/>
  <outline>
    <contour>
      <point x="63" y="270" type="line"/>
      <point x="92" y="270" type="line"/>
      <point x="92" y="456" type="line"/>
      <point x="182" y="456" type="line" smooth="yes"/>
      <point x="279" y="456"/>
      <point x="338" y="497"/>
      <point x="338" y="582" type="curve" smooth="yes"/>
      <point x="338" y="670"/>
      <point x="280" y="702"/>
      <point x="182" y="702" type="curve" smooth="yes"/>
      <point x="63" y="702" type="line"/>
    </contour>
    <contour>
      <point x="92" y="481" type="line"/>
      <point x="92" y="677" type="line"/>
      <point x="175" y="677" type="line" smooth="yes"/>
      <point x="264" y="677"/>
      <point x="308" y="655"/>
      <point x="308" y="582" type="curve" smooth="yes"/>
      <point x="308" y="510"/>
      <point x="264" y="481"/>
      <point x="175" y="481" type="curve" smooth="yes"/>
    </contour>
  </outline>
</glyph>
<glyph name="Q.sups" format="1">
  <advance width="428"/>
  <outline>
    <contour>
      <point x="195" y="270" type="line"/>
      <point x="215" y="212"/>
      <point x="265" y="169"/>
      <point x="341" y="169" type="curve" smooth="yes"/>
      <point x="363" y="169"/>
      <point x="384" y="173"/>
      <point x="395" y="176" type="curve"/>
      <point x="388" y="201" type="line"/>
      <point x="377" y="199"/>
      <point x="364" y="196"/>
      <point x="344" y="196" type="curve" smooth="yes"/>
      <point x="286" y="196"/>
      <point x="245" y="222"/>
      <point x="227" y="271" type="curve"/>
    </contour>
    <contour>
      <point x="214" y="262" type="curve" smooth="yes"/>
      <point x="319" y="262"/>
      <point x="394" y="351"/>
      <point x="394" y="489" type="curve" smooth="yes"/>
      <point x="394" y="624"/>
      <point x="319" y="710"/>
      <point x="214" y="710" type="curve" smooth="yes"/>
      <point x="110" y="710"/>
      <point x="34" y="625"/>
      <point x="34" y="489" type="curve" smooth="yes"/>
      <point x="34" y="351"/>
      <point x="110" y="262"/>
    </contour>
    <contour>
      <point x="214" y="288" type="curve" smooth="yes"/>
      <point x="125" y="288"/>
      <point x="65" y="368"/>
      <point x="65" y="489" type="curve" smooth="yes"/>
      <point x="65" y="608"/>
      <point x="125" y="685"/>
      <point x="214" y="685" type="curve" smooth="yes"/>
      <point x="304" y="685"/>
      <point x="363" y="608"/>
      <point x="363" y="489" type="curve" smooth="yes"/>
      <point x="363" y="368"/>
      <point x="304" y="288"/>
    </contour>
  </outline>
</glyph>
<glyph name="R.sups" format="1">
  <advance width="367"/>
  <outline>
    <contour>
      <point x="305" y="270" type="line"/>
      <point x="339" y="270" type="line"/>
      <point x="209" y="486" type="line"/>
      <point x="181" y="478" type="line"/>
    </contour>
    <contour>
      <point x="63" y="270" type="line"/>
      <point x="92" y="270" type="line"/>
      <point x="92" y="469" type="line"/>
      <point x="187" y="469" type="line" smooth="yes"/>
      <point x="274" y="469"/>
      <point x="331" y="510"/>
      <point x="331" y="589" type="curve" smooth="yes"/>
      <point x="331" y="670"/>
      <point x="274" y="702"/>
      <point x="187" y="702" type="curve" smooth="yes"/>
      <point x="63" y="702" type="line"/>
    </contour>
    <contour>
      <point x="92" y="494" type="line"/>
      <point x="92" y="677" type="line"/>
      <point x="179" y="677" type="line" smooth="yes"/>
      <point x="258" y="677"/>
      <point x="301" y="654"/>
      <point x="301" y="589" type="curve" smooth="yes"/>
      <point x="301" y="524"/>
      <point x="258" y="494"/>
      <point x="179" y="494" type="curve" smooth="yes"/>
    </contour>
  </outline>
</glyph>
<glyph name="S.sups" format="1">
  <advance width="341"/>
  <outline>
    <contour>
      <point x="177" y="262" type="curve" smooth="yes"/>
      <point x="261" y="262"/>
      <point x="316" y="312"/>
      <point x="316" y="381" type="curve" smooth="yes"/>
      <point x="316" y="444"/>
      <point x="274" y="470"/>
      <point x="224" y="492" type="curve" smooth="yes"/>
      <point x="156" y="522" type="line" smooth="yes"/>
      <point x="125" y="535"/>
      <point x="82" y="556"/>
      <point x="82" y="606" type="curve" smooth="yes"/>
      <point x="82" y="654"/>
      <point x="121" y="685"/>
      <point x="179" y="685" type="curve" smooth="yes"/>
      <point x="224" y="685"/>
      <point x="258" y="667"/>
      <point x="284" y="640" type="curve"/>
      <point x="301" y="659" type="line"/>
      <point x="274" y="687"/>
      <point x="232" y="710"/>
      <point x="179" y="710" type="curve" smooth="yes"/>
      <point x="107" y="710"/>
      <point x="52" y="667"/>
      <point x="52" y="605" type="curve" smooth="yes"/>
      <point x="52" y="541"/>
      <point x="103" y="514"/>
      <point x="141" y="497" type="curve" smooth="yes"/>
      <point x="209" y="467" type="line" smooth="yes"/>
      <point x="252" y="448"/>
      <point x="287" y="431"/>
      <point x="287" y="376" type="curve" smooth="yes"/>
      <point x="287" y="323"/>
      <point x="244" y="288"/>
      <point x="177" y="288" type="curve" smooth="yes"/>
      <point x="126" y="288"/>
      <point x="80" y="309"/>
      <point x="48" y="347" type="curve"/>
      <point x="29" y="327" type="line"/>
      <point x="64" y="289"/>
      <point x="113" y="262"/>
    </contour>
  </outline>
</glyph>
<glyph name="Schwa" format="1">
  <advance width="644"/>
  <outline>
    <contour>
      <point x="96" y="304" type="curve"/>
      <point x="560" y="304" type="line"/>
      <point x="560" y="332" type="line"/>
      <point x="64" y="332" type="line"/>
      <point x="64" y="330"/>
      <point x="64" y="328"/>
      <point x="64" y="326" type="curve" smooth="yes"/>
      <point x="64" y="132"/>
      <point x="162" y="-12"/>
      <point x="320" y="-12" type="curve" smooth="yes"/>
      <point x="478" y="-12"/>
      <point x="588" y="124"/>
      <point x="588" y="332" type="curve" smooth="yes"/>
      <point x="588" y="540"/>
      <point x="490" y="672"/>
      <point x="324" y="672" type="curve" smooth="yes"/>
      <point x="244" y="672"/>
      <point x="176" y="640"/>
      <point x="134" y="598" type="curve"/>
      <point x="152" y="576" type="line"/>
      <point x="194" y="618"/>
      <point x="258" y="644"/>
      <point x="326" y="644" type="curve" smooth="yes"/>
      <point x="472" y="644"/>
      <point x="556" y="520"/>
      <point x="556" y="332" type="curve" smooth="yes"/>
      <point x="556" y="144"/>
      <point x="462" y="16"/>
      <point x="320" y="16" type="curve" smooth="yes"/>
      <point x="192" y="16"/>
      <point x="104" y="130"/>
    </contour>
    <contour>
      <point x="338" y="682" type="move" name="aboveUC"/>
    </contour>
    <contour>
      <point x="336" y="-22" type="move" name="belowLC"/>
    </contour>
  </outline>
</glyph>
<glyph name="Sha" format="1">
  <advance width="828"/>
  <outline>
    <contour>
      <point x="100" y="0" type="line"/>
      <point x="728" y="0" type="line"/>
      <point x="728" y="660" type="line"/>
      <point x="696" y="660" type="line"/>
      <point x="696" y="28" type="line"/>
      <point x="430" y="28" type="line"/>
      <point x="430" y="660" type="line"/>
      <point x="398" y="660" type="line"/>
      <point x="398" y="28" type="line"/>
      <point x="132" y="28" type="line"/>
      <point x="132" y="660" type="line"/>
      <point x="100" y="660" type="line"/>
    </contour>
  </outline>
</glyph>
<glyph name="Soft.sc" format="1">
  <advance width="500"/>
  <outline>
    <contour>
      <point x="100" y="0" type="line"/>
      <point x="247" y="0" type="line" smooth="yes"/>
      <point x="376" y="0"/>
      <point x="452" y="37"/>
      <point x="452" y="140" type="curve" smooth="yes"/>
      <point x="452" y="238"/>
      <point x="376" y="284"/>
      <point x="247" y="284" type="curve" smooth="yes"/>
      <point x="131" y="284" type="line"/>
      <point x="131" y="510" type="line"/>
      <point x="100" y="510" type="line"/>
    </contour>
    <contour>
      <point x="131" y="26" type="line"/>
      <point x="131" y="258" type="line"/>
      <point x="237" y="258" type="line"/>
      <point x="359" y="258"/>
      <point x="420" y="225"/>
      <point x="420" y="140" type="curve" smooth="yes"/>
      <point x="420" y="53"/>
      <point x="359" y="26"/>
      <point x="237" y="26" type="curve" smooth="yes"/>
    </contour>
  </outline>
</glyph>
<glyph name="T" format="1">
  <advance width="520"/>
  <outline>
    <contour>
      <point x="244" y="0" type="line"/>
      <point x="276" y="0" type="line"/>
      <point x="276" y="632" type="line"/>
      <point x="490" y="632" type="line"/>
      <point x="490" y="660" type="line"/>
      <point x="30" y="660" type="line"/>
      <point x="30" y="632" type="line"/>
      <point x="244" y="632" type="line"/>
    </contour>
    <contour>
      <point x="258" y="682" type="move" name="aboveUC"/>
    </contour>
    <contour>
      <point x="260" y="-22" type="move" name="belowLC"/>
    </contour>
    <contour>
      <point x="260" y="0" type="move" name="baseLC"/>
    </contour>
  </outline>
</glyph>
<glyph name="Tse.sc" format="1">
  <advance width="554"/>
  <outline>
    <contour>
      <point x="100" y="0" type="line"/>
      <point x="461" y="0" type="line"/>
      <point x="461" y="510" type="line"/>
      <point x="430" y="510" type="line"/>
      <point x="430" y="27" type="line"/>
      <point x="131" y="27" type="line"/>
      <point x="131" y="510" type="line"/>
      <point x="100" y="510" type="line"/>
    </contour>
    <contour>
      <point x="450" y="0" type="line"/>
      <point x="488" y="0" type="line"/>
      <point x="488" y="-148" type="line"/>
      <point x="513" y="-148" type="line"/>
      <point x="519" y="10" type="line"/>
      <point x="519" y="27" type="line"/>
      <point x="450" y="27" type="line"/>
    </contour>
  </outline>
</glyph>
<glyph name="Tshe.sc" format="1">
  <advance width="594"/>
  <outline>
    <contour>
      <point x="30" y="483" type="line"/>
      <point x="401" y="483" type="line"/>
      <point x="401" y="510" type="line"/>
      <point x="30" y="510" type="line"/>
    </contour>
    <contour>
      <point x="192" y="0" type="line"/>
      <point x="223" y="0" type="line"/>
      <point x="223" y="263" type="line"/>
      <point x="250" y="272"/>
      <point x="295" y="278"/>
      <point x="332" y="278" type="curve" smooth="yes"/>
      <point x="428" y="278"/>
      <point x="492" y="245"/>
      <point x="492" y="155" type="curve" smooth="yes"/>
      <point x="492" y="0" type="line"/>
      <point x="523" y="0" type="line"/>
      <point x="523" y="155" type="line" smooth="yes"/>
      <point x="523" y="261"/>
      <point x="445" y="306"/>
      <point x="334" y="306" type="curve" smooth="yes"/>
      <point x="297" y="306"/>
      <point x="252" y="298"/>
      <point x="223" y="289" type="curve"/>
      <point x="223" y="510" type="line"/>
      <point x="192" y="510" type="line"/>
    </contour>
  </outline>
</glyph>
<glyph name="Ucyr.sc" format="1">
  <advance width="397"/>
  <outline>
    <contour>
      <point x="88" y="-9" type="curve" smooth="yes"/>
      <point x="156" y="-9"/>
      <point x="183" y="42"/>
      <point x="209" y="93" type="curve"/>
      <point x="392" y="510" type="line"/>
      <point x="359" y="510" type="line"/>
      <point x="239" y="238" type="line"/>
      <point x="204" y="152" type="line"/>
      <point x="200" y="152" type="line"/>
      <point x="161" y="238" type="line"/>
      <point x="30" y="510" type="line"/>
      <point x="-3" y="510" type="line"/>
      <point x="187" y="117" type="line"/>
      <point x="173" y="80" type="line"/>
      <point x="149" y="44"/>
      <point x="130" y="20"/>
      <point x="82" y="20" type="curve" smooth="yes"/>
      <point x="69" y="20"/>
      <point x="63" y="22"/>
      <point x="55" y="25" type="curve"/>
      <point x="46" y="-3" type="line"/>
      <point x="60" y="-8"/>
      <point x="70" y="-9"/>
    </contour>
    <contour>
      <point x="198" y="532" type="move" name="aboveUC"/>
    </contour>
  </outline>
</glyph>
<glyph name="Uhorn" format="1">
  <advance width="640"/>
  <outline>
    <contour>
      <point x="532" y="638" type="line"/>
      <point x="582" y="650"/>
      <point x="630" y="672"/>
      <point x="630" y="732" type="curve" smooth="yes"/>
      <point x="630" y="750"/>
      <point x="624" y="766"/>
      <point x="612" y="784" type="curve"/>
      <point x="586" y="768" type="line"/>
      <point x="596" y="754"/>
      <point x="600" y="742"/>
      <point x="600" y="730" type="curve" smooth="yes"/>
      <point x="600" y="690"/>
      <point x="572" y="668"/>
      <point x="504" y="660" type="curve"/>
    </contour>
    <component base="U"/>
    <contour>
      <point x="316" y="682" type="move" name="aboveUC"/>
    </contour>
    <contour>
      <point x="314" y="-22" type="move" name="belowLC"/>
    </contour>
  </outline>
</glyph>
<glyph name="Uhorn.sc" format="1">
  <advance width="574"/>
  <outline>
    <contour>
      <point x="466" y="488" type="line"/>
      <point x="516" y="500"/>
      <point x="564" y="522"/>
      <point x="564" y="582" type="curve" smooth="yes"/>
      <point x="564" y="600"/>
      <point x="558" y="616"/>
      <point x="546" y="634" type="curve"/>
      <point x="520" y="618" type="line"/>
      <point x="530" y="604"/>
      <point x="534" y="592"/>
      <point x="534" y="580" type="curve" smooth="yes"/>
      <point x="534" y="540"/>
      <point x="504" y="518"/>
      <point x="438" y="510" type="curve"/>
    </contour>
    <component base="U.sc"/>
    <contour>
      <point x="282" y="562" type="move" name="aboveUC"/>
    </contour>
    <contour>
      <point x="282" y="-22" type="move" name="belowLC"/>
    </contour>
  </outline>
</glyph>
<glyph name="Uogonek.sc" format="1">
  <advance width="564"/>
  <outline>
    <contour>
      <point x="314" y="-202" type="curve" smooth="yes"/>
      <point x="334" y="-202"/>
      <point x="360" y="-192"/>
      <point x="374" y="-180" type="curve"/>
      <point x="360" y="-160" type="line"/>
      <point x="346" y="-170"/>
      <point x="334" y="-174"/>
      <point x="316" y="-174" type="curve" smooth="yes"/>
      <point x="290" y="-174"/>
      <point x="264" y="-156"/>
      <point x="264" y="-120" type="curve" smooth="yes"/>
      <point x="264" y="-84"/>
      <point x="296" y="-36"/>
      <point x="350" y="-8" type="curve"/>
      <point x="406" y="22"/>
      <point x="466" y="58"/>
      <point x="466" y="192" type="curve" smooth="yes"/>
      <point x="466" y="510" type="line"/>
      <point x="436" y="510" type="line"/>
      <point x="436" y="198" type="line" smooth="yes"/>
      <point x="436" y="58"/>
      <point x="363" y="18"/>
      <point x="282" y="18" type="curve" smooth="yes"/>
      <point x="201" y="18"/>
      <point x="130" y="58"/>
      <point x="130" y="198" type="curve" smooth="yes"/>
      <point x="130" y="510" type="line"/>
      <point x="98" y="510" type="line"/>
      <point x="98" y="192" type="line" smooth="yes"/>
      <point x="98" y="32"/>
      <point x="188" y="-14"/>
      <point x="298" y="-12" type="curve"/>
      <point x="266" y="-44"/>
      <point x="234" y="-72"/>
      <point x="234" y="-122" type="curve" smooth="yes"/>
      <point x="234" y="-176"/>
      <point x="270" y="-202"/>
    </contour>
    <contour>
      <point x="282" y="562" type="move" name="aboveUC"/>
    </contour>
  </outline>
</glyph>
<glyph name="Ustraight" format="1">
  <advance width="436"/>
  <outline>
    <component base="Y"/>
    <contour>
      <point x="218" y="682" type="move" name="aboveUC"/>
    </contour>
  </outline>
</glyph>
<glyph name="Ustraight.sc" format="1">
  <advance width="373"/>
  <outline>
    <component base="Y.sc"/>
    <contour>
      <point x="189.0" y="562.0" type="move" name="aboveUC"/>
    </contour>
    <contour>
      <point x="186.0" y="-22.0" type="move" name="belowLC"/>
    </contour>
  </outline>
</glyph>
<glyph name="Ustraightstroke" format="1">
  <advance width="436"/>
  <outline>
    <contour>
      <point x="64" y="266" type="line"/>
      <point x="372" y="266" type="line"/>
      <point x="372" y="294" type="line"/>
      <point x="148" y="294" type="line"/>
      <point x="64" y="292" type="line"/>
    </contour>
    <component base="Y"/>
    <contour>
      <point x="218" y="682" type="move" name="aboveUC"/>
    </contour>
  </outline>
</glyph>
<glyph name="Ustraightstroke.sc" format="1">
  <advance width="436"/>
  <outline>
    <contour>
      <point x="64" y="266" type="line"/>
      <point x="372" y="266" type="line"/>
      <point x="372" y="294" type="line"/>
      <point x="148" y="294" type="line"/>
      <point x="64" y="292" type="line"/>
    </contour>
    <component base="Y"/>
    <contour>
      <point x="218.0" y="682.0" type="move" name="aboveUC"/>
    </contour>
  </outline>
</glyph>
<glyph name="W" format="1">
  <advance width="764"/>
  <outline>
    <contour>
      <point x="184" y="0" type="line"/>
      <point x="216" y="0" type="line"/>
      <point x="342" y="474" type="line" smooth="yes"/>
      <point x="354" y="526"/>
      <point x="368" y="570"/>
      <point x="380" y="622" type="curve"/>
      <point x="384" y="622" type="line"/>
      <point x="396" y="570"/>
      <point x="408" y="526"/>
      <point x="420" y="474" type="curve" smooth="yes"/>
      <point x="548" y="0" type="line"/>
      <point x="580" y="0" type="line"/>
      <point x="732" y="660" type="line"/>
      <point x="700" y="660" type="line"/>
      <point x="612" y="260" type="line" smooth="yes"/>
      <point x="596" y="188"/>
      <point x="582" y="116"/>
      <point x="566" y="44" type="curve"/>
      <point x="562" y="44" type="line"/>
      <point x="544" y="116"/>
      <point x="526" y="188"/>
      <point x="508" y="260" type="curve" smooth="yes"/>
      <point x="400" y="660" type="line"/>
      <point x="364" y="660" type="line"/>
      <point x="256" y="260" type="line" smooth="yes"/>
      <point x="238" y="188"/>
      <point x="220" y="116"/>
      <point x="204" y="44" type="curve"/>
      <point x="200" y="44" type="line"/>
      <point x="184" y="116"/>
      <point x="168" y="188"/>
      <point x="152" y="260" type="curve" smooth="yes"/>
      <point x="64" y="660" type="line"/>
      <point x="30" y="660" type="line"/>
    </contour>
    <contour>
      <point x="382" y="682" type="move" name="aboveUC"/>
    </contour>
    <contour>
      <point x="386" y="-22" type="move" name="belowLC"/>
    </contour>
  </outline>
</glyph>
<glyph name="X.sups" format="1">
  <advance width="314"/>
  <outline>
    <contour>
      <point x="9" y="270" type="line"/>
      <point x="39" y="270" type="line"/>
      <point x="116" y="404" type="line" smooth="yes"/>
      <point x="128" y="425"/>
      <point x="140" y="446"/>
      <point x="154" y="472" type="curve"/>
      <point x="157" y="472" type="line"/>
      <point x="173" y="446"/>
      <point x="186" y="425"/>
      <point x="198" y="404" type="curve" smooth="yes"/>
      <point x="274" y="270" type="line"/>
      <point x="305" y="270" type="line"/>
      <point x="173" y="493" type="line"/>
      <point x="296" y="702" type="line"/>
      <point x="266" y="702" type="line"/>
      <point x="193" y="574" type="line" smooth="yes"/>
      <point x="182" y="554"/>
      <point x="173" y="539"/>
      <point x="160" y="516" type="curve"/>
      <point x="157" y="516" type="line"/>
      <point x="143" y="539"/>
      <point x="134" y="554"/>
      <point x="122" y="574" type="curve" smooth="yes"/>
      <point x="50" y="702" type="line"/>
      <point x="18" y="702" type="line"/>
      <point x="141" y="494" type="line"/>
    </contour>
  </outline>
</glyph>
<glyph name="Xi" format="1">
  <advance width="502"/>
  <outline>
    <contour>
      <point x="46" y="0" type="line"/>
      <point x="456" y="0" type="line"/>
      <point x="456" y="28" type="line"/>
      <point x="46" y="28" type="line"/>
    </contour>
    <contour>
      <point x="126" y="338" type="line"/>
      <point x="376" y="338" type="line"/>
      <point x="376" y="366" type="line"/>
      <point x="126" y="366" type="line"/>
    </contour>
    <contour>
      <point x="56" y="632" type="line"/>
      <point x="446" y="632" type="line"/>
      <point x="446" y="660" type="line"/>
      <point x="56" y="660" type="line"/>
    </contour>
  </outline>
</glyph>
<glyph name="Y" format="1">
  <advance width="436"/>
  <outline>
    <contour>
      <point x="202" y="0" type="line"/>
      <point x="234" y="0" type="line"/>
      <point x="234" y="272" type="line"/>
      <point x="432" y="660" type="line"/>
      <point x="400" y="660" type="line"/>
      <point x="294" y="446" type="line" smooth="yes"/>
      <point x="272" y="398"/>
      <point x="246" y="352"/>
      <point x="220" y="304" type="curve"/>
      <point x="216" y="304" type="line"/>
      <point x="190" y="352"/>
      <point x="168" y="398"/>
      <point x="144" y="446" type="curve" smooth="yes"/>
      <point x="38" y="660" type="line"/>
      <point x="4" y="660" type="line"/>
      <point x="202" y="272" type="line"/>
    </contour>
    <contour>
      <point x="218" y="682" type="move" name="aboveUC"/>
    </contour>
    <contour>
      <point x="220" y="-22" type="move" name="belowLC"/>
    </contour>
  </outline>
</glyph>
<glyph name="Y.sups" format="1">
  <advance width="291"/>
  <outline>
    <contour>
      <point x="131" y="410" type="line"/>
      <point x="160" y="410" type="line"/>
      <point x="160" y="586" type="line"/>
      <point x="292" y="842" type="line"/>
      <point x="262" y="842" type="line"/>
      <point x="195" y="706" type="line"/>
      <point x="181" y="674"/>
      <point x="165" y="645"/>
      <point x="148" y="613" type="curve"/>
      <point x="145" y="613" type="line"/>
      <point x="128" y="645"/>
      <point x="113" y="674"/>
      <point x="98" y="706" type="curve"/>
      <point x="30" y="842" type="line"/>
      <point x="-1" y="842" type="line"/>
      <point x="131" y="586" type="line"/>
    </contour>
  </outline>
</glyph>
<glyph name="Ya.sc" format="1">
  <advance width="483"/>
  <outline>
    <contour>
      <point x="352" y="0" type="line"/>
      <point x="383" y="0" type="line"/>
      <point x="383" y="510" type="line"/>
      <point x="237" y="510" type="line" smooth="yes"/>
      <point x="127" y="510"/>
      <point x="57" y="473"/>
      <point x="57" y="377" type="curve" smooth="yes"/>
      <point x="57" y="286"/>
      <point x="127" y="236"/>
      <point x="237" y="236" type="curve" smooth="yes"/>
      <point x="352" y="236" type="line"/>
    </contour>
    <contour>
      <point x="247" y="262" type="line"/>
      <point x="146" y="262"/>
      <point x="90" y="301"/>
      <point x="90" y="377" type="curve" smooth="yes"/>
      <point x="90" y="455"/>
      <point x="146" y="484"/>
      <point x="247" y="484" type="curve" smooth="yes"/>
      <point x="352" y="484" type="line"/>
      <point x="352" y="262" type="line"/>
    </contour>
    <contour>
      <point x="48" y="0" type="line"/>
      <point x="85" y="0" type="line"/>
      <point x="244" y="245" type="line"/>
      <point x="211" y="252" type="line"/>
    </contour>
  </outline>
</glyph>
<glyph name="Yeru.sc" format="1">
  <advance width="679"/>
  <outline>
    <contour>
      <point x="100" y="0" type="line"/>
      <point x="240" y="0" type="line" smooth="yes"/>
      <point x="369" y="0"/>
      <point x="445" y="37"/>
      <point x="445" y="140" type="curve" smooth="yes"/>
      <point x="445" y="238"/>
      <point x="369" y="284"/>
      <point x="240" y="284" type="curve" smooth="yes"/>
      <point x="131" y="284" type="line"/>
      <point x="131" y="510" type="line"/>
      <point x="100" y="510" type="line"/>
    </contour>
    <contour>
      <point x="131" y="26" type="line"/>
      <point x="131" y="258" type="line"/>
      <point x="230" y="258" type="line"/>
      <point x="352" y="258"/>
      <point x="413" y="225"/>
      <point x="413" y="140" type="curve" smooth="yes"/>
      <point x="413" y="53"/>
      <point x="352" y="26"/>
      <point x="230" y="26" type="curve" smooth="yes"/>
    </contour>
    <contour>
      <point x="548" y="0" type="line"/>
      <point x="579" y="0" type="line"/>
      <point x="579" y="510" type="line"/>
      <point x="548" y="510" type="line"/>
    </contour>
  </outline>
</glyph>
<glyph name="Yu.sc" format="1">
  <advance width="763"/>
  <outline>
    <contour>
      <point x="100" y="0" type="line"/>
      <point x="132" y="0" type="line"/>
      <point x="132" y="258" type="line"/>
      <point x="291" y="258" type="line"/>
      <point x="291" y="286" type="line"/>
      <point x="132" y="286" type="line"/>
      <point x="132" y="510" type="line"/>
      <point x="100" y="510" type="line"/>
    </contour>
    <contour>
      <point x="276" y="258" type="curve" smooth="yes"/>
      <point x="276" y="98"/>
      <point x="364" y="-9"/>
      <point x="491" y="-9" type="curve" smooth="yes"/>
      <point x="618" y="-9"/>
      <point x="707" y="98"/>
      <point x="707" y="258" type="curve" smooth="yes"/>
      <point x="707" y="419"/>
      <point x="618" y="522"/>
      <point x="491" y="522" type="curve" smooth="yes"/>
      <point x="364" y="522"/>
      <point x="276" y="419"/>
    </contour>
    <contour>
      <point x="308" y="258" type="curve" smooth="yes"/>
      <point x="308" y="402"/>
      <point x="380" y="494"/>
      <point x="491" y="494" type="curve" smooth="yes"/>
      <point x="602" y="494"/>
      <point x="674" y="402"/>
      <point x="674" y="258" type="curve" smooth="yes"/>
      <point x="674" y="115"/>
      <point x="602" y="19"/>
      <point x="491" y="19" type="curve" smooth="yes"/>
      <point x="380" y="19"/>
      <point x="308" y="115"/>
    </contour>
  </outline>
</glyph>
<glyph name="Z.sups" format="1">
  <advance width="353"/>
  <outline>
    <contour>
      <point x="31" y="410" type="line"/>
      <point x="324" y="410" type="line"/>
      <point x="324" y="435" type="line"/>
      <point x="67" y="435" type="line"/>
      <point x="321" y="825" type="line"/>
      <point x="321" y="842" type="line"/>
      <point x="53" y="842" type="line"/>
      <point x="53" y="817" type="line"/>
      <point x="285" y="817" type="line"/>
      <point x="31" y="427" type="line"/>
    </contour>
  </outline>
</glyph>
<glyph name="Ze" format="1">
  <advance width="546"/>
  <outline>
    <contour>
      <point x="280" y="-12" type="curve" smooth="yes"/>
      <point x="400" y="-12"/>
      <point x="500" y="62"/>
      <point x="500" y="182" type="curve" smooth="yes"/>
      <point x="500" y="280"/>
      <point x="438" y="338"/>
      <point x="354" y="352" type="curve"/>
      <point x="354" y="356" type="line"/>
      <point x="424" y="376"/>
      <point x="464" y="435"/>
      <point x="464" y="510" type="curve" smooth="yes"/>
      <point x="464" y="612"/>
      <point x="376" y="672"/>
      <point x="274" y="672" type="curve" smooth="yes"/>
      <point x="194" y="672"/>
      <point x="122" y="636"/>
      <point x="84" y="594" type="curve"/>
      <point x="104" y="572" type="line"/>
      <point x="142" y="614"/>
      <point x="206" y="642"/>
      <point x="274" y="642" type="curve" smooth="yes"/>
      <point x="364" y="642"/>
      <point x="432" y="594"/>
      <point x="432" y="510" type="curve" smooth="yes"/>
      <point x="432" y="415"/>
      <point x="369" y="366"/>
      <point x="224" y="366" type="curve" smooth="yes"/>
      <point x="180" y="366" type="line"/>
      <point x="180" y="338" type="line"/>
      <point x="244" y="338" type="line" smooth="yes"/>
      <point x="382" y="338"/>
      <point x="468" y="287"/>
      <point x="468" y="180" type="curve" smooth="yes"/>
      <point x="468" y="75"/>
      <point x="380" y="18"/>
      <point x="280" y="18" type="curve" smooth="yes"/>
      <point x="190" y="18"/>
      <point x="135" y="42"/>
      <point x="70" y="110" type="curve"/>
      <point x="48" y="88" type="line"/>
      <point x="112" y="19"/>
      <point x="178" y="-12"/>
    </contour>
    <contour>
      <point x="276" y="682" type="move" name="aboveUC"/>
    </contour>
  </outline>
</glyph>
<glyph name="Ze.sc" format="1">
  <advance width="475"/>
  <outline>
    <contour>
      <point x="48" y="67" type="line"/>
      <point x="102" y="14"/>
      <point x="158" y="-12"/>
      <point x="243" y="-12" type="curve" smooth="yes"/>
      <point x="345" y="-12"/>
      <point x="429" y="48"/>
      <point x="429" y="141" type="curve" smooth="yes"/>
      <point x="429" y="215"/>
      <point x="377" y="262"/>
      <point x="296" y="274" type="curve"/>
      <point x="296" y="277" type="line"/>
      <point x="363" y="292"/>
      <point x="399" y="336"/>
      <point x="399" y="394" type="curve" smooth="yes"/>
      <point x="399" y="472"/>
      <point x="324" y="522"/>
      <point x="238" y="522" type="curve" smooth="yes"/>
      <point x="171" y="522"/>
      <point x="110" y="495"/>
      <point x="78" y="462" type="curve"/>
      <point x="96" y="441" type="line"/>
      <point x="129" y="473"/>
      <point x="181" y="494"/>
      <point x="238" y="494" type="curve" smooth="yes"/>
      <point x="312" y="494"/>
      <point x="368" y="455"/>
      <point x="368" y="392" type="curve" smooth="yes"/>
      <point x="368" y="322"/>
      <point x="317" y="286"/>
      <point x="197" y="286" type="curve" smooth="yes"/>
      <point x="159" y="286" type="line"/>
      <point x="159" y="260" type="line"/>
      <point x="214" y="260" type="line" smooth="yes"/>
      <point x="331" y="260"/>
      <point x="398" y="219"/>
      <point x="398" y="140" type="curve" smooth="yes"/>
      <point x="398" y="62"/>
      <point x="326" y="16"/>
      <point x="243" y="16" type="curve" smooth="yes"/>
      <point x="169" y="16"/>
      <point x="123" y="37"/>
      <point x="69" y="88" type="curve"/>
    </contour>
  </outline>
</glyph>
<glyph name="Zedescender" format="1">
  <advance width="546"/>
  <outline>
    <contour>
      <point x="262" y="-188" type="line"/>
      <point x="288" y="-188" type="line"/>
      <point x="294" y="12" type="line"/>
      <point x="262" y="0" type="line"/>
    </contour>
    <component base="Ze"/>
  </outline>
</glyph>
<glyph name="Zedescender.sc" format="1">
  <advance width="546"/>
  <outline>
    <contour>
      <point x="262" y="-188" type="line"/>
      <point x="288" y="-188" type="line"/>
      <point x="294" y="12" type="line"/>
      <point x="262" y="0" type="line"/>
    </contour>
    <component base="Ze"/>
  </outline>
</glyph>
<glyph name="Zhe.b" format="1">
  <advance width="746"/>
  <outline>
    <contour>
      <point x="16" y="0" type="line"/>
      <point x="52" y="0" type="line"/>
      <point x="246" y="338" type="line"/>
      <point x="356" y="338" type="line"/>
      <point x="356" y="0" type="line"/>
      <point x="388" y="0" type="line"/>
      <point x="388" y="338" type="line"/>
      <point x="498" y="338" type="line"/>
      <point x="692" y="0" type="line"/>
      <point x="728" y="0" type="line"/>
      <point x="524" y="356" type="line"/>
      <point x="724" y="660" type="line"/>
      <point x="686" y="660" type="line"/>
      <point x="496" y="366" type="line"/>
      <point x="388" y="366" type="line"/>
      <point x="388" y="660" type="line"/>
      <point x="356" y="660" type="line"/>
      <point x="356" y="366" type="line"/>
      <point x="248" y="366" type="line"/>
      <point x="58" y="660" type="line"/>
      <point x="20" y="660" type="line"/>
      <point x="220" y="356" type="line"/>
    </contour>
    <contour>
      <point x="372" y="682" type="move" name="aboveUC"/>
    </contour>
  </outline>
</glyph>
<glyph name="Zhe.sc" format="1">
  <advance width="637"/>
  <outline>
    <contour>
      <point x="546" y="682" type="move" name="aboveUC"/>
    </contour>
    <contour>
      <point x="16" y="0" type="line"/>
      <point x="51" y="0" type="line"/>
      <point x="212" y="259" type="line"/>
      <point x="302" y="259" type="line"/>
      <point x="302" y="0" type="line"/>
      <point x="333" y="0" type="line"/>
      <point x="333" y="259" type="line"/>
      <point x="424" y="259" type="line"/>
      <point x="585" y="0" type="line"/>
      <point x="620" y="0" type="line"/>
      <point x="449" y="276" type="line"/>
      <point x="616" y="510" type="line"/>
      <point x="580" y="510" type="line"/>
      <point x="422" y="286" type="line"/>
      <point x="333" y="286" type="line"/>
      <point x="333" y="510" type="line"/>
      <point x="302" y="510" type="line"/>
      <point x="302" y="286" type="line"/>
      <point x="214" y="286" type="line"/>
      <point x="56" y="510" type="line"/>
      <point x="20" y="510" type="line"/>
      <point x="187" y="276" type="line"/>
    </contour>
  </outline>
</glyph>
<glyph name="a" format="1">
  <advance width="494"/>
  <outline>
    <contour>
      <point x="68" y="117" type="curve" smooth="yes"/>
      <point x="68" y="26"/>
      <point x="132" y="-12"/>
      <point x="206" y="-12" type="curve" smooth="yes"/>
      <point x="270" y="-12"/>
      <point x="330" y="24"/>
      <point x="380" y="64" type="curve"/>
      <point x="382" y="64" type="line"/>
      <point x="386" y="0" type="line"/>
      <point x="412" y="0" type="line"/>
      <point x="412" y="310" type="line" smooth="yes"/>
      <point x="412" y="406"/>
      <point x="378" y="490"/>
      <point x="266" y="490" type="curve" smooth="yes"/>
      <point x="188" y="490"/>
      <point x="122" y="450"/>
      <point x="92" y="428" type="curve"/>
      <point x="108" y="404" type="line"/>
      <point x="138" y="428"/>
      <point x="196" y="462"/>
      <point x="264" y="462" type="curve" smooth="yes"/>
      <point x="364" y="462"/>
      <point x="384" y="376"/>
      <point x="382" y="298" type="curve"/>
      <point x="166" y="274"/>
      <point x="68" y="224"/>
    </contour>
    <contour>
      <point x="100" y="118" type="curve" smooth="yes"/>
      <point x="100" y="200"/>
      <point x="172" y="248"/>
      <point x="382" y="272" type="curve"/>
      <point x="382" y="98" type="line"/>
      <point x="318" y="44"/>
      <point x="266" y="16"/>
      <point x="208" y="16" type="curve" smooth="yes"/>
      <point x="150" y="16"/>
      <point x="100" y="44"/>
    </contour>
    <contour>
      <point x="260" y="500" type="move" name="aboveLC"/>
    </contour>
    <contour>
      <point x="242" y="-22" type="move" name="belowLC"/>
    </contour>
    <contour>
      <point x="404" y="0" type="move" name="ogonekLC"/>
    </contour>
  </outline>
</glyph>
<glyph name="acircumflexacute.alt" format="1">
  <advance width="540"/>
  <outline>
    <component base="ascript"/>
    <component base="circumflexacute" xOffset="269"/>
    <contour>
      <point x="268" y="500" type="move" name="aboveLC"/>
    </contour>
    <contour>
      <point x="268" y="-22" type="move" name="belowLC"/>
    </contour>
  </outline>
</glyph>
<glyph name="acutecmb.cap" format="1">
  <advance width="0"/>
  <outline>
    <contour>
      <point x="-22" y="710" type="line"/>
      <point x="104" y="822" type="line"/>
      <point x="82" y="846" type="line"/>
      <point x="-36" y="726" type="line"/>
    </contour>
    <contour>
      <point x="0" y="682" type="move" name="_aboveUC"/>
    </contour>
  </outline>
</glyph>
<glyph name="aogonek" format="1">
  <advance width="494"/>
  <outline>
    <contour>
      <point x="100" y="118" type="curve" smooth="yes"/>
      <point x="100" y="200"/>
      <point x="172" y="248"/>
      <point x="382" y="272" type="curve"/>
      <point x="382" y="98" type="line"/>
      <point x="318" y="44"/>
      <point x="266" y="16"/>
      <point x="208" y="16" type="curve" smooth="yes"/>
      <point x="150" y="16"/>
      <point x="100" y="44"/>
    </contour>
    <contour>
      <point x="68" y="116" type="curve" smooth="yes"/>
      <point x="68" y="26"/>
      <point x="132" y="-12"/>
      <point x="206" y="-12" type="curve" smooth="yes"/>
      <point x="270" y="-12"/>
      <point x="330" y="24"/>
      <point x="380" y="64" type="curve"/>
      <point x="382" y="64" type="line"/>
      <point x="386" y="8" type="line"/>
      <point x="336" y="-22"/>
      <point x="296" y="-72"/>
      <point x="296" y="-122" type="curve" smooth="yes"/>
      <point x="296" y="-176"/>
      <point x="330" y="-202"/>
      <point x="374" y="-202" type="curve" smooth="yes"/>
      <point x="394" y="-202"/>
      <point x="420" y="-192"/>
      <point x="434" y="-180" type="curve"/>
      <point x="420" y="-160" type="line"/>
      <point x="406" y="-170"/>
      <point x="394" y="-174"/>
      <point x="376" y="-174" type="curve" smooth="yes"/>
      <point x="350" y="-174"/>
      <point x="326" y="-156"/>
      <point x="326" y="-120" type="curve" smooth="yes"/>
      <point x="326" y="-76"/>
      <point x="364" y="-26"/>
      <point x="412" y="0" type="curve"/>
      <point x="412" y="310" type="line" smooth="yes"/>
      <point x="412" y="406"/>
      <point x="378" y="490"/>
      <point x="266" y="490" type="curve" smooth="yes"/>
      <point x="188" y="490"/>
      <point x="122" y="450"/>
      <point x="92" y="428" type="curve"/>
      <point x="108" y="404" type="line"/>
      <point x="138" y="428"/>
      <point x="196" y="462"/>
      <point x="264" y="462" type="curve" smooth="yes"/>
      <point x="364" y="462"/>
      <point x="384" y="376"/>
      <point x="382" y="298" type="curve"/>
      <point x="166" y="274"/>
      <point x="68" y="224"/>
    </contour>
    <contour>
      <point x="260" y="500" type="move" name="aboveLC"/>
    </contour>
  </outline>
</glyph>
<glyph name="arrowleft" format="1">
  <advance width="620"/>
  <outline>
    <contour>
      <point x="298" y="-14" type="line"/>
      <point x="318" y="6" type="line"/>
      <point x="76" y="238" type="line"/>
      <point x="580" y="238" type="line"/>
      <point x="580" y="266" type="line"/>
      <point x="76" y="266" type="line"/>
      <point x="318" y="498" type="line"/>
      <point x="298" y="518" type="line"/>
      <point x="30" y="254" type="line"/>
      <point x="30" y="250" type="line"/>
    </contour>
  </outline>
</glyph>
<glyph name="aturned" format="1">
  <advance width="494"/>
  <outline>
    <contour>
      <point x="264" y="-12" type="curve" smooth="yes"/>
      <point x="337" y="-12"/>
      <point x="400" y="28"/>
      <point x="428" y="50" type="curve"/>
      <point x="412" y="74" type="line"/>
      <point x="384" y="50"/>
      <point x="330" y="16"/>
      <point x="266" y="16" type="curve" smooth="yes"/>
      <point x="142" y="16"/>
      <point x="116" y="108"/>
      <point x="118" y="180" type="curve"/>
      <point x="334" y="205"/>
      <point x="432" y="258"/>
      <point x="432" y="371" type="curve" smooth="yes"/>
      <point x="432" y="455"/>
      <point x="373" y="490"/>
      <point x="304" y="490" type="curve" smooth="yes"/>
      <point x="240" y="490"/>
      <point x="173" y="456"/>
      <point x="120" y="404" type="curve"/>
      <point x="118" y="404" type="line"/>
      <point x="114" y="478" type="line"/>
      <point x="88" y="478" type="line"/>
      <point x="88" y="178" type="line" smooth="yes"/>
      <point x="88" y="77"/>
      <point x="128" y="-12"/>
    </contour>
    <contour>
      <point x="118" y="206" type="curve"/>
      <point x="118" y="368" type="line"/>
      <point x="186" y="436"/>
      <point x="246" y="462"/>
      <point x="302" y="462" type="curve" smooth="yes"/>
      <point x="355" y="462"/>
      <point x="400" y="437"/>
      <point x="400" y="370" type="curve" smooth="yes"/>
      <point x="400" y="283"/>
      <point x="328" y="232"/>
    </contour>
    <contour>
      <point x="270" y="502" type="move" name="aboveLC"/>
    </contour>
    <contour>
      <point x="272" y="-22" type="move" name="belowLC"/>
    </contour>
    <contour>
      <point x="324" y="0" type="move" name="ogonekLC"/>
    </contour>
  </outline>
</glyph>
<glyph name="b.sups" format="1">
  <advance width="364"/>
  <outline>
    <contour>
      <point x="186" y="262" type="curve" smooth="yes"/>
      <point x="262" y="262"/>
      <point x="326" y="326"/>
      <point x="326" y="434" type="curve" smooth="yes"/>
      <point x="326" y="532"/>
      <point x="284" y="594"/>
      <point x="196" y="594" type="curve" smooth="yes"/>
      <point x="154" y="594"/>
      <point x="120" y="570"/>
      <point x="86" y="542" type="curve"/>
      <point x="88" y="606" type="line"/>
      <point x="88" y="744" type="line"/>
      <point x="60" y="744" type="line"/>
      <point x="60" y="270" type="line"/>
      <point x="82" y="270" type="line"/>
      <point x="86" y="300" type="line"/>
      <point x="90" y="300" type="line"/>
      <point x="120" y="276"/>
      <point x="156" y="262"/>
    </contour>
    <contour>
      <point x="188" y="288" type="curve" smooth="yes"/>
      <point x="160" y="288"/>
      <point x="122" y="300"/>
      <point x="88" y="330" type="curve"/>
      <point x="88" y="514" type="line"/>
      <point x="124" y="548"/>
      <point x="162" y="568"/>
      <point x="194" y="568" type="curve" smooth="yes"/>
      <point x="266" y="568"/>
      <point x="296" y="512"/>
      <point x="296" y="434" type="curve" smooth="yes"/>
      <point x="296" y="346"/>
      <point x="250" y="288"/>
    </contour>
  </outline>
</glyph>
<glyph name="bardbl" format="1">
  <advance width="340"/>
  <outline>
    <contour>
      <point x="96" y="-250" type="line"/>
      <point x="124" y="-250" type="line"/>
      <point x="124" y="750" type="line"/>
      <point x="96" y="750" type="line"/>
    </contour>
    <contour>
      <point x="216" y="-250" type="line"/>
      <point x="244" y="-250" type="line"/>
      <point x="244" y="750" type="line"/>
      <point x="216" y="750" type="line"/>
    </contour>
  </outline>
</glyph>
<glyph name="beta.alt" format="1">
  <advance width="540"/>
  <outline>
    <contour>
      <point x="300" y="-12" type="curve" smooth="yes"/>
      <point x="408" y="-12"/>
      <point x="490" y="70"/>
      <point x="490" y="182" type="curve" smooth="yes"/>
      <point x="490" y="296"/>
      <point x="426" y="376"/>
      <point x="304" y="384" type="curve"/>
      <point x="304" y="388" type="line"/>
      <point x="382" y="428"/>
      <point x="424" y="492"/>
      <point x="424" y="568" type="curve" smooth="yes"/>
      <point x="424" y="678"/>
      <point x="348" y="732"/>
      <point x="270" y="732" type="curve" smooth="yes"/>
      <point x="153" y="732"/>
      <point x="96" y="640"/>
      <point x="96" y="512" type="curve" smooth="yes"/>
      <point x="96" y="212" type="line" smooth="yes"/>
      <point x="96" y="42"/>
      <point x="214" y="-12"/>
    </contour>
    <contour>
      <point x="300" y="16" type="curve" smooth="yes"/>
      <point x="243" y="16"/>
      <point x="126" y="50"/>
      <point x="126" y="224" type="curve" smooth="yes"/>
      <point x="126" y="320"/>
      <point x="126" y="366"/>
      <point x="126" y="498" type="curve" smooth="yes"/>
      <point x="126" y="638"/>
      <point x="184" y="702"/>
      <point x="272" y="702" type="curve" smooth="yes"/>
      <point x="338" y="702"/>
      <point x="392" y="660"/>
      <point x="392" y="568" type="curve" smooth="yes"/>
      <point x="392" y="464"/>
      <point x="308" y="386"/>
      <point x="112" y="357" type="curve"/>
      <point x="120" y="329" type="line"/>
      <point x="217" y="354"/>
      <point x="268" y="358"/>
      <point x="286" y="358" type="curve" smooth="yes"/>
      <point x="406" y="358"/>
      <point x="458" y="276"/>
      <point x="458" y="182" type="curve" smooth="yes"/>
      <point x="458" y="84"/>
      <point x="394" y="16"/>
    </contour>
  </outline>
</glyph>
<glyph name="bracketright" format="1">
  <advance width="270"/>
  <outline>
    <contour>
      <point x="18" y="-152" type="line"/>
      <point x="170" y="-152" type="line"/>
      <point x="170" y="708" type="line"/>
      <point x="18" y="708" type="line"/>
      <point x="18" y="686" type="line"/>
      <point x="146" y="686" type="line"/>
      <point x="146" y="-130" type="line"/>
      <point x="18" y="-130" type="line"/>
    </contour>
  </outline>
</glyph>
<glyph name="breveacute.cap" format="1">
  <advance width="0"/>
  <outline>
    <contour>
      <point x="-34" y="798" type="line"/>
      <point x="-6" y="798" type="line"/>
      <point x="88" y="892" type="line"/>
      <point x="48" y="892" type="line"/>
    </contour>
    <contour>
      <point x="0" y="712" type="curve" smooth="yes"/>
      <point x="70" y="712"/>
      <point x="104" y="768"/>
      <point x="110" y="810" type="curve"/>
      <point x="84" y="810" type="line"/>
      <point x="76" y="774"/>
      <point x="52" y="738"/>
      <point x="0" y="738" type="curve" smooth="yes"/>
      <point x="-52" y="738"/>
      <point x="-76" y="774"/>
      <point x="-84" y="810" type="curve"/>
      <point x="-110" y="810" type="line"/>
      <point x="-104" y="768"/>
      <point x="-70" y="712"/>
    </contour>
    <contour>
      <point x="0" y="682" type="move" name="_aboveUC"/>
    </contour>
  </outline>
</glyph>
<glyph name="breveacute" format="1">
  <advance width="0"/>
  <outline>
    <contour>
      <point x="-40" y="664" type="line"/>
      <point x="-12" y="664" type="line"/>
      <point x="74" y="772" type="line"/>
      <point x="36" y="772" type="line"/>
    </contour>
    <component base="brevecmb"/>
    <contour>
      <point x="0" y="502" type="move" name="_aboveLC"/>
    </contour>
  </outline>
</glyph>
<glyph name="brevecmb.cap" format="1">
  <advance width="0"/>
  <outline>
    <contour>
      <point x="0" y="682" type="move" name="_aboveUC"/>
    </contour>
    <contour>
      <point x="0" y="712" type="curve" smooth="yes"/>
      <point x="74" y="712"/>
      <point x="106" y="770"/>
      <point x="112" y="818" type="curve"/>
      <point x="86" y="818" type="line"/>
      <point x="80" y="776"/>
      <point x="54" y="738"/>
      <point x="0" y="738" type="curve" smooth="yes"/>
      <point x="-54" y="738"/>
      <point x="-80" y="776"/>
      <point x="-86" y="818" type="curve"/>
      <point x="-112" y="818" type="line"/>
      <point x="-106" y="770"/>
      <point x="-74" y="712"/>
    </contour>
  </outline>
</glyph>
<glyph name="brevecmb.cyr" format="1">
  <advance width="0"/>
  <outline>
    <contour>
      <point x="0" y="502" type="move" name="_aboveLC"/>
    </contour>
    <contour>
      <point x="0" y="572" type="curve" smooth="yes"/>
      <point x="90" y="572"/>
      <point x="120" y="644"/>
      <point x="124" y="696" type="curve"/>
      <point x="94" y="696" type="line"/>
      <point x="92" y="648"/>
      <point x="70" y="596"/>
      <point x="0" y="596" type="curve" smooth="yes"/>
      <point x="-70" y="596"/>
      <point x="-92" y="648"/>
      <point x="-94" y="696" type="curve"/>
      <point x="-124" y="696" type="line"/>
      <point x="-120" y="644"/>
      <point x="-90" y="572"/>
    </contour>
  </outline>
</glyph>
<glyph name="brevehoi" format="1">
  <advance width="0"/>
  <outline>
    <contour>
      <point x="-20" y="670" type="line"/>
      <point x="18" y="678"/>
      <point x="64.0" y="700.810810811"/>
      <point x="64" y="746" type="curve" smooth="yes"/>
      <point x="64.0" y="795.411764706"/>
      <point x="10.037155069" y="813.963608594"/>
      <point x="-48" y="816" type="curve"/>
      <point x="-50" y="790" type="line"/>
      <point x="6" y="788"/>
      <point x="34.0" y="774.0"/>
      <point x="34" y="742" type="curve" smooth="yes"/>
      <point x="34.0" y="718.0"/>
      <point x="7" y="702"/>
      <point x="-28" y="694" type="curve"/>
    </contour>
    <component base="brevecmb"/>
    <contour>
      <point x="0.0" y="502.0" type="move" name="_aboveLC"/>
    </contour>
  </outline>
</glyph>
<glyph name="breveinvertedbelowcmb" format="1">
  <advance width="0"/>
  <outline>
    <contour>
      <point x="-116" y="-212" type="curve"/>
      <point x="-90" y="-212" type="line"/>
      <point x="-84" y="-168"/>
      <point x="-56" y="-122"/>
      <point x="0" y="-122" type="curve" smooth="yes"/>
      <point x="56" y="-122"/>
      <point x="84" y="-168"/>
      <point x="90" y="-212" type="curve"/>
      <point x="116" y="-212" type="line"/>
      <point x="110" y="-164"/>
      <point x="80" y="-96"/>
      <point x="0" y="-96" type="curve" smooth="yes"/>
      <point x="-80" y="-96"/>
      <point x="-110" y="-164"/>
    </contour>
    <contour>
      <point x="0" y="-22" type="move" name="_belowLC"/>
    </contour>
  </outline>
</glyph>
<glyph name="breveinvertedcmb.cap" format="1">
  <advance width="0"/>
  <outline>
    <contour>
      <point x="0" y="682" type="move" name="_aboveUC"/>
    </contour>
    <contour>
      <point x="0" y="816" type="curve" smooth="yes"/>
      <point x="-74" y="816"/>
      <point x="-106" y="758"/>
      <point x="-112" y="710" type="curve"/>
      <point x="-86" y="710" type="line"/>
      <point x="-80" y="752"/>
      <point x="-54" y="790"/>
      <point x="0" y="790" type="curve" smooth="yes"/>
      <point x="54" y="790"/>
      <point x="80" y="752"/>
      <point x="86" y="710" type="curve"/>
      <point x="112" y="710" type="line"/>
      <point x="106" y="758"/>
      <point x="74" y="816"/>
    </contour>
  </outline>
</glyph>
<glyph name="bridgebelowcmb" format="1">
  <advance width="0"/>
  <outline>
    <contour>
      <point x="-106" y="-136" type="line"/>
      <point x="106" y="-136" type="line"/>
      <point x="106" y="-108" type="line"/>
      <point x="-106" y="-108" type="line"/>
    </contour>
    <contour>
      <point x="-106" y="-212" type="line"/>
      <point x="-80" y="-212" type="line"/>
      <point x="-80" y="-108" type="line"/>
      <point x="-106" y="-108" type="line"/>
    </contour>
    <contour>
      <point x="80" y="-212" type="line"/>
      <point x="106" y="-212" type="line"/>
      <point x="106" y="-108" type="line"/>
      <point x="80" y="-108" type="line"/>
    </contour>
    <contour>
      <point x="0" y="-22" type="move" name="_belowLC"/>
    </contour>
  </outline>
</glyph>
<glyph name="bridgeinvertedbelowcmb" format="1">
  <advance width="0"/>
  <outline>
    <contour>
      <point x="-106" y="-190" type="line"/>
      <point x="106" y="-190" type="line"/>
      <point x="106" y="-162" type="line"/>
      <point x="-106" y="-162" type="line"/>
    </contour>
    <contour>
      <point x="80" y="-190" type="line"/>
      <point x="106" y="-190" type="line"/>
      <point x="106" y="-86" type="line"/>
      <point x="80" y="-86" type="line"/>
    </contour>
    <contour>
      <point x="-106" y="-190" type="line"/>
      <point x="-80" y="-190" type="line"/>
      <point x="-80" y="-86" type="line"/>
      <point x="-106" y="-86" type="line"/>
    </contour>
    <contour>
      <point x="0" y="-22" type="move" name="_belowLC"/>
    </contour>
  </outline>
</glyph>
<glyph name="bstroke" format="1">
  <advance width="522"/>
  <outline>
    <contour>
      <point x="96" y="0" type="line"/>
      <point x="122" y="0" type="line"/>
      <point x="126" y="44" type="line"/>
      <point x="128" y="44" type="line"/>
      <point x="174" y="10"/>
      <point x="228" y="-12"/>
      <point x="274" y="-12" type="curve" smooth="yes"/>
      <point x="388" y="-12"/>
      <point x="486" y="80"/>
      <point x="486" y="236" type="curve" smooth="yes"/>
      <point x="486" y="378"/>
      <point x="424" y="470"/>
      <point x="294" y="470" type="curve" smooth="yes"/>
      <point x="234" y="470"/>
      <point x="174" y="434"/>
      <point x="124" y="392" type="curve"/>
      <point x="126" y="488" type="line"/>
      <point x="126" y="722" type="line"/>
      <point x="96" y="722" type="line"/>
    </contour>
    <contour>
      <point x="126" y="82" type="curve"/>
      <point x="126" y="358" type="line"/>
      <point x="186" y="412"/>
      <point x="242" y="442"/>
      <point x="292" y="442" type="curve" smooth="yes"/>
      <point x="410" y="442"/>
      <point x="454" y="352"/>
      <point x="454" y="236" type="curve" smooth="yes"/>
      <point x="454" y="108"/>
      <point x="380" y="16"/>
      <point x="276" y="16" type="curve" smooth="yes"/>
      <point x="238" y="16"/>
      <point x="182" y="34"/>
    </contour>
    <contour>
      <point x="18" y="584" type="line"/>
      <point x="318" y="584" type="line"/>
      <point x="318" y="612" type="line"/>
      <point x="96" y="612" type="line"/>
      <point x="18" y="608" type="line"/>
    </contour>
  </outline>
</glyph>
<glyph name="bullet" format="1">
  <advance width="272"/>
  <outline>
    <contour>
      <point x="136" y="158" type="curve" smooth="yes"/>
      <point x="184" y="158"/>
      <point x="232" y="198"/>
      <point x="232" y="264" type="curve" smooth="yes"/>
      <point x="232" y="330"/>
      <point x="184" y="370"/>
      <point x="136" y="370" type="curve" smooth="yes"/>
      <point x="88" y="370"/>
      <point x="40" y="330"/>
      <point x="40" y="264" type="curve" smooth="yes"/>
      <point x="40" y="198"/>
      <point x="88" y="158"/>
    </contour>
  </outline>
</glyph>
<glyph name="caroncmb.cap" format="1">
  <advance width="0"/>
  <outline>
    <contour>
      <point x="80" y="814" type="line"/>
      <point x="2" y="740" type="line"/>
      <point x="-2" y="740" type="line"/>
      <point x="-80" y="814" type="line"/>
      <point x="-110" y="814" type="line"/>
      <point x="-14" y="710" type="line"/>
      <point x="14" y="710" type="line"/>
      <point x="110" y="814" type="line"/>
    </contour>
    <contour>
      <point x="0" y="682" type="move" name="_aboveUC"/>
    </contour>
  </outline>
</glyph>
<glyph name="caroncmb" format="1">
  <advance width="0"/>
  <outline>
    <contour>
      <point x="-14" y="572" type="line"/>
      <point x="14" y="572" type="line"/>
      <point x="108" y="706" type="line"/>
      <point x="80" y="706" type="line"/>
      <point x="2" y="604" type="line"/>
      <point x="-2" y="604" type="line"/>
      <point x="-80" y="706" type="line"/>
      <point x="-108" y="706" type="line"/>
    </contour>
    <contour>
      <point x="0" y="500" type="move" name="_aboveLC"/>
    </contour>
  </outline>
</glyph>
<glyph name="cedillacmb.cap" format="1">
  <advance width="0"/>
  <outline>
    <contour>
      <point x="-44" y="-74" type="line"/>
      <point x="-6" y="-84"/>
      <point x="24" y="-96"/>
      <point x="24" y="-128" type="curve" smooth="yes"/>
      <point x="24" y="-156"/>
      <point x="-14" y="-172"/>
      <point x="-70" y="-180" type="curve"/>
      <point x="-64" y="-206" type="line"/>
      <point x="-4" y="-198"/>
      <point x="54" y="-174"/>
      <point x="54" y="-124" type="curve" smooth="yes"/>
      <point x="54" y="-84"/>
      <point x="26" y="-66"/>
      <point x="-6" y="-56" type="curve"/>
      <point x="24" y="2" type="line"/>
      <point x="-4" y="2" type="line"/>
    </contour>
    <contour>
      <point x="0" y="0" type="move" name="_baseLC"/>
    </contour>
  </outline>
</glyph>
<glyph name="circumflexacute.cap" format="1">
  <advance width="0"/>
  <outline>
    <contour>
      <point x="74" y="770" type="line"/>
      <point x="100" y="770" type="line"/>
      <point x="184" y="874" type="line"/>
      <point x="146" y="874" type="line"/>
    </contour>
    <contour>
      <point x="-104" y="710" type="line"/>
      <point x="-74" y="710" type="line"/>
      <point x="-2" y="778" type="line"/>
      <point x="2" y="778" type="line"/>
      <point x="74" y="710" type="line"/>
      <point x="104" y="710" type="line"/>
      <point x="14" y="808" type="line"/>
      <point x="-14" y="808" type="line"/>
    </contour>
    <contour>
      <point x="0" y="682" type="move" name="_aboveUC"/>
    </contour>
  </outline>
</glyph>
<glyph name="circumflexacute" format="1">
  <advance width="0"/>
  <outline>
    <contour>
      <point x="-98" y="572" type="line"/>
      <point x="-70" y="572" type="line"/>
      <point x="-2" y="652" type="line"/>
      <point x="2" y="652" type="line"/>
      <point x="70" y="572" type="line"/>
      <point x="98" y="572" type="line"/>
      <point x="14" y="684" type="line"/>
      <point x="-14" y="684" type="line"/>
    </contour>
    <contour>
      <point x="74" y="636" type="line"/>
      <point x="100" y="636" type="line"/>
      <point x="190" y="746" type="line"/>
      <point x="152" y="746" type="line"/>
    </contour>
    <contour>
      <point x="0" y="502" type="move" name="_aboveLC"/>
    </contour>
  </outline>
</glyph>
<glyph name="circumflexbreve" format="1">
  <advance width="0"/>
  <outline>
    <contour>
      <point x="-106" y="570" type="line"/>
      <point x="-78" y="570" type="line"/>
      <point x="-2" y="640" type="line"/>
      <point x="2" y="640" type="line"/>
      <point x="78" y="570" type="line"/>
      <point x="106" y="570" type="line"/>
      <point x="14" y="668" type="line"/>
      <point x="-14" y="668" type="line"/>
    </contour>
    <contour>
      <point x="0" y="694" type="curve" smooth="yes"/>
      <point x="68" y="694"/>
      <point x="99" y="737"/>
      <point x="104" y="776" type="curve"/>
      <point x="78" y="776" type="line"/>
      <point x="73" y="744"/>
      <point x="48" y="720"/>
      <point x="0" y="720" type="curve" smooth="yes"/>
      <point x="-48" y="720"/>
      <point x="-73" y="744"/>
      <point x="-78" y="776" type="curve"/>
      <point x="-104" y="776" type="line"/>
      <point x="-99" y="737"/>
      <point x="-68" y="694"/>
    </contour>
    <contour>
      <point x="0" y="502" type="move" name="_aboveLC"/>
    </contour>
  </outline>
</glyph>
<glyph name="circumflexcmb.cap" format="1">
  <advance width="0"/>
  <outline>
    <contour>
      <point x="-80" y="710" type="line"/>
      <point x="-2" y="784" type="line"/>
      <point x="2" y="784" type="line"/>
      <point x="80" y="710" type="line"/>
      <point x="110" y="710" type="line"/>
      <point x="14" y="814" type="line"/>
      <point x="-14" y="814" type="line"/>
      <point x="-110" y="710" type="line"/>
    </contour>
    <contour>
      <point x="0" y="682" type="move" name="_aboveUC"/>
    </contour>
  </outline>
</glyph>
<glyph name="circumflexcmb" format="1">
  <advance width="0"/>
  <outline>
    <contour>
      <point x="-118" y="572" type="line"/>
      <point x="-90" y="572" type="line"/>
      <point x="-2" y="694" type="line"/>
      <point x="2" y="694" type="line"/>
      <point x="90" y="572" type="line"/>
      <point x="118" y="572" type="line"/>
      <point x="14" y="726" type="line"/>
      <point x="-14" y="726" type="line"/>
    </contour>
    <contour>
      <point x="0" y="502" type="move" name="_aboveLC"/>
    </contour>
    <contour>
      <point x="0" y="728" type="move" name="aboveLC"/>
    </contour>
  </outline>
</glyph>
<glyph name="circumflexgrave.cap" format="1">
  <advance width="0"/>
  <outline>
    <contour>
      <point x="0" y="682" type="move" name="_aboveUC"/>
    </contour>
    <contour>
      <point x="114" y="770" type="line"/>
      <point x="140" y="770" type="line"/>
      <point x="68" y="874" type="line"/>
      <point x="30" y="874" type="line"/>
    </contour>
    <contour>
      <point x="-74" y="710" type="line"/>
      <point x="-2" y="778" type="line"/>
      <point x="2" y="778" type="line"/>
      <point x="74" y="710" type="line"/>
      <point x="104" y="710" type="line"/>
      <point x="14" y="808" type="line"/>
      <point x="-14" y="808" type="line"/>
      <point x="-104" y="710" type="line"/>
    </contour>
  </outline>
</glyph>
<glyph name="circumflextilde.cap" format="1">
  <advance width="0"/>
  <outline>
    <contour>
      <point x="0" y="682" type="move" name="_aboveUC"/>
    </contour>
    <contour>
      <point x="-74" y="710" type="line"/>
      <point x="-2" y="778" type="line"/>
      <point x="2" y="778" type="line"/>
      <point x="74" y="710" type="line"/>
      <point x="104" y="710" type="line"/>
      <point x="14" y="808" type="line"/>
      <point x="-14" y="808" type="line"/>
      <point x="-104" y="710" type="line"/>
    </contour>
    <contour>
      <point x="50" y="842" type="curve" smooth="yes"/>
      <point x="97" y="842"/>
      <point x="116" y="886"/>
      <point x="118" y="918" type="curve"/>
      <point x="94" y="918" type="line"/>
      <point x="90" y="888"/>
      <point x="74" y="868"/>
      <point x="52" y="868" type="curve" smooth="yes"/>
      <point x="16" y="868"/>
      <point x="-2" y="918"/>
      <point x="-50" y="918" type="curve" smooth="yes"/>
      <point x="-97" y="918"/>
      <point x="-116" y="874"/>
      <point x="-118" y="842" type="curve"/>
      <point x="-94" y="842" type="line"/>
      <point x="-90" y="872"/>
      <point x="-74" y="892"/>
      <point x="-52" y="892" type="curve" smooth="yes"/>
      <point x="-16" y="892"/>
      <point x="2" y="842"/>
    </contour>
  </outline>
</glyph>
<glyph name="circumflextilde" format="1">
  <advance width="0"/>
  <outline>
    <contour>
      <point x="-106" y="570" type="line"/>
      <point x="-78" y="570" type="line"/>
      <point x="-2" y="640" type="line"/>
      <point x="2" y="640" type="line"/>
      <point x="78" y="570" type="line"/>
      <point x="106" y="570" type="line"/>
      <point x="14" y="668" type="line"/>
      <point x="-14" y="668" type="line"/>
    </contour>
    <contour>
      <point x="-118" y="704" type="curve"/>
      <point x="-94" y="704" type="line"/>
      <point x="-90" y="734"/>
      <point x="-74" y="750"/>
      <point x="-52" y="750" type="curve" smooth="yes"/>
      <point x="-16" y="750"/>
      <point x="2" y="704"/>
      <point x="50" y="704" type="curve" smooth="yes"/>
      <point x="97" y="704"/>
      <point x="116" y="744"/>
      <point x="118" y="776" type="curve"/>
      <point x="94" y="776" type="line"/>
      <point x="90" y="746"/>
      <point x="74" y="730"/>
      <point x="52" y="730" type="curve" smooth="yes"/>
      <point x="16" y="730"/>
      <point x="-2" y="776"/>
      <point x="-50" y="776" type="curve" smooth="yes"/>
      <point x="-97" y="776"/>
      <point x="-116" y="736"/>
    </contour>
    <contour>
      <point x="0" y="502" type="move" name="_aboveLC"/>
    </contour>
  </outline>
</glyph>
<glyph name="colon.sups" format="1">
  <advance width="152"/>
  <outline>
    <contour>
      <point x="44" y="466" type="curve" smooth="yes"/>
      <point x="44" y="444"/>
      <point x="58" y="432"/>
      <point x="76" y="432" type="curve" smooth="yes"/>
      <point x="94" y="432"/>
      <point x="108" y="444"/>
      <point x="108" y="466" type="curve" smooth="yes"/>
      <point x="108" y="488"/>
      <point x="94" y="500"/>
      <point x="76" y="500" type="curve" smooth="yes"/>
      <point x="58" y="500"/>
      <point x="44" y="488"/>
    </contour>
    <contour>
      <point x="44" y="706" type="curve" smooth="yes"/>
      <point x="44" y="684"/>
      <point x="58" y="672"/>
      <point x="76" y="672" type="curve" smooth="yes"/>
      <point x="94" y="672"/>
      <point x="108" y="684"/>
      <point x="108" y="706" type="curve" smooth="yes"/>
      <point x="108" y="728"/>
      <point x="94" y="740"/>
      <point x="76" y="740" type="curve" smooth="yes"/>
      <point x="58" y="740"/>
      <point x="44" y="728"/>
    </contour>
  </outline>
</glyph>
<glyph name="colontriangularmod" format="1">
  <advance width="208"/>
  <outline>
    <contour>
      <point x="100" y="348" type="line"/>
      <point x="108" y="348" type="line"/>
      <point x="152" y="442" type="line"/>
      <point x="56" y="442" type="line"/>
    </contour>
    <contour>
      <point x="108" y="96" type="line"/>
      <point x="100" y="96" type="line"/>
      <point x="56" y="0" type="line"/>
      <point x="152" y="0" type="line"/>
    </contour>
  </outline>
</glyph>
<glyph name="commaabovecmb" format="1">
  <advance width="0"/>
  <outline>
    <contour>
      <point x="-26" y="546" type="line"/>
      <point x="22" y="572"/>
      <point x="40" y="614"/>
      <point x="40" y="654" type="curve" smooth="yes"/>
      <point x="40" y="692"/>
      <point x="26" y="712"/>
      <point x="2" y="712" type="curve" smooth="yes"/>
      <point x="-14" y="712"/>
      <point x="-28" y="702"/>
      <point x="-28" y="678" type="curve" smooth="yes"/>
      <point x="-28" y="656"/>
      <point x="-10" y="648"/>
      <point x="4" y="648" type="curve" smooth="yes"/>
      <point x="16" y="648"/>
      <point x="24" y="652"/>
      <point x="34" y="666" type="curve"/>
      <point x="-4" y="698" type="line"/>
      <point x="12" y="650" type="line"/>
      <point x="12" y="618"/>
      <point x="-2" y="590"/>
      <point x="-40" y="568" type="curve"/>
    </contour>
    <contour>
      <point x="0" y="502" type="move" name="_aboveLC"/>
    </contour>
  </outline>
</glyph>
<glyph name="commabelowcmb.alt" format="1">
  <advance width="0"/>
  <outline>
    <contour>
      <point x="22" y="538" type="curve"/>
      <point x="32" y="564" type="line"/>
      <point x="4" y="570"/>
      <point x="-26" y="582"/>
      <point x="-26" y="614" type="curve" smooth="yes"/>
      <point x="-26" y="642"/>
      <point x="12" y="658"/>
      <point x="68" y="666" type="curve"/>
      <point x="62" y="692" type="line"/>
      <point x="2" y="684"/>
      <point x="-56" y="660"/>
      <point x="-56" y="610" type="curve" smooth="yes"/>
      <point x="-56" y="570"/>
      <point x="-28" y="550"/>
    </contour>
    <contour>
      <point x="0" y="500" type="move" name="_aboveLC"/>
    </contour>
  </outline>
</glyph>
<glyph name="dblgravecmb.cap" format="1">
  <advance width="0"/>
  <outline>
    <contour>
      <point x="86" y="710" type="line"/>
      <point x="18" y="814" type="line"/>
      <point x="-20" y="814" type="line"/>
      <point x="58" y="710" type="line"/>
    </contour>
    <contour>
      <point x="-122" y="814" type="line"/>
      <point x="-160" y="814" type="line"/>
      <point x="-82" y="710" type="line"/>
      <point x="-54" y="710" type="line"/>
    </contour>
    <contour>
      <point x="0" y="682" type="move" name="_aboveUC"/>
    </contour>
  </outline>
</glyph>
<glyph name="dcroat" format="1">
  <advance width="540"/>
  <outline>
    <contour>
      <point x="242" y="584" type="line"/>
      <point x="444" y="584" type="line"/>
      <point x="520" y="588" type="line"/>
      <point x="520" y="612" type="line"/>
      <point x="242" y="612" type="line"/>
    </contour>
    <contour>
      <point x="54" y="228" type="curve" smooth="yes"/>
      <point x="54" y="72"/>
      <point x="132" y="-12"/>
      <point x="252" y="-12" type="curve" smooth="yes"/>
      <point x="318" y="-12"/>
      <point x="372" y="24"/>
      <point x="412" y="64" type="curve"/>
      <point x="414" y="64" type="line"/>
      <point x="418" y="0" type="line"/>
      <point x="444" y="0" type="line"/>
      <point x="444" y="722" type="line"/>
      <point x="414" y="722" type="line"/>
      <point x="414" y="500" type="line"/>
      <point x="416" y="410" type="line"/>
      <point x="366" y="448"/>
      <point x="326" y="470"/>
      <point x="268" y="470" type="curve" smooth="yes"/>
      <point x="152" y="470"/>
      <point x="54" y="376"/>
    </contour>
    <contour>
      <point x="86" y="228" type="curve" smooth="yes"/>
      <point x="86" y="346"/>
      <point x="164" y="442"/>
      <point x="266" y="442" type="curve" smooth="yes"/>
      <point x="316" y="442"/>
      <point x="360" y="424"/>
      <point x="414" y="376" type="curve"/>
      <point x="414" y="100" type="line"/>
      <point x="360" y="46"/>
      <point x="310" y="16"/>
      <point x="254" y="16" type="curve" smooth="yes"/>
      <point x="146" y="16"/>
      <point x="86" y="102"/>
    </contour>
  </outline>
</glyph>
<glyph name="dialytikagravecmb" format="1">
  <advance width="0"/>
  <outline>
    <contour>
      <point x="-88" y="604" type="curve"/>
      <point x="-70" y="604"/>
      <point x="-58" y="616"/>
      <point x="-58" y="634" type="curve" smooth="yes"/>
      <point x="-58" y="652"/>
      <point x="-70" y="664"/>
      <point x="-88" y="664" type="curve" smooth="yes"/>
      <point x="-106" y="664"/>
      <point x="-118" y="652"/>
      <point x="-118" y="634" type="curve" smooth="yes"/>
      <point x="-118" y="616"/>
      <point x="-106" y="604"/>
    </contour>
    <contour>
      <point x="8" y="562" type="line"/>
      <point x="32" y="562" type="line"/>
      <point x="-12" y="724" type="line"/>
      <point x="-50" y="724" type="line"/>
    </contour>
    <contour>
      <point x="88" y="604" type="curve"/>
      <point x="106" y="604"/>
      <point x="118" y="616"/>
      <point x="118" y="634" type="curve" smooth="yes"/>
      <point x="118" y="652"/>
      <point x="106" y="664"/>
      <point x="88" y="664" type="curve" smooth="yes"/>
      <point x="70" y="664"/>
      <point x="58" y="652"/>
      <point x="58" y="634" type="curve" smooth="yes"/>
      <point x="58" y="616"/>
      <point x="70" y="604"/>
    </contour>
    <contour>
      <point x="0" y="502" type="move" name="_aboveLC"/>
    </contour>
  </outline>
</glyph>
<glyph name="diamondblack" format="1">
  <advance width="694"/>
  <outline>
    <contour>
      <point x="348" y="-12" type="line"/>
      <point x="678" y="320" type="line"/>
      <point x="348" y="652" type="line"/>
      <point x="16" y="320" type="line"/>
    </contour>
  </outline>
</glyph>
<glyph name="dieresisacute" format="1">
  <advance width="0"/>
  <outline>
    <contour>
      <point x="-40" y="706" type="line"/>
      <point x="-12" y="706" type="line"/>
      <point x="82" y="802" type="line"/>
      <point x="40" y="802" type="line"/>
    </contour>
    <contour>
      <point x="-76" y="602" type="curve" smooth="yes"/>
      <point x="-58" y="602"/>
      <point x="-44" y="616"/>
      <point x="-44" y="634" type="curve" smooth="yes"/>
      <point x="-44" y="652"/>
      <point x="-58" y="666"/>
      <point x="-76" y="666" type="curve" smooth="yes"/>
      <point x="-94" y="666"/>
      <point x="-108" y="652"/>
      <point x="-108" y="634" type="curve" smooth="yes"/>
      <point x="-108" y="616"/>
      <point x="-94" y="602"/>
    </contour>
    <contour>
      <point x="76" y="602" type="curve" smooth="yes"/>
      <point x="94" y="602"/>
      <point x="108" y="616"/>
      <point x="108" y="634" type="curve" smooth="yes"/>
      <point x="108" y="652"/>
      <point x="94" y="666"/>
      <point x="76" y="666" type="curve" smooth="yes"/>
      <point x="58" y="666"/>
      <point x="44" y="652"/>
      <point x="44" y="634" type="curve" smooth="yes"/>
      <point x="44" y="616"/>
      <point x="58" y="602"/>
    </contour>
    <contour>
      <point x="0" y="500" type="move" name="_aboveLC"/>
    </contour>
  </outline>
</glyph>
<glyph name="dieresiscaron" format="1">
  <advance width="0"/>
  <outline>
    <contour>
      <point x="-14" y="706" type="line"/>
      <point x="14" y="706" type="line"/>
      <point x="108" y="802" type="line"/>
      <point x="78" y="802" type="line"/>
      <point x="2" y="734" type="line"/>
      <point x="-2" y="734" type="line"/>
      <point x="-78" y="802" type="line"/>
      <point x="-108" y="802" type="line"/>
    </contour>
    <contour>
      <point x="-76" y="602" type="curve" smooth="yes"/>
      <point x="-58" y="602"/>
      <point x="-44" y="616"/>
      <point x="-44" y="634" type="curve" smooth="yes"/>
      <point x="-44" y="652"/>
      <point x="-58" y="666"/>
      <point x="-76" y="666" type="curve" smooth="yes"/>
      <point x="-94" y="666"/>
      <point x="-108" y="652"/>
      <point x="-108" y="634" type="curve" smooth="yes"/>
      <point x="-108" y="616"/>
      <point x="-94" y="602"/>
    </contour>
    <contour>
      <point x="76" y="602" type="curve" smooth="yes"/>
      <point x="94" y="602"/>
      <point x="108" y="616"/>
      <point x="108" y="634" type="curve" smooth="yes"/>
      <point x="108" y="652"/>
      <point x="94" y="666"/>
      <point x="76" y="666" type="curve" smooth="yes"/>
      <point x="58" y="666"/>
      <point x="44" y="652"/>
      <point x="44" y="634" type="curve" smooth="yes"/>
      <point x="44" y="616"/>
      <point x="58" y="602"/>
    </contour>
    <contour>
      <point x="0" y="502" type="move" name="_aboveLC"/>
    </contour>
  </outline>
</glyph>
<glyph name="dieresiscmb" format="1">
  <advance width="0"/>
  <outline>
    <contour>
      <point x="-76" y="602" type="curve" smooth="yes"/>
      <point x="-58" y="602"/>
      <point x="-44" y="616"/>
      <point x="-44" y="634" type="curve" smooth="yes"/>
      <point x="-44" y="652"/>
      <point x="-58" y="666"/>
      <point x="-76" y="666" type="curve" smooth="yes"/>
      <point x="-94" y="666"/>
      <point x="-108" y="652"/>
      <point x="-108" y="634" type="curve" smooth="yes"/>
      <point x="-108" y="616"/>
      <point x="-94" y="602"/>
    </contour>
    <contour>
      <point x="76" y="602" type="curve" smooth="yes"/>
      <point x="94" y="602"/>
      <point x="108" y="616"/>
      <point x="108" y="634" type="curve" smooth="yes"/>
      <point x="108" y="652"/>
      <point x="94" y="666"/>
      <point x="76" y="666" type="curve" smooth="yes"/>
      <point x="58" y="666"/>
      <point x="44" y="652"/>
      <point x="44" y="634" type="curve" smooth="yes"/>
      <point x="44" y="616"/>
      <point x="58" y="602"/>
    </contour>
    <contour>
      <point x="0" y="502" type="move" name="_aboveLC"/>
    </contour>
    <contour>
      <point x="0" y="674" type="move" name="aboveLC"/>
    </contour>
  </outline>
</glyph>
<glyph name="dieresisgrave" format="1">
  <advance width="0"/>
  <outline>
    <contour>
      <point x="-86" y="602" type="curve" smooth="yes"/>
      <point x="-68" y="602"/>
      <point x="-54" y="616"/>
      <point x="-54" y="634" type="curve" smooth="yes"/>
      <point x="-54" y="652"/>
      <point x="-68" y="666"/>
      <point x="-86" y="666" type="curve" smooth="yes"/>
      <point x="-104" y="666"/>
      <point x="-118" y="652"/>
      <point x="-118" y="634" type="curve" smooth="yes"/>
      <point x="-118" y="616"/>
      <point x="-104" y="602"/>
    </contour>
    <contour>
      <point x="12" y="706" type="line"/>
      <point x="40" y="706" type="line"/>
      <point x="-40" y="802" type="line"/>
      <point x="-82" y="802" type="line"/>
    </contour>
    <contour>
      <point x="86" y="602" type="curve" smooth="yes"/>
      <point x="104" y="602"/>
      <point x="118" y="616"/>
      <point x="118" y="634" type="curve" smooth="yes"/>
      <point x="118" y="652"/>
      <point x="104" y="666"/>
      <point x="86" y="666" type="curve" smooth="yes"/>
      <point x="68" y="666"/>
      <point x="54" y="652"/>
      <point x="54" y="634" type="curve" smooth="yes"/>
      <point x="54" y="616"/>
      <point x="68" y="602"/>
    </contour>
    <contour>
      <point x="0" y="502" type="move" name="_aboveLC"/>
    </contour>
  </outline>
</glyph>
